advent_pro_fmm_reg_it.ufo
<glyph name="numbersign" format="2">
  <advance width="624"/>
  <unicode hex="0023"/>
  <outline>
    <contour>
      <point x="385" y="243" type="line"/>
      <point x="455" y="413" type="line"/>
      <point x="601" y="413" type="line"/>
      <point x="611" y="469" type="line"/>
      <point x="477" y="469" type="line"/>
      <point x="572" y="698" type="line"/>
      <point x="518" y="698" type="line"/>
      <point x="423" y="469" type="line"/>
      <point x="305" y="469" type="line"/>
      <point x="399" y="698" type="line"/>
      <point x="344" y="698" type="line"/>
      <point x="250" y="469" type="line"/>
      <point x="64" y="469" type="line"/>
      <point x="54" y="413" type="line"/>
      <point x="226" y="413" type="line"/>
      <point x="157" y="243" type="line"/>
      <point x="24" y="243" type="line"/>
      <point x="15" y="189" type="line"/>
      <point x="135" y="189" type="line"/>
      <point x="58" y="0" type="line"/>
      <point x="113" y="0" type="line"/>
      <point x="190" y="189" type="line"/>
      <point x="308" y="189" type="line"/>
      <point x="231" y="0" type="line"/>
      <point x="286" y="0" type="line"/>
      <point x="363" y="189" type="line"/>
      <point x="562" y="189" type="line"/>
      <point x="571" y="243" type="line"/>
    </contour>
    <contour>
      <point x="331" y="243" type="line"/>
      <point x="212" y="243" type="line"/>
      <point x="281" y="413" type="line"/>
      <point x="400" y="413" type="line"/>
    </contour>
  </outline>
</glyph>
<glyph name="parenleft" format="2">
  <advance width="286"/>
  <unicode hex="0028"/>
  <outline>
    <contour>
      <point x="276" y="778" type="curve"/>
      <point x="264" y="815" type="line"/>
      <point x="188" y="777"/>
      <point x="143" y="725"/>
      <point x="126" y="625" type="curve" smooth="yes"/>
      <point x="28" y="70" type="line" smooth="yes"/>
      <point x="5" y="-58"/>
      <point x="55" y="-81"/>
      <point x="100" y="-119" type="curve"/>
      <point x="124" y="-81" type="line"/>
      <point x="85" y="-48"/>
      <point x="71" y="-1"/>
      <point x="82" y="62" type="curve" smooth="yes"/>
      <point x="116" y="253"/>
      <point x="150" y="443"/>
      <point x="183" y="635" type="curve" smooth="yes"/>
      <point x="194" y="697"/>
      <point x="225" y="745"/>
    </contour>
  </outline>
</glyph>
<glyph name="asterisk" format="2">
  <advance width="341"/>
  <unicode hex="002A"/>
  <outline>
    <contour>
      <point x="51" y="625" type="line"/>
      <point x="24" y="577" type="line"/>
      <point x="124" y="539" type="line"/>
      <point x="43" y="449" type="line"/>
      <point x="82" y="418" type="line"/>
      <point x="164" y="514" type="line"/>
      <point x="216" y="418" type="line"/>
      <point x="263" y="449" type="line"/>
      <point x="213" y="539" type="line"/>
      <point x="328" y="577" type="line"/>
      <point x="316" y="625" type="line"/>
      <point x="202" y="585" type="line"/>
      <point x="222" y="698" type="line"/>
      <point x="168" y="698" type="line"/>
      <point x="148" y="585" type="line"/>
    </contour>
  </outline>
</glyph>
<glyph name="hyphen" format="2">
  <advance width="374"/>
  <unicode hex="002D"/>
  <outline>
    <contour>
      <point x="25" y="355" type="line"/>
      <point x="344" y="355" type="line"/>
      <point x="354" y="413" type="line"/>
      <point x="35" y="413" type="line"/>
    </contour>
  </outline>
</glyph>
<glyph name="period" format="2">
  <advance width="124"/>
  <unicode hex="002E"/>
  <outline>
    <contour>
      <point x="58" y="57" type="curve" smooth="yes"/>
      <point x="40" y="57"/>
      <point x="22" y="43"/>
      <point x="19" y="24" type="curve"/>
      <point x="15" y="5"/>
      <point x="28" y="-9"/>
      <point x="46" y="-9" type="curve" smooth="yes"/>
      <point x="64" y="-9"/>
      <point x="82" y="5"/>
      <point x="86" y="24" type="curve"/>
      <point x="89" y="43"/>
      <point x="76" y="57"/>
    </contour>
  </outline>
</glyph>
<glyph name="slash" format="2">
  <advance width="563"/>
  <unicode hex="002F"/>
  <outline>
    <contour>
      <point x="11" y="-113" type="line"/>
      <point x="66" y="-113" type="line"/>
      <point x="553" y="815" type="line"/>
      <point x="492" y="815" type="line"/>
    </contour>
  </outline>
</glyph>
<glyph name="one" format="1">
  <advance width="211"/>
  <unicode hex="0031"/>
  <outline>
    <contour>
      <point x="21" y="620" type="curve"/>
      <point x="28" y="581" type="line"/>
      <point x="62" y="585"/>
      <point x="122" y="613"/>
      <point x="149" y="632" type="curve"/>
      <point x="38" y="0" type="line"/>
      <point x="91" y="0" type="line"/>
      <point x="214" y="698" type="line"/>
      <point x="160" y="698" type="line"/>
      <point x="103" y="641"/>
      <point x="21" y="620"/>
    </contour>
  </outline>
</glyph>
<glyph name="two" format="2">
  <advance width="446"/>
  <unicode hex="0032"/>
  <outline>
    <contour>
      <point x="108" y="588" type="curve"/>
      <point x="157" y="569" type="line"/>
      <point x="189" y="628"/>
      <point x="239" y="654"/>
      <point x="284" y="654" type="curve" smooth="yes"/>
      <point x="341" y="656"/>
      <point x="388" y="612"/>
      <point x="376" y="539" type="curve" smooth="yes"/>
      <point x="370" y="508"/>
      <point x="360" y="486"/>
      <point x="311" y="425" type="curve" smooth="yes"/>
      <point x="211" y="295"/>
      <point x="103" y="176"/>
      <point x="1" y="53" type="curve"/>
      <point x="-8" y="0" type="line"/>
      <point x="341" y="0" type="line"/>
      <point x="350" y="53" type="line"/>
      <point x="66" y="53" type="line"/>
      <point x="162" y="166"/>
      <point x="258" y="280"/>
      <point x="354" y="394" type="curve"/>
      <point x="407" y="464"/>
      <point x="429" y="509"/>
      <point x="436" y="549" type="curve" smooth="yes"/>
      <point x="455" y="650"/>
      <point x="381" y="710"/>
      <point x="294" y="708" type="curve" smooth="yes"/>
      <point x="227" y="707"/>
      <point x="154" y="670"/>
    </contour>
  </outline>
</glyph>
<glyph name="seven" format="1">
  <advance width="476"/>
  <unicode hex="0037"/>
  <outline>
    <contour>
      <point x="55" y="0" type="line"/>
      <point x="486" y="643" type="line"/>
      <point x="496" y="698" type="line"/>
      <point x="105" y="698" type="line"/>
      <point x="95" y="641" type="line"/>
      <point x="423" y="641" type="line"/>
      <point x="-7" y="0" type="line"/>
    </contour>
  </outline>
</glyph>
<glyph name="nine" format="2">
  <advance width="462"/>
  <unicode hex="0039"/>
  <outline>
    <contour>
      <point x="277" y="707" type="curve" smooth="yes"/>
      <point x="217" y="707"/>
      <point x="164" y="686"/>
      <point x="116" y="646" type="curve" smooth="yes"/>
      <point x="68" y="605"/>
      <point x="38" y="554"/>
      <point x="28" y="495" type="curve" smooth="yes"/>
      <point x="18" y="437"/>
      <point x="30" y="386"/>
      <point x="63" y="345" type="curve" smooth="yes"/>
      <point x="97" y="305"/>
      <point x="144" y="284"/>
      <point x="206" y="284" type="curve" smooth="yes"/>
      <point x="266" y="284"/>
      <point x="322" y="307"/>
      <point x="372" y="352" type="curve"/>
      <point x="353" y="245" type="line" smooth="yes"/>
      <point x="342" y="182"/>
      <point x="315" y="135"/>
      <point x="272" y="102" type="curve" smooth="yes"/>
      <point x="231" y="70"/>
      <point x="185" y="54"/>
      <point x="134" y="54" type="curve" smooth="yes"/>
      <point x="96" y="54" type="line"/>
      <point x="86" y="-1" type="line"/>
      <point x="121" y="-1" type="line" smooth="yes"/>
      <point x="209" y="-1"/>
      <point x="284" y="34"/>
      <point x="328" y="84" type="curve" smooth="yes"/>
      <point x="372" y="131"/>
      <point x="397" y="183"/>
      <point x="406" y="238" type="curve" smooth="yes"/>
      <point x="452" y="495" type="line" smooth="yes"/>
      <point x="462" y="554"/>
      <point x="450" y="605"/>
      <point x="416" y="646" type="curve" smooth="yes"/>
      <point x="383" y="686"/>
      <point x="335" y="707"/>
    </contour>
    <contour>
      <point x="267" y="652" type="curve" smooth="yes"/>
      <point x="354" y="652"/>
      <point x="412" y="582"/>
      <point x="397" y="495" type="curve" smooth="yes"/>
      <point x="382" y="409"/>
      <point x="299" y="339"/>
      <point x="212" y="339" type="curve" smooth="yes"/>
      <point x="125" y="339"/>
      <point x="69" y="409"/>
      <point x="84" y="495" type="curve" smooth="yes"/>
      <point x="99" y="582"/>
      <point x="180" y="652"/>
    </contour>
  </outline>
</glyph>
<glyph name="equal" format="2">
  <advance width="386"/>
  <unicode hex="003D"/>
  <outline>
    <contour>
      <point x="39" y="356" type="line"/>
      <point x="358" y="356" type="line"/>
      <point x="368" y="411" type="line"/>
      <point x="49" y="411" type="line"/>
    </contour>
    <contour>
      <point x="21" y="252" type="line"/>
      <point x="340" y="252" type="line"/>
      <point x="350" y="307" type="line"/>
      <point x="31" y="307" type="line"/>
    </contour>
  </outline>
</glyph>
<glyph name="greater" format="2">
  <advance width="386"/>
  <unicode hex="003E"/>
  <outline>
    <contour>
      <point x="98" y="597" type="line"/>
      <point x="294" y="356" type="line"/>
      <point x="13" y="118" type="line"/>
      <point x="44" y="79" type="line"/>
      <point x="371" y="358" type="line"/>
      <point x="142" y="635" type="line"/>
    </contour>
  </outline>
</glyph>
<glyph name="question" format="2">
  <advance width="397"/>
  <unicode hex="003F"/>
  <outline>
    <contour>
      <point x="22" y="530" type="curve"/>
      <point x="79" y="530" type="line"/>
      <point x="94" y="616"/>
      <point x="161" y="656"/>
      <point x="222" y="654" type="curve" smooth="yes"/>
      <point x="279" y="652"/>
      <point x="331" y="612"/>
      <point x="317" y="533" type="curve" smooth="yes"/>
      <point x="306" y="468"/>
      <point x="259" y="431"/>
      <point x="214" y="388" type="curve" smooth="yes"/>
      <point x="169" y="345"/>
      <point x="121" y="299"/>
      <point x="106" y="211" type="curve" smooth="yes"/>
      <point x="89" y="119" type="line"/>
      <point x="140" y="119" type="line"/>
      <point x="145" y="147"/>
      <point x="151" y="177"/>
      <point x="156" y="206" type="curve" smooth="yes"/>
      <point x="170" y="289"/>
      <point x="214" y="320"/>
      <point x="261" y="365" type="curve" smooth="yes"/>
      <point x="314" y="417"/>
      <point x="360" y="462"/>
      <point x="373" y="536" type="curve" smooth="yes"/>
      <point x="392" y="642"/>
      <point x="319" y="705"/>
      <point x="231" y="707" type="curve" smooth="yes"/>
      <point x="143" y="708"/>
      <point x="43" y="652"/>
    </contour>
    <contour>
      <point x="106" y="57" type="curve" smooth="yes"/>
      <point x="87" y="57"/>
      <point x="68" y="43"/>
      <point x="65" y="24" type="curve"/>
      <point x="61" y="5"/>
      <point x="75" y="-9"/>
      <point x="94" y="-9" type="curve" smooth="yes"/>
      <point x="111" y="-9"/>
      <point x="129" y="5"/>
      <point x="133" y="24" type="curve"/>
      <point x="136" y="43"/>
      <point x="123" y="57"/>
    </contour>
  </outline>
</glyph>
<glyph name="A" format="1">
  <advance width="520"/>
  <unicode hex="0041"/>
  <outline>
    <contour>
      <point x="492" y="0" type="line"/>
      <point x="388" y="698" type="line"/>
      <point x="335" y="698" type="line"/>
      <point x="-12" y="0" type="line"/>
      <point x="50" y="0" type="line"/>
      <point x="171" y="244" type="line"/>
      <point x="396" y="244" type="line"/>
      <point x="433" y="0" type="line"/>
    </contour>
    <contour>
      <point x="195" y="299" type="line"/>
      <point x="346" y="605" type="line"/>
      <point x="390" y="299" type="line"/>
    </contour>
    <contour>
      <point x="156" y="700" type="move" name="tonos"/>
    </contour>
    <contour>
      <point x="330" y="735" type="move" name="top"/>
    </contour>
    <contour>
      <point x="189" y="0" type="move" name="ogonek"/>
    </contour>
  </outline>
</glyph>
<glyph name="B" format="2">
  <advance width="509"/>
  <unicode hex="0042"/>
  <outline>
    <contour>
      <point x="343" y="698" type="curve" smooth="yes"/>
      <point x="123" y="698" type="line"/>
      <point x="0" y="0" type="line"/>
      <point x="230" y="0" type="line" smooth="yes"/>
      <point x="306" y="0"/>
      <point x="367" y="26"/>
      <point x="404" y="69" type="curve" smooth="yes"/>
      <point x="437" y="109"/>
      <point x="459" y="155"/>
      <point x="468" y="208" type="curve" smooth="yes"/>
      <point x="485" y="304"/>
      <point x="452" y="363"/>
      <point x="397" y="389" type="curve"/>
      <point x="397" y="391" type="line"/>
      <point x="398" y="392"/>
      <point x="399" y="392"/>
      <point x="399" y="393" type="curve"/>
      <point x="448" y="422"/>
      <point x="478" y="466"/>
      <point x="488" y="526" type="curve" smooth="yes"/>
      <point x="498" y="584"/>
      <point x="491" y="628"/>
      <point x="464" y="656" type="curve" smooth="yes"/>
      <point x="438" y="684"/>
      <point x="398" y="698"/>
    </contour>
    <contour>
      <point x="291" y="411" type="curve" smooth="yes"/>
      <point x="128" y="411" type="line"/>
      <point x="169" y="645" type="line"/>
      <point x="325" y="645" type="line" smooth="yes"/>
      <point x="409" y="645"/>
      <point x="444" y="606"/>
      <point x="431" y="528" type="curve" smooth="yes"/>
      <point x="425" y="498"/>
      <point x="414" y="473"/>
      <point x="398" y="454" type="curve" smooth="yes"/>
      <point x="373" y="426"/>
      <point x="336" y="411"/>
    </contour>
    <contour>
      <point x="237" y="53" type="curve" smooth="yes"/>
      <point x="65" y="53" type="line"/>
      <point x="118" y="356" type="line"/>
      <point x="306" y="356" type="line" smooth="yes"/>
      <point x="375" y="356"/>
      <point x="425" y="305"/>
      <point x="409" y="212" type="curve" smooth="yes"/>
      <point x="390" y="106"/>
      <point x="333" y="53"/>
    </contour>
  </outline>
</glyph>
<glyph name="C" format="1">
  <advance width="435"/>
  <unicode hex="0043"/>
  <outline>
    <contour>
      <point x="416" y="637" type="curve"/>
      <point x="440" y="675" type="line"/>
      <point x="400" y="697"/>
      <point x="354" y="708"/>
      <point x="303" y="708" type="curve" smooth="yes"/>
      <point x="199" y="708"/>
      <point x="99" y="657"/>
      <point x="75" y="517" type="curve" smooth="yes"/>
      <point x="17" y="183" type="line" smooth="yes"/>
      <point x="2" y="99"/>
      <point x="25" y="42"/>
      <point x="69" y="15" type="curve" smooth="yes"/>
      <point x="113" y="-10"/>
      <point x="162" y="-10"/>
      <point x="183" y="-10" type="curve" smooth="yes"/>
      <point x="233" y="-10"/>
      <point x="289" y="1"/>
      <point x="350" y="23" type="curve"/>
      <point x="346" y="69" type="line"/>
      <point x="285" y="50"/>
      <point x="235" y="40"/>
      <point x="196" y="40" type="curve" smooth="yes"/>
      <point x="93" y="40"/>
      <point x="55" y="79"/>
      <point x="73" y="185" type="curve" smooth="yes"/>
      <point x="131" y="512" type="line" smooth="yes"/>
      <point x="150" y="616"/>
      <point x="215" y="658"/>
      <point x="313" y="658" type="curve" smooth="yes"/>
      <point x="347" y="658"/>
      <point x="381" y="651"/>
    </contour>
    <contour>
      <point x="217" y="735" type="move" name="top"/>
    </contour>
    <contour>
      <point x="217" y="0" type="move" name="bottom"/>
    </contour>
  </outline>
</glyph>
<glyph name="D" format="2">
  <advance width="522"/>
  <unicode hex="0044"/>
  <outline>
    <contour>
      <point x="311" y="698" type="curve" smooth="yes"/>
      <point x="123" y="698" type="line"/>
      <point x="0" y="0" type="line"/>
      <point x="208" y="0" type="line" smooth="yes"/>
      <point x="349" y="0"/>
      <point x="430" y="67"/>
      <point x="454" y="199" type="curve" smooth="yes"/>
      <point x="502" y="473" type="line" smooth="yes"/>
      <point x="526" y="609"/>
      <point x="461" y="698"/>
    </contour>
    <contour>
      <point x="199" y="50" type="curve" smooth="yes"/>
      <point x="64" y="50" type="line"/>
      <point x="170" y="648" type="line"/>
      <point x="312" y="648" type="line" smooth="yes"/>
      <point x="429" y="648"/>
      <point x="464" y="574"/>
      <point x="449" y="488" type="curve" smooth="yes"/>
      <point x="396" y="189" type="line" smooth="yes"/>
      <point x="380" y="97"/>
      <point x="314" y="50"/>
    </contour>
  </outline>
</glyph>
<glyph name="I" format="2">
  <advance width="185"/>
  <unicode hex="0049"/>
  <outline>
    <contour>
      <point x="56" y="649" type="line"/>
      <point x="124" y="647" type="line"/>
      <point x="10" y="0" type="line"/>
      <point x="65" y="0" type="line"/>
      <point x="188" y="698" type="line"/>
      <point x="65" y="698" type="line"/>
    </contour>
  </outline>
</glyph>
<glyph name="J" format="2">
  <advance width="247"/>
  <unicode hex="004A"/>
  <outline>
    <contour>
      <point x="148" y="118" type="curve" smooth="yes"/>
      <point x="251" y="698" type="line"/>
      <point x="128" y="698" type="line"/>
      <point x="119" y="649" type="line"/>
      <point x="185" y="647" type="line"/>
      <point x="90" y="113" type="line" smooth="yes"/>
      <point x="76" y="34"/>
      <point x="34" y="0"/>
      <point x="-10" y="0" type="curve"/>
      <point x="-4" y="-37" type="line"/>
      <point x="39" y="-37"/>
      <point x="75" y="-21"/>
      <point x="101" y="10" type="curve" smooth="yes"/>
      <point x="125" y="36"/>
      <point x="140" y="73"/>
    </contour>
  </outline>
</glyph>
<glyph name="K" format="2">
  <advance width="465"/>
  <unicode hex="004B"/>
  <outline>
    <contour>
      <point x="120" y="366" type="line"/>
      <point x="179" y="698" type="line"/>
      <point x="123" y="698" type="line"/>
      <point x="0" y="0" type="line"/>
      <point x="56" y="0" type="line"/>
      <point x="103" y="268" type="line"/>
      <point x="163" y="344" type="line"/>
      <point x="329" y="0" type="line"/>
      <point x="396" y="0" type="line"/>
      <point x="210" y="397" type="line"/>
      <point x="467" y="698" type="line"/>
      <point x="402" y="698" type="line"/>
    </contour>
  </outline>
</glyph>
<glyph name="L" format="2">
  <advance width="393"/>
  <unicode hex="004C"/>
  <outline>
    <contour>
      <point x="0" y="0" type="line"/>
      <point x="360" y="0" type="line"/>
      <point x="368" y="50" type="line"/>
      <point x="64" y="50" type="line"/>
      <point x="179" y="698" type="line"/>
      <point x="123" y="698" type="line"/>
    </contour>
  </outline>
</glyph>
<glyph name="M" format="2">
  <advance width="655"/>
  <unicode hex="004D"/>
  <outline>
    <contour>
      <point x="179" y="698" type="line"/>
      <point x="123" y="698" type="line"/>
      <point x="0" y="0" type="line"/>
      <point x="56" y="0" type="line"/>
      <point x="149" y="533" type="line"/>
      <point x="236" y="0" type="line"/>
      <point x="297" y="0" type="line"/>
      <point x="572" y="533" type="line"/>
      <point x="479" y="0" type="line"/>
      <point x="535" y="0" type="line"/>
      <point x="658" y="698" type="line"/>
      <point x="602" y="698" type="line"/>
      <point x="281" y="86" type="line"/>
    </contour>
  </outline>
</glyph>
<glyph name="P" format="2">
  <advance width="535"/>
  <unicode hex="0050"/>
  <outline>
    <contour>
      <point x="358" y="698" type="curve" smooth="yes"/>
      <point x="123" y="698" type="line"/>
      <point x="0" y="0" type="line"/>
      <point x="56" y="0" type="line"/>
      <point x="99" y="244" type="line"/>
      <point x="163" y="244"/>
      <point x="230" y="244"/>
      <point x="278" y="244" type="curve" smooth="yes"/>
      <point x="410" y="244"/>
      <point x="487" y="307"/>
      <point x="516" y="472" type="curve" smooth="yes"/>
      <point x="546" y="643"/>
      <point x="485" y="698"/>
    </contour>
    <contour>
      <point x="108" y="299" type="curve"/>
      <point x="169" y="645" type="line"/>
      <point x="353" y="645" type="line" smooth="yes"/>
      <point x="431" y="645"/>
      <point x="485" y="613"/>
      <point x="460" y="472" type="curve" smooth="yes"/>
      <point x="433" y="320"/>
      <point x="368" y="299"/>
      <point x="292" y="299" type="curve" smooth="yes"/>
      <point x="247" y="299"/>
      <point x="181" y="299"/>
    </contour>
  </outline>
</glyph>
<glyph name="Q" format="1">
  <advance width="514"/>
  <unicode hex="0051"/>
  <outline>
    <contour>
      <point x="257" y="-62"/>
      <point x="218" y="-33"/>
      <point x="232" y="50" type="curve"/>
      <point x="254" y="173" type="line"/>
      <point x="198" y="173" type="line"/>
      <point x="176" y="51" type="line"/>
      <point x="157" y="-61"/>
      <point x="207" y="-107"/>
      <point x="324" y="-107" type="curve"/>
      <point x="338" y="-61" type="line"/>
    </contour>
    <component base="O"/>
  </outline>
</glyph>
<glyph name="S" format="2">
  <advance width="517"/>
  <unicode hex="0053"/>
  <outline>
    <contour>
      <point x="476" y="618" type="curve"/>
      <point x="503" y="670" type="line"/>
      <point x="461" y="695"/>
      <point x="404" y="708"/>
      <point x="346" y="707" type="curve" smooth="yes"/>
      <point x="291" y="707"/>
      <point x="235" y="693"/>
      <point x="191" y="664" type="curve"/>
      <point x="148" y="639"/>
      <point x="117" y="599"/>
      <point x="105" y="547" type="curve" smooth="yes"/>
      <point x="83" y="448"/>
      <point x="148" y="402"/>
      <point x="226" y="365" type="curve" smooth="yes"/>
      <point x="256" y="351"/>
      <point x="288" y="339"/>
      <point x="318" y="324" type="curve" smooth="yes"/>
      <point x="383" y="293"/>
      <point x="435" y="254"/>
      <point x="418" y="177" type="curve" smooth="yes"/>
      <point x="409" y="140"/>
      <point x="391" y="112"/>
      <point x="367" y="91" type="curve" smooth="yes"/>
      <point x="326" y="56"/>
      <point x="269" y="42"/>
      <point x="214" y="42" type="curve" smooth="yes"/>
      <point x="158" y="42"/>
      <point x="117" y="62"/>
      <point x="92" y="84" type="curve" smooth="yes"/>
      <point x="52" y="120"/>
      <point x="48" y="159"/>
      <point x="48" y="159" type="curve"/>
      <point x="-2" y="132" type="line"/>
      <point x="-2" y="132"/>
      <point x="6" y="77"/>
      <point x="57" y="35" type="curve" smooth="yes"/>
      <point x="88" y="9"/>
      <point x="136" y="-12"/>
      <point x="208" y="-12" type="curve" smooth="yes"/>
      <point x="272" y="-12"/>
      <point x="340" y="3"/>
      <point x="392" y="43" type="curve" smooth="yes"/>
      <point x="434" y="73"/>
      <point x="465" y="118"/>
      <point x="478" y="179" type="curve" smooth="yes"/>
      <point x="500" y="282"/>
      <point x="432" y="333"/>
      <point x="352" y="373" type="curve" smooth="yes"/>
      <point x="320" y="389"/>
      <point x="287" y="403"/>
      <point x="255" y="417" type="curve" smooth="yes"/>
      <point x="194" y="447"/>
      <point x="148" y="480"/>
      <point x="162" y="541" type="curve" smooth="yes"/>
      <point x="170" y="579"/>
      <point x="193" y="606"/>
      <point x="223" y="625" type="curve" smooth="yes"/>
      <point x="255" y="645"/>
      <point x="297" y="653"/>
      <point x="338" y="653" type="curve" smooth="yes"/>
      <point x="388" y="654"/>
      <point x="439" y="641"/>
    </contour>
  </outline>
</glyph>
<glyph name="T" format="2">
  <advance width="405"/>
  <unicode hex="0054"/>
  <outline>
    <contour>
      <point x="242" y="648" type="line"/>
      <point x="418" y="648" type="line"/>
      <point x="427" y="698" type="line"/>
      <point x="26" y="698" type="line"/>
      <point x="17" y="648" type="line"/>
      <point x="187" y="648" type="line"/>
      <point x="73" y="0" type="line"/>
      <point x="128" y="0" type="line"/>
    </contour>
  </outline>
</glyph>
<glyph name="W" format="2">
  <advance width="706"/>
  <unicode hex="0057"/>
  <outline>
    <contour>
      <point x="419" y="698" type="line"/>
      <point x="341" y="698" type="line"/>
      <point x="123" y="69" type="line"/>
      <point x="93" y="698" type="line"/>
      <point x="32" y="698" type="line"/>
      <point x="74" y="0" type="line"/>
      <point x="159" y="0" type="line"/>
      <point x="363" y="597" type="line"/>
      <point x="356" y="0" type="line"/>
      <point x="440" y="0" type="line"/>
      <point x="726" y="698" type="line"/>
      <point x="667" y="698" type="line"/>
      <point x="415" y="69" type="line"/>
    </contour>
  </outline>
</glyph>
<glyph name="X" format="2">
  <advance width="587"/>
  <unicode hex="0058"/>
  <outline>
    <contour>
      <point x="312" y="405" type="line"/>
      <point x="192" y="698" type="line"/>
      <point x="129" y="698" type="line"/>
      <point x="269" y="351" type="line"/>
      <point x="-12" y="0" type="line"/>
      <point x="56" y="0" type="line"/>
      <point x="292" y="293" type="line"/>
      <point x="424" y="0" type="line"/>
      <point x="493" y="0" type="line"/>
      <point x="336" y="351" type="line"/>
      <point x="600" y="698" type="line"/>
      <point x="538" y="698" type="line"/>
    </contour>
  </outline>
</glyph>
<glyph name="Z" format="2">
  <advance width="584"/>
  <unicode hex="005A"/>
  <outline>
    <contour>
      <point x="595" y="698" type="line"/>
      <point x="127" y="698" type="line"/>
      <point x="118" y="647" type="line"/>
      <point x="514" y="647" type="line"/>
      <point x="0" y="50" type="line"/>
      <point x="-8" y="0" type="line"/>
      <point x="477" y="0" type="line"/>
      <point x="485" y="51" type="line"/>
      <point x="70" y="51" type="line"/>
      <point x="586" y="648" type="line"/>
    </contour>
  </outline>
</glyph>
<glyph name="bracketright" format="2">
  <advance width="345"/>
  <unicode hex="005D"/>
  <outline>
    <contour>
      <point x="11" y="-113" type="line"/>
      <point x="171" y="-113" type="line"/>
      <point x="334" y="815" type="line"/>
      <point x="173" y="815" type="line"/>
      <point x="165" y="770" type="line"/>
      <point x="269" y="760" type="line"/>
      <point x="124" y="-59" type="line"/>
      <point x="17" y="-69" type="line"/>
    </contour>
  </outline>
</glyph>
<glyph name="asciicircum" format="2">
  <advance width="266"/>
  <unicode hex="005E"/>
  <outline>
    <contour>
      <point x="263" y="770" type="line"/>
      <point x="158" y="897" type="line"/>
      <point x="3" y="769" type="line"/>
      <point x="35" y="730" type="line"/>
      <point x="144" y="821" type="line"/>
      <point x="218" y="733" type="line"/>
    </contour>
  </outline>
</glyph>
<glyph name="c" format="2">
  <advance width="388"/>
  <unicode hex="0063"/>
  <outline>
    <contour>
      <point x="362" y="430" type="curve"/>
      <point x="385" y="476" type="line"/>
      <point x="333" y="503"/>
      <point x="268" y="516"/>
      <point x="208" y="504" type="curve" smooth="yes"/>
      <point x="162" y="494"/>
      <point x="119" y="470"/>
      <point x="85" y="426" type="curve" smooth="yes"/>
      <point x="61" y="394"/>
      <point x="48" y="362"/>
      <point x="39" y="318" type="curve" smooth="yes"/>
      <point x="13" y="173" type="line" smooth="yes"/>
      <point x="-4" y="75"/>
      <point x="31" y="23"/>
      <point x="95" y="1" type="curve" smooth="yes"/>
      <point x="151" y="-18"/>
      <point x="234" y="-13"/>
      <point x="304" y="5" type="curve"/>
      <point x="302" y="55" type="line"/>
      <point x="302" y="55"/>
      <point x="175" y="26"/>
      <point x="116" y="52" type="curve"/>
      <point x="66" y="71"/>
      <point x="58" y="119"/>
      <point x="70" y="185" type="curve" smooth="yes"/>
      <point x="91" y="305" type="line" smooth="yes"/>
      <point x="98" y="341"/>
      <point x="110" y="371"/>
      <point x="126" y="394" type="curve" smooth="yes"/>
      <point x="148" y="426"/>
      <point x="177" y="446"/>
      <point x="208" y="453" type="curve" smooth="yes"/>
      <point x="253" y="464"/>
      <point x="318" y="452"/>
    </contour>
  </outline>
</glyph>
<glyph name="d" format="1">
  <advance width="492"/>
  <unicode hex="0064"/>
  <outline>
    <contour>
      <point x="262" y="-9"/>
      <point x="372" y="0"/>
      <point x="372" y="0" type="curve"/>
      <point x="495" y="698" type="line"/>
      <point x="440" y="698" type="line"/>
      <point x="400" y="471" type="line"/>
      <point x="357" y="491"/>
      <point x="308" y="508"/>
      <point x="243" y="508" type="curve" smooth="yes"/>
      <point x="163" y="508"/>
      <point x="70" y="470"/>
      <point x="51" y="358" type="curve"/>
      <point x="17" y="168" type="line"/>
      <point x="-9" y="21"/>
      <point x="84" y="-14"/>
      <point x="214" y="-10" type="curve" smooth="yes"/>
    </contour>
    <contour>
      <point x="295" y="461"/>
      <point x="341" y="444"/>
      <point x="391" y="422" type="curve"/>
      <point x="325" y="46" type="line"/>
      <point x="325" y="46"/>
      <point x="282" y="42"/>
      <point x="217" y="38" type="curve" smooth="yes"/>
      <point x="83" y="33"/>
      <point x="57" y="80"/>
      <point x="73" y="175" type="curve"/>
      <point x="105" y="354" type="line"/>
      <point x="121" y="446"/>
      <point x="194" y="461"/>
      <point x="231" y="461" type="curve" smooth="yes"/>
    </contour>
    <contour>
      <point x="316" y="735" type="move" name="top"/>
    </contour>
  </outline>
</glyph>
<glyph name="e" format="2">
  <advance width="422"/>
  <unicode hex="0065"/>
  <outline>
    <contour>
      <point x="64" y="133" type="curve" smooth="yes"/>
      <point x="75" y="195" type="line"/>
      <point x="382" y="211" type="line"/>
      <point x="405" y="341" type="line" smooth="yes"/>
      <point x="414" y="392"/>
      <point x="406" y="432"/>
      <point x="383" y="461" type="curve" smooth="yes"/>
      <point x="357" y="492"/>
      <point x="315" y="508"/>
      <point x="258" y="508" type="curve" smooth="yes"/>
      <point x="208" y="508"/>
      <point x="165" y="496"/>
      <point x="130" y="473" type="curve" smooth="yes"/>
      <point x="86" y="444"/>
      <point x="55" y="398"/>
      <point x="44" y="338" type="curve" smooth="yes"/>
      <point x="8" y="133" type="line" smooth="yes"/>
      <point x="-1" y="80"/>
      <point x="10" y="46"/>
      <point x="30" y="24" type="curve" smooth="yes"/>
      <point x="64" y="-13"/>
      <point x="124" y="-12"/>
      <point x="154" y="-12" type="curve" smooth="yes"/>
      <point x="205" y="-11"/>
      <point x="269" y="4"/>
      <point x="326" y="35" type="curve"/>
      <point x="311" y="78" type="line"/>
      <point x="255" y="51"/>
      <point x="207" y="36"/>
      <point x="158" y="36" type="curve" smooth="yes"/>
      <point x="139" y="36"/>
      <point x="98" y="36"/>
      <point x="78" y="63" type="curve"/>
      <point x="64" y="77"/>
      <point x="58" y="99"/>
    </contour>
    <contour>
      <point x="350" y="348" type="curve" smooth="yes"/>
      <point x="345" y="319"/>
      <point x="339" y="289"/>
      <point x="335" y="261" type="curve"/>
      <point x="85" y="250" type="line"/>
      <point x="90" y="278"/>
      <point x="95" y="308"/>
      <point x="100" y="337" type="curve" smooth="yes"/>
      <point x="107" y="378"/>
      <point x="124" y="408"/>
      <point x="150" y="429" type="curve" smooth="yes"/>
      <point x="178" y="450"/>
      <point x="211" y="461"/>
      <point x="249" y="461" type="curve" smooth="yes"/>
      <point x="282" y="461"/>
      <point x="315" y="454"/>
      <point x="339" y="418" type="curve" smooth="yes"/>
      <point x="351" y="399"/>
      <point x="355" y="377"/>
    </contour>
  </outline>
</glyph>
<glyph name="g" format="2">
  <advance width="452"/>
  <unicode hex="0067"/>
  <outline>
    <contour>
      <point x="344" y="-64" type="curve" smooth="yes"/>
      <point x="443" y="498" type="line"/>
      <point x="386" y="498" type="line"/>
      <point x="378" y="451" type="line"/>
      <point x="340" y="487"/>
      <point x="294" y="506"/>
      <point x="246" y="508" type="curve" smooth="yes"/>
      <point x="138" y="513"/>
      <point x="66" y="450"/>
      <point x="47" y="345" type="curve" smooth="yes"/>
      <point x="17" y="175" type="line" smooth="yes"/>
      <point x="-4" y="53"/>
      <point x="43" y="-12"/>
      <point x="155" y="-12" type="curve" smooth="yes"/>
      <point x="215" y="-12"/>
      <point x="279" y="20"/>
      <point x="309" y="61" type="curve"/>
      <point x="287" y="-63" type="line" smooth="yes"/>
      <point x="278" y="-116"/>
      <point x="249" y="-150"/>
      <point x="202" y="-167" type="curve"/>
      <point x="210" y="-210" type="line"/>
      <point x="291" y="-186"/>
      <point x="330" y="-144"/>
    </contour>
    <contour>
      <point x="368" y="392" type="curve"/>
      <point x="329" y="173" type="line" smooth="yes"/>
      <point x="314" y="88"/>
      <point x="244" y="40"/>
      <point x="168" y="40" type="curve" smooth="yes"/>
      <point x="92" y="40"/>
      <point x="57" y="82"/>
      <point x="72" y="166" type="curve" smooth="yes"/>
      <point x="103" y="342" type="line" smooth="yes"/>
      <point x="119" y="432"/>
      <point x="187" y="463"/>
      <point x="249" y="458" type="curve" smooth="yes"/>
      <point x="293" y="454"/>
      <point x="346" y="433"/>
    </contour>
  </outline>
</glyph>
<glyph name="h" format="2">
  <advance width="453"/>
  <unicode hex="0068"/>
  <outline>
    <contour>
      <point x="137" y="465" type="curve"/>
      <point x="179" y="698" type="line"/>
      <point x="123" y="698" type="line"/>
      <point x="0" y="0" type="line"/>
      <point x="56" y="0" type="line"/>
      <point x="130" y="424" type="line"/>
      <point x="175" y="447"/>
      <point x="219" y="458"/>
      <point x="264" y="458" type="curve" smooth="yes"/>
      <point x="327" y="458"/>
      <point x="389" y="432"/>
      <point x="373" y="342" type="curve" smooth="yes"/>
      <point x="313" y="0" type="line"/>
      <point x="369" y="0" type="line"/>
      <point x="429" y="345" type="line" smooth="yes"/>
      <point x="448" y="450"/>
      <point x="394" y="508"/>
      <point x="284" y="508" type="curve" smooth="yes"/>
      <point x="234" y="508"/>
      <point x="181" y="492"/>
    </contour>
  </outline>
</glyph>
<glyph name="i" format="2">
  <advance width="183"/>
  <unicode hex="0069"/>
  <outline>
    <contour>
      <point x="2" y="0" type="line"/>
      <point x="58" y="0" type="line"/>
      <point x="145" y="499" type="line"/>
      <point x="89" y="499" type="line"/>
    </contour>
    <contour>
      <point x="155" y="708" type="curve" smooth="yes"/>
      <point x="136" y="708"/>
      <point x="119" y="693"/>
      <point x="115" y="674" type="curve" smooth="yes"/>
      <point x="112" y="656"/>
      <point x="125" y="641"/>
      <point x="144" y="641" type="curve" smooth="yes"/>
      <point x="161" y="641"/>
      <point x="179" y="656"/>
      <point x="182" y="674" type="curve" smooth="yes"/>
      <point x="186" y="693"/>
      <point x="172" y="708"/>
    </contour>
  </outline>
</glyph>
<glyph name="k" format="2">
  <advance width="400"/>
  <unicode hex="006B"/>
  <outline>
    <contour>
      <point x="209" y="351" type="curve"/>
      <point x="380" y="480" type="line"/>
      <point x="347" y="518" type="line"/>
      <point x="114" y="334" type="line"/>
      <point x="179" y="698" type="line"/>
      <point x="123" y="698" type="line"/>
      <point x="0" y="0" type="line"/>
      <point x="56" y="0" type="line"/>
      <point x="103" y="272" type="line"/>
      <point x="163" y="316" type="line"/>
      <point x="299" y="0" type="line"/>
      <point x="366" y="0" type="line"/>
      <point x="293" y="158"/>
      <point x="241" y="276"/>
    </contour>
  </outline>
</glyph>
<glyph name="l" format="2">
  <advance width="175"/>
  <unicode hex="006C"/>
  <outline>
    <contour>
      <point x="0" y="0" type="line"/>
      <point x="55" y="0" type="line"/>
      <point x="178" y="698" type="line"/>
      <point x="123" y="698" type="line"/>
    </contour>
  </outline>
</glyph>
<glyph name="n" format="2">
  <advance width="456"/>
  <unicode hex="006E"/>
  <outline>
    <contour>
      <point x="373" y="341" type="curve" smooth="yes"/>
      <point x="313" y="0" type="line"/>
      <point x="368" y="0" type="line"/>
      <point x="428" y="344" type="line" smooth="yes"/>
      <point x="447" y="449"/>
      <point x="393" y="508"/>
      <point x="283" y="508" type="curve" smooth="yes"/>
      <point x="234" y="508"/>
      <point x="180" y="491"/>
      <point x="137" y="465" type="curve"/>
      <point x="143" y="499" type="line"/>
      <point x="87" y="499" type="line"/>
      <point x="0" y="0" type="line"/>
      <point x="56" y="0" type="line"/>
      <point x="130" y="424" type="line"/>
      <point x="175" y="447"/>
      <point x="218" y="458"/>
      <point x="263" y="458" type="curve" smooth="yes"/>
      <point x="327" y="458"/>
      <point x="388" y="431"/>
    </contour>
  </outline>
</glyph>
<glyph name="o" format="2">
  <advance width="434"/>
  <unicode hex="006F"/>
  <outline>
    <contour>
      <point x="384" y="184" type="curve" smooth="yes"/>
      <point x="407" y="315" type="line" smooth="yes"/>
      <point x="428" y="436"/>
      <point x="377" y="510"/>
      <point x="258" y="510" type="curve" smooth="yes"/>
      <point x="139" y="510"/>
      <point x="60" y="442"/>
      <point x="38" y="315" type="curve" smooth="yes"/>
      <point x="15" y="184" type="line" smooth="yes"/>
      <point x="-4" y="75"/>
      <point x="45" y="-10"/>
      <point x="169" y="-10" type="curve" smooth="yes"/>
      <point x="292" y="-10"/>
      <point x="364" y="71"/>
    </contour>
    <contour>
      <point x="351" y="315" type="curve" smooth="yes"/>
      <point x="326" y="174" type="line" smooth="yes"/>
      <point x="312" y="92"/>
      <point x="261" y="40"/>
      <point x="178" y="40" type="curve" smooth="yes"/>
      <point x="97" y="40"/>
      <point x="55" y="94"/>
      <point x="69" y="174" type="curve" smooth="yes"/>
      <point x="94" y="315" type="line" smooth="yes"/>
      <point x="111" y="411"/>
      <point x="164" y="460"/>
      <point x="252" y="460" type="curve" smooth="yes"/>
      <point x="338" y="460"/>
      <point x="368" y="411"/>
    </contour>
  </outline>
</glyph>
<glyph name="q" format="2">
  <advance width="452"/>
  <unicode hex="0071"/>
  <outline>
    <contour>
      <point x="309" y="62" type="curve"/>
      <point x="264" y="-198" type="line"/>
      <point x="318" y="-211" type="line"/>
      <point x="443" y="498" type="line"/>
      <point x="386" y="498" type="line"/>
      <point x="378" y="452" type="line"/>
      <point x="341" y="488"/>
      <point x="294" y="507"/>
      <point x="246" y="509" type="curve" smooth="yes"/>
      <point x="138" y="514"/>
      <point x="66" y="451"/>
      <point x="47" y="345" type="curve" smooth="yes"/>
      <point x="18" y="176" type="line" smooth="yes"/>
      <point x="-4" y="54"/>
      <point x="44" y="-11"/>
      <point x="156" y="-11" type="curve" smooth="yes"/>
      <point x="216" y="-11"/>
      <point x="279" y="21"/>
    </contour>
    <contour>
      <point x="368" y="393" type="curve"/>
      <point x="329" y="173" type="line" smooth="yes"/>
      <point x="314" y="88"/>
      <point x="244" y="41"/>
      <point x="168" y="41" type="curve" smooth="yes"/>
      <point x="92" y="41"/>
      <point x="57" y="84"/>
      <point x="72" y="167" type="curve" smooth="yes"/>
      <point x="103" y="343" type="line" smooth="yes"/>
      <point x="119" y="433"/>
      <point x="187" y="463"/>
      <point x="249" y="459" type="curve" smooth="yes"/>
      <point x="293" y="455"/>
      <point x="346" y="435"/>
    </contour>
  </outline>
</glyph>
<glyph name="r" format="2">
  <advance width="356"/>
  <unicode hex="0072"/>
  <outline>
    <contour>
      <point x="347" y="459" type="curve"/>
      <point x="360" y="507" type="line"/>
      <point x="360" y="507"/>
      <point x="340" y="512"/>
      <point x="315" y="510" type="curve" smooth="yes"/>
      <point x="243" y="507"/>
      <point x="191" y="488"/>
      <point x="138" y="466" type="curve"/>
      <point x="143" y="499" type="line"/>
      <point x="87" y="499" type="line"/>
      <point x="0" y="0" type="line"/>
      <point x="56" y="0" type="line"/>
      <point x="127" y="408" type="line"/>
      <point x="169" y="433"/>
      <point x="248" y="457"/>
      <point x="306" y="460" type="curve" smooth="yes"/>
      <point x="327" y="461"/>
      <point x="347" y="459"/>
    </contour>
  </outline>
</glyph>
<glyph name="s" format="2">
  <advance width="405"/>
  <unicode hex="0073"/>
  <outline>
    <contour>
      <point x="357" y="438" type="curve"/>
      <point x="386" y="475" type="line"/>
      <point x="340" y="504"/>
      <point x="302" y="512"/>
      <point x="260" y="510" type="curve" smooth="yes"/>
      <point x="221" y="510"/>
      <point x="184" y="501"/>
      <point x="152" y="482" type="curve" smooth="yes"/>
      <point x="109" y="457"/>
      <point x="79" y="416"/>
      <point x="73" y="362" type="curve"/>
      <point x="71" y="323"/>
      <point x="89" y="298"/>
      <point x="113" y="277" type="curve"/>
      <point x="140" y="257"/>
      <point x="174" y="244"/>
      <point x="207" y="231" type="curve" smooth="yes"/>
      <point x="239" y="218"/>
      <point x="270" y="205"/>
      <point x="290" y="188" type="curve" smooth="yes"/>
      <point x="309" y="172"/>
      <point x="319" y="151"/>
      <point x="313" y="122" type="curve" smooth="yes"/>
      <point x="308" y="95"/>
      <point x="288" y="73"/>
      <point x="264" y="57" type="curve" smooth="yes"/>
      <point x="239" y="42"/>
      <point x="208" y="34"/>
      <point x="176" y="34" type="curve" smooth="yes"/>
      <point x="146" y="34"/>
      <point x="122" y="40"/>
      <point x="100" y="48" type="curve"/>
      <point x="70" y="61"/>
      <point x="49" y="80"/>
      <point x="32" y="100" type="curve"/>
      <point x="-5" y="68" type="line"/>
      <point x="15" y="38"/>
      <point x="42" y="18"/>
      <point x="70" y="4" type="curve" smooth="yes"/>
      <point x="101" y="-11"/>
      <point x="135" y="-17"/>
      <point x="167" y="-18" type="curve" smooth="yes"/>
      <point x="207" y="-18"/>
      <point x="246" y="-9"/>
      <point x="279" y="10" type="curve" smooth="yes"/>
      <point x="325" y="36"/>
      <point x="360" y="79"/>
      <point x="367" y="133" type="curve" smooth="yes"/>
      <point x="370" y="170"/>
      <point x="359" y="197"/>
      <point x="340" y="218" type="curve" smooth="yes"/>
      <point x="315" y="244"/>
      <point x="276" y="261"/>
      <point x="239" y="276" type="curve" smooth="yes"/>
      <point x="210" y="287"/>
      <point x="182" y="298"/>
      <point x="160" y="311" type="curve" smooth="yes"/>
      <point x="140" y="324"/>
      <point x="126" y="341"/>
      <point x="126" y="364" type="curve" smooth="yes"/>
      <point x="126" y="398"/>
      <point x="145" y="424"/>
      <point x="172" y="440" type="curve" smooth="yes"/>
      <point x="196" y="454"/>
      <point x="224" y="462"/>
      <point x="254" y="463" type="curve" smooth="yes"/>
      <point x="290" y="464"/>
      <point x="329" y="455"/>
    </contour>
  </outline>
</glyph>
<glyph name="t" format="2">
  <advance width="252"/>
  <unicode hex="0074"/>
  <outline>
    <contour>
      <point x="72" y="132" type="curve" smooth="yes"/>
      <point x="127" y="447" type="line"/>
      <point x="223" y="447" type="line"/>
      <point x="256" y="499" type="line"/>
      <point x="136" y="499" type="line"/>
      <point x="172" y="698" type="line"/>
      <point x="116" y="698" type="line"/>
      <point x="16" y="132" type="line" smooth="yes"/>
      <point x="2" y="53"/>
      <point x="25" y="8"/>
      <point x="95" y="-13" type="curve"/>
      <point x="120" y="30" type="line"/>
      <point x="78" y="45"/>
      <point x="62" y="79"/>
    </contour>
  </outline>
</glyph>
<glyph name="u" format="2">
  <advance width="457"/>
  <unicode hex="0075"/>
  <outline>
    <contour>
      <point x="313" y="48" type="curve"/>
      <point x="305" y="0" type="line"/>
      <point x="361" y="0" type="line"/>
      <point x="448" y="499" type="line"/>
      <point x="392" y="499" type="line"/>
      <point x="335" y="172" type="line" smooth="yes"/>
      <point x="322" y="101"/>
      <point x="256" y="44"/>
      <point x="185" y="44" type="curve" smooth="yes"/>
      <point x="121" y="44"/>
      <point x="59" y="68"/>
      <point x="76" y="159" type="curve" smooth="yes"/>
      <point x="135" y="499" type="line"/>
      <point x="79" y="499" type="line"/>
      <point x="19" y="156" type="line" smooth="yes"/>
      <point x="-1" y="43"/>
      <point x="53" y="-10"/>
      <point x="164" y="-10" type="curve" smooth="yes"/>
      <point x="214" y="-10"/>
      <point x="272" y="9"/>
    </contour>
  </outline>
</glyph>
<glyph name="w" format="2">
  <advance width="679"/>
  <unicode hex="0077"/>
  <outline>
    <contour>
      <point x="380" y="498" type="line"/>
      <point x="323" y="498" type="line"/>
      <point x="134" y="57" type="line"/>
      <point x="77" y="498" type="line"/>
      <point x="19" y="498" type="line"/>
      <point x="84" y="0" type="line"/>
      <point x="161" y="0" type="line"/>
      <point x="334" y="404" type="line"/>
      <point x="363" y="0" type="line"/>
      <point x="440" y="0" type="line"/>
      <point x="682" y="498" type="line"/>
      <point x="623" y="498" type="line"/>
      <point x="413" y="57" type="line"/>
    </contour>
  </outline>
</glyph>
<glyph name="x" format="2">
  <advance width="458"/>
  <unicode hex="0078"/>
  <outline>
    <contour>
      <point x="235" y="299" type="line"/>
      <point x="145" y="498" type="line"/>
      <point x="81" y="498" type="line"/>
      <point x="193" y="248" type="line"/>
      <point x="-6" y="0" type="line"/>
      <point x="60" y="0" type="line"/>
      <point x="217" y="197" type="line"/>
      <point x="305" y="0" type="line"/>
      <point x="371" y="0" type="line"/>
      <point x="258" y="248" type="line"/>
      <point x="458" y="498" type="line"/>
      <point x="396" y="498" type="line"/>
    </contour>
  </outline>
</glyph>
<glyph name="y" format="2">
  <advance width="477"/>
  <unicode hex="0079"/>
  <outline>
    <contour>
      <point x="475" y="468" type="curve"/>
      <point x="462" y="510" type="line"/>
      <point x="412" y="494"/>
      <point x="383" y="453"/>
      <point x="375" y="408" type="curve" smooth="yes"/>
      <point x="334" y="173" type="line" smooth="yes"/>
      <point x="321" y="102"/>
      <point x="255" y="44"/>
      <point x="184" y="44" type="curve" smooth="yes"/>
      <point x="122" y="44"/>
      <point x="59" y="69"/>
      <point x="75" y="161" type="curve" smooth="yes"/>
      <point x="134" y="499" type="line"/>
      <point x="78" y="499" type="line"/>
      <point x="18" y="157" type="line" smooth="yes"/>
      <point x="-2" y="44"/>
      <point x="53" y="-9"/>
      <point x="163" y="-9" type="curve" smooth="yes"/>
      <point x="213" y="-9"/>
      <point x="272" y="10"/>
      <point x="312" y="50" type="curve"/>
      <point x="293" y="-61" type="line" smooth="yes"/>
      <point x="288" y="-89"/>
      <point x="278" y="-112"/>
      <point x="262" y="-130" type="curve" smooth="yes"/>
      <point x="248" y="-145"/>
      <point x="231" y="-157"/>
      <point x="209" y="-165" type="curve"/>
      <point x="218" y="-208" type="line"/>
      <point x="252" y="-197"/>
      <point x="278" y="-184"/>
      <point x="299" y="-165" type="curve" smooth="yes"/>
      <point x="326" y="-140"/>
      <point x="341" y="-107"/>
      <point x="349" y="-62" type="curve" smooth="yes"/>
      <point x="431" y="407" type="line" smooth="yes"/>
      <point x="438" y="448"/>
      <point x="455" y="460"/>
    </contour>
  </outline>
</glyph>
<glyph name="z" format="2">
  <advance width="436"/>
  <unicode hex="007A"/>
  <outline>
    <contour>
      <point x="428" y="499" type="line"/>
      <point x="91" y="499" type="line"/>
      <point x="83" y="449" type="line"/>
      <point x="348" y="449" type="line"/>
      <point x="3" y="50" type="line"/>
      <point x="-5" y="0" type="line"/>
      <point x="362" y="0" type="line"/>
      <point x="370" y="51" type="line"/>
      <point x="72" y="51" type="line"/>
      <point x="420" y="450" type="line"/>
    </contour>
  </outline>
</glyph>
<glyph name="braceleft" format="2">
  <advance width="315"/>
  <unicode hex="007B"/>
  <outline>
    <contour>
      <point x="184" y="515" type="curve" smooth="yes"/>
      <point x="204" y="628" type="line" smooth="yes"/>
      <point x="220" y="717"/>
      <point x="272" y="757"/>
      <point x="305" y="772" type="curve"/>
      <point x="291" y="820" type="line"/>
      <point x="287" y="818"/>
      <point x="176" y="789"/>
      <point x="147" y="628" type="curve" smooth="yes"/>
      <point x="127" y="515" type="line" smooth="yes"/>
      <point x="117" y="459"/>
      <point x="102" y="408"/>
      <point x="31" y="360" type="curve" smooth="yes"/>
      <point x="19" y="352" type="line"/>
      <point x="28" y="344" type="line" smooth="yes"/>
      <point x="83" y="295"/>
      <point x="80" y="245"/>
      <point x="70" y="189" type="curve" smooth="yes"/>
      <point x="50" y="76" type="line" smooth="yes"/>
      <point x="22" y="-85"/>
      <point x="120" y="-114"/>
      <point x="126" y="-117" type="curve"/>
      <point x="158" y="-67" type="line"/>
      <point x="129" y="-52"/>
      <point x="91" y="-13"/>
      <point x="107" y="76" type="curve" smooth="yes"/>
      <point x="127" y="189" type="line" smooth="yes"/>
      <point x="137" y="245"/>
      <point x="141" y="300"/>
      <point x="89" y="352" type="curve"/>
      <point x="160" y="404"/>
      <point x="174" y="459"/>
    </contour>
  </outline>
</glyph>
<glyph name="braceright" format="2">
  <advance width="315"/>
  <unicode hex="007D"/>
  <outline>
    <contour>
      <point x="191" y="820" type="curve"/>
      <point x="161" y="772" type="line"/>
      <point x="187" y="757"/>
      <point x="226" y="717"/>
      <point x="210" y="628" type="curve" smooth="yes"/>
      <point x="190" y="515" type="line" smooth="yes"/>
      <point x="180" y="459"/>
      <point x="176" y="404"/>
      <point x="228" y="352" type="curve"/>
      <point x="157" y="300"/>
      <point x="143" y="245"/>
      <point x="133" y="189" type="curve" smooth="yes"/>
      <point x="113" y="76" type="line" smooth="yes"/>
      <point x="97" y="-13"/>
      <point x="44" y="-52"/>
      <point x="12" y="-67" type="curve"/>
      <point x="25" y="-117" type="line"/>
      <point x="31" y="-114"/>
      <point x="141" y="-85"/>
      <point x="169" y="76" type="curve" smooth="yes"/>
      <point x="189" y="189" type="line" smooth="yes"/>
      <point x="199" y="245"/>
      <point x="214" y="295"/>
      <point x="286" y="344" type="curve" smooth="yes"/>
      <point x="299" y="352" type="line"/>
      <point x="289" y="360" type="line" smooth="yes"/>
      <point x="233" y="408"/>
      <point x="236" y="459"/>
      <point x="246" y="515" type="curve" smooth="yes"/>
      <point x="266" y="628" type="line" smooth="yes"/>
      <point x="295" y="789"/>
      <point x="196" y="818"/>
    </contour>
  </outline>
</glyph>
<glyph name="asciitilde" format="2">
  <advance width="266"/>
  <unicode hex="007E"/>
  <outline>
    <contour>
      <point x="287" y="305" type="curve"/>
      <point x="270" y="346" type="line"/>
      <point x="251" y="329"/>
      <point x="229" y="318"/>
      <point x="203" y="317" type="curve" smooth="yes"/>
      <point x="156" y="316"/>
      <point x="119" y="353"/>
      <point x="69" y="353" type="curve" smooth="yes"/>
      <point x="43" y="353"/>
      <point x="14" y="343"/>
      <point x="-20" y="312" type="curve"/>
      <point x="-5" y="271" type="line"/>
      <point x="23" y="293"/>
      <point x="46" y="299"/>
      <point x="67" y="298" type="curve" smooth="yes"/>
      <point x="112" y="296"/>
      <point x="149" y="262"/>
      <point x="196" y="262" type="curve" smooth="yes"/>
      <point x="221" y="261"/>
      <point x="250" y="272"/>
    </contour>
  </outline>
</glyph>
<glyph name="sterling" format="2">
  <advance width="470"/>
  <unicode hex="00A3"/>
  <outline>
    <contour>
      <point x="101" y="53" type="curve" smooth="yes"/>
      <point x="22" y="53" type="line"/>
      <point x="13" y="0" type="line"/>
      <point x="371" y="0" type="line"/>
      <point x="380" y="53" type="line"/>
      <point x="258" y="53" type="line"/>
      <point x="277" y="64"/>
      <point x="292" y="77"/>
      <point x="306" y="94" type="curve" smooth="yes"/>
      <point x="368" y="167"/>
      <point x="371" y="254"/>
      <point x="325" y="324" type="curve" smooth="yes"/>
      <point x="322" y="329"/>
      <point x="318" y="334"/>
      <point x="315" y="339" type="curve"/>
      <point x="430" y="339" type="line"/>
      <point x="440" y="396" type="line"/>
      <point x="274" y="396" type="line"/>
      <point x="257" y="419"/>
      <point x="242" y="441"/>
      <point x="234" y="453" type="curve" smooth="yes"/>
      <point x="199" y="506"/>
      <point x="181" y="559"/>
      <point x="217" y="605" type="curve" smooth="yes"/>
      <point x="240" y="637"/>
      <point x="272" y="651"/>
      <point x="306" y="654" type="curve" smooth="yes"/>
      <point x="348" y="659"/>
      <point x="391" y="645"/>
      <point x="429" y="620" type="curve"/>
      <point x="456" y="669" type="line"/>
      <point x="409" y="697"/>
      <point x="351" y="712"/>
      <point x="297" y="705" type="curve" smooth="yes"/>
      <point x="251" y="700"/>
      <point x="206" y="680"/>
      <point x="173" y="635" type="curve" smooth="yes"/>
      <point x="115" y="555"/>
      <point x="141" y="485"/>
      <point x="186" y="419" type="curve"/>
      <point x="189" y="414"/>
      <point x="195" y="405"/>
      <point x="202" y="396" type="curve"/>
      <point x="82" y="396" type="line"/>
      <point x="72" y="339" type="line"/>
      <point x="243" y="339" type="line"/>
      <point x="255" y="323"/>
      <point x="266" y="307"/>
      <point x="277" y="291" type="curve" smooth="yes"/>
      <point x="317" y="234"/>
      <point x="305" y="168"/>
      <point x="259" y="118" type="curve" smooth="yes"/>
      <point x="210" y="61"/>
      <point x="148" y="53"/>
    </contour>
  </outline>
</glyph>
<glyph name="dieresis" format="2">
  <advance width="266"/>
  <unicode hex="00A8"/>
  <outline>
    <contour>
      <point x="60" y="740" type="curve" smooth="yes"/>
      <point x="42" y="740"/>
      <point x="24" y="725"/>
      <point x="21" y="706" type="curve" smooth="yes"/>
      <point x="18" y="687"/>
      <point x="30" y="673"/>
      <point x="48" y="673" type="curve" smooth="yes"/>
      <point x="66" y="673"/>
      <point x="85" y="687"/>
      <point x="88" y="706" type="curve" smooth="yes"/>
      <point x="91" y="725"/>
      <point x="78" y="740"/>
    </contour>
    <contour>
      <point x="218" y="740" type="curve" smooth="yes"/>
      <point x="199" y="740"/>
      <point x="182" y="725"/>
      <point x="179" y="706" type="curve" smooth="yes"/>
      <point x="176" y="687"/>
      <point x="187" y="673"/>
      <point x="206" y="673" type="curve" smooth="yes"/>
      <point x="225" y="673"/>
      <point x="242" y="687"/>
      <point x="245" y="706" type="curve" smooth="yes"/>
      <point x="248" y="725"/>
      <point x="237" y="740"/>
    </contour>
  </outline>
</glyph>
<glyph name="sfthyphen" format="2">
  <advance width="483"/>
  <unicode hex="00AD"/>
  <outline>
    <contour>
      <point x="433" y="413" type="line"/>
      <point x="114" y="413" type="line"/>
      <point x="104" y="355" type="line"/>
      <point x="423" y="355" type="line"/>
    </contour>
  </outline>
</glyph>
<glyph name="overscore" format="2">
  <advance width="266"/>
  <unicode hex="00AF"/>
  <outline>
    <contour>
      <point x="248" y="675" type="line"/>
      <point x="28" y="675" type="line"/>
      <point x="17" y="617" type="line"/>
      <point x="237" y="617" type="line"/>
    </contour>
  </outline>
</glyph>
<glyph name="plusminus" format="2">
  <advance width="391"/>
  <unicode hex="00B1"/>
  <outline>
    <contour>
      <point x="49" y="377" type="line"/>
      <point x="182" y="377" type="line"/>
      <point x="159" y="246" type="line"/>
      <point x="25" y="246" type="line"/>
      <point x="15" y="189" type="line"/>
      <point x="334" y="189" type="line"/>
      <point x="344" y="246" type="line"/>
      <point x="214" y="246" type="line"/>
      <point x="237" y="377" type="line"/>
      <point x="368" y="377" type="line"/>
      <point x="377" y="431" type="line"/>
      <point x="246" y="431" type="line"/>
      <point x="270" y="563" type="line"/>
      <point x="215" y="563" type="line"/>
      <point x="191" y="431" type="line"/>
      <point x="58" y="431" type="line"/>
    </contour>
  </outline>
</glyph>
<glyph name="acute" format="2">
  <advance width="266"/>
  <unicode hex="00B4"/>
  <outline>
    <contour>
      <point x="207" y="682" type="line"/>
      <point x="222" y="696"/>
      <point x="224" y="719"/>
      <point x="208" y="729" type="curve" smooth="yes"/>
      <point x="193" y="739"/>
      <point x="171" y="728"/>
      <point x="162" y="710" type="curve" smooth="yes"/>
      <point x="105" y="603" type="line"/>
      <point x="140" y="603" type="line"/>
    </contour>
  </outline>
</glyph>
<glyph name="mu" format="2">
  <advance width="491"/>
  <unicode hex="00B5"/>
  <outline>
    <contour>
      <point x="407" y="94" type="curve" smooth="yes"/>
      <point x="480" y="508" type="line"/>
      <point x="421" y="496" type="line"/>
      <point x="360" y="153" type="line" smooth="yes"/>
      <point x="347" y="78"/>
      <point x="307" y="43"/>
      <point x="239" y="43" type="curve" smooth="yes"/>
      <point x="151" y="43"/>
      <point x="109" y="89"/>
      <point x="97" y="105" type="curve"/>
      <point x="166" y="499" type="line"/>
      <point x="109" y="499" type="line"/>
      <point x="-13" y="-200" type="line"/>
      <point x="42" y="-209" type="line"/>
      <point x="86" y="44" type="line"/>
      <point x="86" y="44"/>
      <point x="130" y="-12"/>
      <point x="226" y="-12" type="curve" smooth="yes"/>
      <point x="276" y="-12"/>
      <point x="323" y="9"/>
      <point x="350" y="44" type="curve"/>
      <point x="365" y="2"/>
      <point x="389" y="-6"/>
      <point x="389" y="-6" type="curve"/>
      <point x="422" y="26" type="line"/>
      <point x="422" y="26"/>
      <point x="399" y="51"/>
    </contour>
  </outline>
</glyph>
<glyph name="paragraph" format="2">
  <advance width="642"/>
  <unicode hex="00B6"/>
  <outline>
    <contour>
      <point x="199" y="246" type="curve" smooth="yes"/>
      <point x="379" y="246" type="line"/>
      <point x="336" y="1" type="line"/>
      <point x="391" y="1" type="line"/>
      <point x="505" y="650" type="line"/>
      <point x="564" y="649" type="line"/>
      <point x="450" y="1" type="line"/>
      <point x="506" y="1" type="line"/>
      <point x="629" y="700" type="line"/>
      <point x="279" y="700" type="line" smooth="yes"/>
      <point x="152" y="700"/>
      <point x="72" y="645"/>
      <point x="42" y="474" type="curve" smooth="yes"/>
      <point x="13" y="308"/>
      <point x="68" y="246"/>
    </contour>
    <contour>
      <point x="266" y="647" type="curve" smooth="yes"/>
      <point x="450" y="647" type="line"/>
      <point x="388" y="300" type="line"/>
      <point x="204" y="300" type="line" smooth="yes"/>
      <point x="128" y="300"/>
      <point x="71" y="322"/>
      <point x="98" y="474" type="curve" smooth="yes"/>
      <point x="123" y="615"/>
      <point x="187" y="647"/>
    </contour>
  </outline>
</glyph>
<glyph name="cedilla" format="2">
  <advance width="266"/>
  <unicode hex="00B8"/>
  <outline>
    <contour>
      <point x="166" y="0" type="line"/>
      <point x="116" y="0" type="line"/>
      <point x="64" y="-69" type="line"/>
      <point x="71" y="-98" type="line"/>
      <point x="99" y="-96"/>
      <point x="124" y="-92"/>
      <point x="146" y="-91" type="curve" smooth="yes"/>
      <point x="180" y="-91"/>
      <point x="203" y="-98"/>
      <point x="197" y="-133" type="curve" smooth="yes"/>
      <point x="190" y="-173"/>
      <point x="156" y="-185"/>
      <point x="117" y="-184" type="curve" smooth="yes"/>
      <point x="90" y="-184"/>
      <point x="63" y="-178"/>
      <point x="37" y="-173" type="curve"/>
      <point x="24" y="-202"/>
      <point x="28" y="-193"/>
      <point x="17" y="-221" type="curve"/>
      <point x="20" y="-221"/>
      <point x="67" y="-233"/>
      <point x="114" y="-233" type="curve" smooth="yes"/>
      <point x="193" y="-233"/>
      <point x="239" y="-184"/>
      <point x="247" y="-135" type="curve" smooth="yes"/>
      <point x="256" y="-85"/>
      <point x="225" y="-35"/>
      <point x="158" y="-42" type="curve" smooth="yes"/>
      <point x="149" y="-43"/>
      <point x="140" y="-43"/>
      <point x="132" y="-44" type="curve"/>
    </contour>
  </outline>
</glyph>
<glyph name="Agrave" format="2">
  <advance width="520"/>
  <unicode hex="00C0"/>
  <outline>
    <contour>
      <point x="492" y="0" type="line"/>
      <point x="388" y="698" type="line"/>
      <point x="335" y="698" type="line"/>
      <point x="-12" y="0" type="line"/>
      <point x="48" y="0" type="line"/>
      <point x="169" y="244" type="line"/>
      <point x="396" y="244" type="line"/>
      <point x="433" y="0" type="line"/>
    </contour>
    <contour>
      <point x="193" y="299" type="line"/>
      <point x="345" y="612" type="line"/>
      <point x="390" y="299" type="line"/>
    </contour>
    <contour>
      <point x="311" y="820" type="curve"/>
      <point x="350" y="740" type="line"/>
      <point x="385" y="740" type="line"/>
      <point x="366" y="848" type="line" smooth="yes"/>
      <point x="363" y="866"/>
      <point x="345" y="877"/>
      <point x="325" y="867" type="curve" smooth="yes"/>
      <point x="306" y="858"/>
      <point x="300" y="834"/>
    </contour>
  </outline>
</glyph>
<glyph name="Aacute" format="2">
  <advance width="520"/>
  <unicode hex="00C1"/>
  <outline>
    <contour>
      <point x="492" y="0" type="line"/>
      <point x="388" y="698" type="line"/>
      <point x="335" y="698" type="line"/>
      <point x="-12" y="0" type="line"/>
      <point x="48" y="0" type="line"/>
      <point x="169" y="244" type="line"/>
      <point x="396" y="244" type="line"/>
      <point x="433" y="0" type="line"/>
    </contour>
    <contour>
      <point x="193" y="299" type="line"/>
      <point x="345" y="612" type="line"/>
      <point x="390" y="299" type="line"/>
    </contour>
    <contour>
      <point x="412" y="857" type="curve"/>
      <point x="350" y="741" type="line"/>
      <point x="388" y="741" type="line"/>
      <point x="460" y="826" type="line"/>
      <point x="477" y="843"/>
      <point x="479" y="867"/>
      <point x="463" y="878" type="curve"/>
      <point x="445" y="889"/>
      <point x="421" y="877"/>
    </contour>
  </outline>
</glyph>
<glyph name="Acircumflex" format="2">
  <advance width="531"/>
  <unicode hex="00C2"/>
  <outline>
    <contour>
      <point x="492" y="0" type="line"/>
      <point x="388" y="698" type="line"/>
      <point x="335" y="698" type="line"/>
      <point x="-12" y="0" type="line"/>
      <point x="48" y="0" type="line"/>
      <point x="169" y="244" type="line"/>
      <point x="396" y="244" type="line"/>
      <point x="433" y="0" type="line"/>
    </contour>
    <contour>
      <point x="193" y="299" type="line"/>
      <point x="345" y="612" type="line"/>
      <point x="390" y="299" type="line"/>
    </contour>
    <contour>
      <point x="252" y="780" type="line"/>
      <point x="283" y="741" type="line"/>
      <point x="393" y="831" type="line"/>
      <point x="467" y="743" type="line"/>
      <point x="512" y="781" type="line"/>
      <point x="406" y="906" type="line"/>
    </contour>
  </outline>
</glyph>
<glyph name="Atilde" format="2">
  <advance width="531"/>
  <unicode hex="00C3"/>
  <outline>
    <contour>
      <point x="492" y="0" type="line"/>
      <point x="388" y="698" type="line"/>
      <point x="335" y="698" type="line"/>
      <point x="-12" y="0" type="line"/>
      <point x="48" y="0" type="line"/>
      <point x="169" y="244" type="line"/>
      <point x="396" y="244" type="line"/>
      <point x="433" y="0" type="line"/>
    </contour>
    <contour>
      <point x="193" y="299" type="line"/>
      <point x="345" y="612" type="line"/>
      <point x="390" y="299" type="line"/>
    </contour>
    <contour>
      <point x="511" y="774" type="curve"/>
      <point x="498" y="822" type="line"/>
      <point x="485" y="811"/>
      <point x="462" y="802"/>
      <point x="443" y="802" type="curve" smooth="yes"/>
      <point x="429" y="802"/>
      <point x="386" y="827"/>
      <point x="338" y="827" type="curve" smooth="yes"/>
      <point x="312" y="827"/>
      <point x="282" y="820"/>
      <point x="255" y="795" type="curve"/>
      <point x="270" y="749" type="line"/>
      <point x="286" y="760"/>
      <point x="298" y="768"/>
      <point x="318" y="769" type="curve" smooth="yes"/>
      <point x="349" y="771"/>
      <point x="389" y="745"/>
      <point x="434" y="745" type="curve" smooth="yes"/>
      <point x="458" y="745"/>
      <point x="484" y="752"/>
    </contour>
  </outline>
</glyph>
<glyph name="Adieresis" format="2">
  <advance width="525"/>
  <unicode hex="00C4"/>
  <outline>
    <contour>
      <point x="492" y="0" type="line"/>
      <point x="388" y="698" type="line"/>
      <point x="335" y="698" type="line"/>
      <point x="-12" y="0" type="line"/>
      <point x="48" y="0" type="line"/>
      <point x="169" y="244" type="line"/>
      <point x="396" y="244" type="line"/>
      <point x="433" y="0" type="line"/>
    </contour>
    <contour>
      <point x="193" y="299" type="line"/>
      <point x="345" y="612" type="line"/>
      <point x="390" y="299" type="line"/>
    </contour>
    <contour>
      <point x="471" y="834" type="curve" smooth="yes"/>
      <point x="452" y="834"/>
      <point x="435" y="818"/>
      <point x="432" y="801" type="curve" smooth="yes"/>
      <point x="428" y="782"/>
      <point x="440" y="767"/>
      <point x="459" y="767" type="curve" smooth="yes"/>
      <point x="478" y="767"/>
      <point x="494" y="782"/>
      <point x="498" y="801" type="curve" smooth="yes"/>
      <point x="501" y="818"/>
      <point x="490" y="834"/>
    </contour>
    <contour>
      <point x="341" y="801" type="curve" smooth="yes"/>
      <point x="344" y="818"/>
      <point x="331" y="834"/>
      <point x="314" y="834" type="curve" smooth="yes"/>
      <point x="295" y="834"/>
      <point x="277" y="818"/>
      <point x="274" y="801" type="curve" smooth="yes"/>
      <point x="270" y="782"/>
      <point x="283" y="767"/>
      <point x="302" y="767" type="curve" smooth="yes"/>
      <point x="319" y="767"/>
      <point x="337" y="782"/>
    </contour>
  </outline>
</glyph>
<glyph name="AE" format="2">
  <advance width="796"/>
  <unicode hex="00C6"/>
  <outline>
    <contour>
      <point x="351" y="0" type="line"/>
      <point x="684" y="0" type="line"/>
      <point x="692" y="50" type="line"/>
      <point x="416" y="50" type="line"/>
      <point x="470" y="355" type="line"/>
      <point x="642" y="355" type="line"/>
      <point x="671" y="413" type="line"/>
      <point x="480" y="413" type="line"/>
      <point x="521" y="645" type="line"/>
      <point x="800" y="645" type="line"/>
      <point x="810" y="698" type="line"/>
      <point x="382" y="698" type="line"/>
      <point x="-12" y="0" type="line"/>
      <point x="47" y="0" type="line"/>
      <point x="183" y="243" type="line"/>
      <point x="393" y="243" type="line"/>
    </contour>
    <contour>
      <point x="214" y="299" type="line"/>
      <point x="410" y="645" type="line"/>
      <point x="464" y="645" type="line"/>
      <point x="403" y="299" type="line"/>
    </contour>
  </outline>
</glyph>
<glyph name="AE" format="1">
  <advance width="796"/>
  <unicode hex="00C6"/>
  <outline>
    <contour>
      <point x="351" y="0" type="line"/>
      <point x="684" y="0" type="line"/>
      <point x="692" y="50" type="line"/>
      <point x="416" y="50" type="line"/>
      <point x="470" y="355" type="line"/>
      <point x="642" y="355" type="line"/>
      <point x="671" y="413" type="line"/>
      <point x="480" y="413" type="line"/>
      <point x="521" y="645" type="line"/>
      <point x="800" y="645" type="line"/>
      <point x="810" y="698" type="line"/>
      <point x="382" y="698" type="line"/>
      <point x="-12" y="0" type="line"/>
      <point x="47" y="0" type="line"/>
      <point x="183" y="243" type="line"/>
      <point x="393" y="243" type="line"/>
    </contour>
    <contour>
      <point x="214" y="299" type="line"/>
      <point x="410" y="645" type="line"/>
      <point x="464" y="645" type="line"/>
      <point x="403" y="299" type="line"/>
    </contour>
  </outline>
</glyph>
<glyph name="Ccedilla" format="2">
  <advance width="435"/>
  <unicode hex="00C7"/>
  <outline>
    <contour>
      <point x="416" y="637" type="curve"/>
      <point x="440" y="675" type="line"/>
      <point x="400" y="697"/>
      <point x="354" y="708"/>
      <point x="303" y="708" type="curve" smooth="yes"/>
      <point x="262" y="708"/>
      <point x="225" y="700"/>
      <point x="192" y="683" type="curve" smooth="yes"/>
      <point x="128" y="647"/>
      <point x="89" y="590"/>
      <point x="73" y="503" type="curve" smooth="yes"/>
      <point x="17" y="183" type="line" smooth="yes"/>
      <point x="2" y="99"/>
      <point x="25" y="42"/>
      <point x="69" y="15" type="curve" smooth="yes"/>
      <point x="113" y="-10"/>
      <point x="162" y="-10"/>
      <point x="183" y="-10" type="curve" smooth="yes"/>
      <point x="233" y="-10"/>
      <point x="289" y="1"/>
      <point x="350" y="23" type="curve"/>
      <point x="346" y="69" type="line"/>
      <point x="285" y="50"/>
      <point x="235" y="40"/>
      <point x="196" y="40" type="curve" smooth="yes"/>
      <point x="150" y="40"/>
      <point x="119" y="48"/>
      <point x="99" y="65" type="curve" smooth="yes"/>
      <point x="67" y="90"/>
      <point x="64" y="132"/>
      <point x="73" y="185" type="curve" smooth="yes"/>
      <point x="131" y="512" type="line" smooth="yes"/>
      <point x="141" y="568"/>
      <point x="165" y="607"/>
      <point x="203" y="631" type="curve" smooth="yes"/>
      <point x="231" y="649"/>
      <point x="269" y="658"/>
      <point x="313" y="658" type="curve" smooth="yes"/>
      <point x="347" y="658"/>
      <point x="381" y="651"/>
    </contour>
    <contour>
      <point x="202" y="-48" type="curve"/>
      <point x="193" y="-50"/>
      <point x="183" y="-50"/>
      <point x="174" y="-51" type="curve"/>
      <point x="208" y="-7" type="line"/>
      <point x="158" y="-7" type="line"/>
      <point x="106" y="-75" type="line"/>
      <point x="115" y="-105" type="line"/>
      <point x="142" y="-102"/>
      <point x="168" y="-98"/>
      <point x="190" y="-98" type="curve" smooth="yes"/>
      <point x="224" y="-97"/>
      <point x="247" y="-105"/>
      <point x="241" y="-139" type="curve" smooth="yes"/>
      <point x="234" y="-179"/>
      <point x="200" y="-190"/>
      <point x="160" y="-190" type="curve" smooth="yes"/>
      <point x="134" y="-190"/>
      <point x="105" y="-185"/>
      <point x="80" y="-178" type="curve"/>
      <point x="67" y="-208"/>
      <point x="70" y="-199"/>
      <point x="59" y="-227" type="curve"/>
      <point x="61" y="-228"/>
      <point x="111" y="-240"/>
      <point x="158" y="-240" type="curve" smooth="yes"/>
      <point x="237" y="-240"/>
      <point x="281" y="-190"/>
      <point x="289" y="-142" type="curve" smooth="yes"/>
      <point x="298" y="-91"/>
      <point x="269" y="-41"/>
    </contour>
  </outline>
</glyph>
<glyph name="Egrave" format="2">
  <advance width="443"/>
  <unicode hex="00C8"/>
  <outline>
    <contour>
      <point x="0" y="0" type="line"/>
      <point x="331" y="0" type="line"/>
      <point x="339" y="50" type="line"/>
      <point x="64" y="50" type="line"/>
      <point x="118" y="356" type="line"/>
      <point x="290" y="356" type="line"/>
      <point x="318" y="411" type="line"/>
      <point x="128" y="411" type="line"/>
      <point x="169" y="646" type="line"/>
      <point x="446" y="646" type="line"/>
      <point x="456" y="698" type="line"/>
      <point x="123" y="698" type="line"/>
    </contour>
    <contour>
      <point x="240" y="822" type="curve"/>
      <point x="279" y="743" type="line"/>
      <point x="315" y="743" type="line"/>
      <point x="295" y="849" type="line"/>
      <point x="294" y="868"/>
      <point x="274" y="879"/>
      <point x="255" y="869" type="curve" smooth="yes"/>
      <point x="236" y="859"/>
      <point x="231" y="836"/>
    </contour>
  </outline>
</glyph>
<glyph name="Eacute" format="2">
  <advance width="443"/>
  <unicode hex="00C9"/>
  <outline>
    <contour>
      <point x="0" y="0" type="line"/>
      <point x="331" y="0" type="line"/>
      <point x="339" y="50" type="line"/>
      <point x="64" y="50" type="line"/>
      <point x="118" y="356" type="line"/>
      <point x="290" y="356" type="line"/>
      <point x="318" y="411" type="line"/>
      <point x="128" y="411" type="line"/>
      <point x="169" y="646" type="line"/>
      <point x="446" y="646" type="line"/>
      <point x="456" y="698" type="line"/>
      <point x="123" y="698" type="line"/>
    </contour>
    <contour>
      <point x="339" y="858" type="curve" smooth="yes"/>
      <point x="278" y="743" type="line"/>
      <point x="317" y="743" type="line"/>
      <point x="388" y="828" type="line"/>
      <point x="404" y="844"/>
      <point x="408" y="869"/>
      <point x="390" y="880" type="curve" smooth="yes"/>
      <point x="373" y="890"/>
      <point x="349" y="879"/>
    </contour>
  </outline>
</glyph>
<glyph name="Ecircumflex" format="2">
  <advance width="443"/>
  <unicode hex="00CA"/>
  <outline>
    <contour>
      <point x="0" y="0" type="line"/>
      <point x="331" y="0" type="line"/>
      <point x="339" y="50" type="line"/>
      <point x="64" y="50" type="line"/>
      <point x="118" y="356" type="line"/>
      <point x="290" y="356" type="line"/>
      <point x="318" y="411" type="line"/>
      <point x="128" y="411" type="line"/>
      <point x="169" y="646" type="line"/>
      <point x="446" y="646" type="line"/>
      <point x="456" y="698" type="line"/>
      <point x="123" y="698" type="line"/>
    </contour>
    <contour>
      <point x="173" y="781" type="line"/>
      <point x="207" y="743" type="line"/>
      <point x="314" y="833" type="line"/>
      <point x="388" y="745" type="line"/>
      <point x="434" y="782" type="line"/>
      <point x="328" y="909" type="line"/>
    </contour>
  </outline>
</glyph>
<glyph name="Edieresis" format="2">
  <advance width="443"/>
  <unicode hex="00CB"/>
  <outline>
    <contour>
      <point x="0" y="0" type="line"/>
      <point x="331" y="0" type="line"/>
      <point x="339" y="50" type="line"/>
      <point x="64" y="50" type="line"/>
      <point x="118" y="356" type="line"/>
      <point x="290" y="356" type="line"/>
      <point x="318" y="411" type="line"/>
      <point x="128" y="411" type="line"/>
      <point x="169" y="646" type="line"/>
      <point x="446" y="646" type="line"/>
      <point x="456" y="698" type="line"/>
      <point x="123" y="698" type="line"/>
    </contour>
    <contour>
      <point x="420" y="802" type="curve" smooth="yes"/>
      <point x="423" y="821"/>
      <point x="411" y="835"/>
      <point x="392" y="835" type="curve" smooth="yes"/>
      <point x="375" y="835"/>
      <point x="356" y="821"/>
      <point x="353" y="802" type="curve" smooth="yes"/>
      <point x="350" y="783"/>
      <point x="363" y="768"/>
      <point x="380" y="768" type="curve" smooth="yes"/>
      <point x="399" y="768"/>
      <point x="417" y="783"/>
    </contour>
    <contour>
      <point x="262" y="802" type="curve" smooth="yes"/>
      <point x="265" y="821"/>
      <point x="254" y="835"/>
      <point x="235" y="835" type="curve" smooth="yes"/>
      <point x="216" y="835"/>
      <point x="198" y="821"/>
      <point x="195" y="802" type="curve" smooth="yes"/>
      <point x="192" y="783"/>
      <point x="204" y="768"/>
      <point x="223" y="768" type="curve" smooth="yes"/>
      <point x="242" y="768"/>
      <point x="259" y="783"/>
    </contour>
  </outline>
</glyph>
<glyph name="Igrave" format="2">
  <advance width="233"/>
  <unicode hex="00CC"/>
  <outline>
    <contour>
      <point x="57" y="649" type="line"/>
      <point x="124" y="647" type="line"/>
      <point x="10" y="0" type="line"/>
      <point x="66" y="0" type="line"/>
      <point x="189" y="698" type="line"/>
      <point x="66" y="698" type="line"/>
    </contour>
    <contour>
      <point x="206" y="847" type="curve"/>
      <point x="148" y="740" type="line"/>
      <point x="183" y="740" type="line"/>
      <point x="251" y="820" type="line"/>
      <point x="266" y="834"/>
      <point x="269" y="857"/>
      <point x="252" y="867" type="curve"/>
      <point x="237" y="877"/>
      <point x="214" y="866"/>
    </contour>
  </outline>
</glyph>
<glyph name="Iacute" format="2">
  <advance width="233"/>
  <unicode hex="00CD"/>
  <outline>
    <contour>
      <point x="56" y="649" type="line"/>
      <point x="124" y="647" type="line"/>
      <point x="10" y="0" type="line"/>
      <point x="67" y="0" type="line"/>
      <point x="190" y="698" type="line"/>
      <point x="65" y="698" type="line"/>
    </contour>
    <contour>
      <point x="205" y="847" type="curve" smooth="yes"/>
      <point x="148" y="740" type="line"/>
      <point x="183" y="740" type="line"/>
      <point x="250" y="820" type="line"/>
      <point x="266" y="834"/>
      <point x="268" y="857"/>
      <point x="251" y="867" type="curve"/>
      <point x="236" y="877"/>
      <point x="214" y="866"/>
    </contour>
  </outline>
</glyph>
<glyph name="Icircumflex" format="2">
  <advance width="272"/>
  <unicode hex="00CE"/>
  <outline>
    <contour>
      <point x="59" y="649" type="line"/>
      <point x="126" y="647" type="line"/>
      <point x="12" y="0" type="line"/>
      <point x="68" y="0" type="line"/>
      <point x="191" y="698" type="line"/>
      <point x="68" y="698" type="line"/>
    </contour>
    <contour>
      <point x="47" y="777" type="line"/>
      <point x="79" y="738" type="line"/>
      <point x="187" y="827" type="line"/>
      <point x="261" y="740" type="line"/>
      <point x="307" y="778" type="line"/>
      <point x="201" y="903" type="line"/>
    </contour>
  </outline>
</glyph>
<glyph name="Idieresis" format="2">
  <advance width="233"/>
  <unicode hex="00CF"/>
  <outline>
    <contour>
      <point x="58" y="649" type="line"/>
      <point x="126" y="647" type="line"/>
      <point x="12" y="0" type="line"/>
      <point x="67" y="0" type="line"/>
      <point x="190" y="698" type="line"/>
      <point x="67" y="698" type="line"/>
    </contour>
    <contour>
      <point x="235" y="834" type="curve" smooth="yes"/>
      <point x="216" y="834"/>
      <point x="199" y="818"/>
      <point x="196" y="800" type="curve"/>
      <point x="192" y="782"/>
      <point x="204" y="767"/>
      <point x="223" y="767" type="curve" smooth="yes"/>
      <point x="242" y="767"/>
      <point x="259" y="782"/>
      <point x="263" y="800" type="curve"/>
      <point x="266" y="818"/>
      <point x="254" y="834"/>
    </contour>
    <contour>
      <point x="78" y="834" type="curve" smooth="yes"/>
      <point x="59" y="834"/>
      <point x="41" y="818"/>
      <point x="38" y="800" type="curve"/>
      <point x="34" y="782"/>
      <point x="47" y="767"/>
      <point x="66" y="767" type="curve" smooth="yes"/>
      <point x="83" y="767"/>
      <point x="101" y="782"/>
      <point x="105" y="800" type="curve"/>
      <point x="108" y="818"/>
      <point x="95" y="834"/>
    </contour>
  </outline>
</glyph>
<glyph name="Eth" format="1">
  <advance width="522"/>
  <unicode hex="00D0"/>
  <outline>
    <contour>
      <point x="88" y="356" type="line"/>
      <point x="290" y="356" type="line"/>
      <point x="318" y="411" type="line"/>
      <point x="98" y="411" type="line"/>
    </contour>
    <component base="D"/>
  </outline>
</glyph>
<glyph name="Ntilde" format="2">
  <advance width="611"/>
  <unicode hex="00D1"/>
  <outline>
    <contour>
      <point x="614" y="698" type="line"/>
      <point x="557" y="698" type="line"/>
      <point x="451" y="102" type="line"/>
      <point x="179" y="698" type="line"/>
      <point x="123" y="698" type="line"/>
      <point x="0" y="0" type="line"/>
      <point x="56" y="0" type="line"/>
      <point x="160" y="595" type="line"/>
      <point x="434" y="0" type="line"/>
      <point x="491" y="0" type="line"/>
    </contour>
    <contour>
      <point x="512" y="782" type="curve"/>
      <point x="500" y="829" type="line"/>
      <point x="485" y="818"/>
      <point x="463" y="810"/>
      <point x="444" y="810" type="curve" smooth="yes"/>
      <point x="430" y="810"/>
      <point x="389" y="835"/>
      <point x="341" y="835" type="curve" smooth="yes"/>
      <point x="314" y="835"/>
      <point x="283" y="828"/>
      <point x="256" y="803" type="curve"/>
      <point x="271" y="757" type="line"/>
      <point x="288" y="769"/>
      <point x="300" y="776"/>
      <point x="321" y="777" type="curve" smooth="yes"/>
      <point x="351" y="779"/>
      <point x="390" y="752"/>
      <point x="435" y="752" type="curve" smooth="yes"/>
      <point x="460" y="752"/>
      <point x="486" y="760"/>
    </contour>
  </outline>
</glyph>
<glyph name="Otilde" format="2">
  <advance width="514"/>
  <unicode hex="00D5"/>
  <outline>
    <contour>
      <point x="77" y="506" type="curve" smooth="yes"/>
      <point x="20" y="185" type="line" smooth="yes"/>
      <point x="-3" y="56"/>
      <point x="79" y="-11"/>
      <point x="197" y="-11" type="curve" smooth="yes"/>
      <point x="320" y="-11"/>
      <point x="419" y="64"/>
      <point x="440" y="185" type="curve" smooth="yes"/>
      <point x="497" y="505" type="line" smooth="yes"/>
      <point x="519" y="635"/>
      <point x="457" y="714"/>
      <point x="325" y="714" type="curve" smooth="yes"/>
      <point x="193" y="714"/>
      <point x="101" y="642"/>
    </contour>
    <contour>
      <point x="76" y="186" type="curve" smooth="yes"/>
      <point x="134" y="515" type="line" smooth="yes"/>
      <point x="151" y="612"/>
      <point x="221" y="661"/>
      <point x="313" y="661" type="curve" smooth="yes"/>
      <point x="407" y="661"/>
      <point x="460" y="612"/>
      <point x="443" y="515" type="curve" smooth="yes"/>
      <point x="385" y="186" type="line" smooth="yes"/>
      <point x="368" y="88"/>
      <point x="296" y="42"/>
      <point x="204" y="42" type="curve" smooth="yes"/>
      <point x="116" y="42"/>
      <point x="59" y="90"/>
    </contour>
    <contour>
      <point x="463" y="774" type="curve"/>
      <point x="450" y="822" type="line"/>
      <point x="436" y="811"/>
      <point x="414" y="801"/>
      <point x="394" y="802" type="curve"/>
      <point x="381" y="801"/>
      <point x="339" y="827"/>
      <point x="291" y="827" type="curve" smooth="yes"/>
      <point x="263" y="827"/>
      <point x="235" y="820"/>
      <point x="208" y="795" type="curve"/>
      <point x="222" y="749" type="line"/>
      <point x="239" y="760"/>
      <point x="251" y="768"/>
      <point x="271" y="769" type="curve" smooth="yes"/>
      <point x="301" y="771"/>
      <point x="342" y="745"/>
      <point x="387" y="745" type="curve" smooth="yes"/>
      <point x="411" y="745"/>
      <point x="436" y="751"/>
    </contour>
  </outline>
</glyph>
<glyph name="Odieresis" format="2">
  <advance width="514"/>
  <unicode hex="00D6"/>
  <outline>
    <contour>
      <point x="77" y="506" type="curve" smooth="yes"/>
      <point x="20" y="185" type="line" smooth="yes"/>
      <point x="-3" y="56"/>
      <point x="79" y="-11"/>
      <point x="197" y="-11" type="curve" smooth="yes"/>
      <point x="320" y="-11"/>
      <point x="419" y="64"/>
      <point x="440" y="185" type="curve" smooth="yes"/>
      <point x="497" y="505" type="line" smooth="yes"/>
      <point x="519" y="635"/>
      <point x="457" y="714"/>
      <point x="325" y="714" type="curve" smooth="yes"/>
      <point x="193" y="714"/>
      <point x="101" y="642"/>
    </contour>
    <contour>
      <point x="76" y="186" type="curve" smooth="yes"/>
      <point x="134" y="515" type="line" smooth="yes"/>
      <point x="151" y="612"/>
      <point x="221" y="661"/>
      <point x="313" y="661" type="curve" smooth="yes"/>
      <point x="407" y="661"/>
      <point x="460" y="612"/>
      <point x="443" y="515" type="curve" smooth="yes"/>
      <point x="385" y="186" type="line" smooth="yes"/>
      <point x="368" y="88"/>
      <point x="296" y="42"/>
      <point x="204" y="42" type="curve" smooth="yes"/>
      <point x="116" y="42"/>
      <point x="59" y="90"/>
    </contour>
    <contour>
      <point x="425" y="844" type="curve" smooth="yes"/>
      <point x="406" y="844"/>
      <point x="387" y="828"/>
      <point x="384" y="810" type="curve" smooth="yes"/>
      <point x="381" y="791"/>
      <point x="395" y="777"/>
      <point x="414" y="777" type="curve" smooth="yes"/>
      <point x="431" y="777"/>
      <point x="449" y="791"/>
      <point x="452" y="810" type="curve" smooth="yes"/>
      <point x="455" y="828"/>
      <point x="442" y="844"/>
    </contour>
    <contour>
      <point x="266" y="844" type="curve" smooth="yes"/>
      <point x="248" y="844"/>
      <point x="230" y="828"/>
      <point x="227" y="810" type="curve" smooth="yes"/>
      <point x="224" y="791"/>
      <point x="237" y="777"/>
      <point x="255" y="777" type="curve" smooth="yes"/>
      <point x="274" y="777"/>
      <point x="291" y="791"/>
      <point x="294" y="810" type="curve" smooth="yes"/>
      <point x="297" y="828"/>
      <point x="285" y="844"/>
    </contour>
  </outline>
</glyph>
<glyph name="multiply" format="1">
  <advance width="358"/>
  <unicode hex="00D7"/>
  <outline>
    <contour>
      <point x="187" y="374" type="line"/>
      <point x="107" y="495" type="line"/>
      <point x="61" y="461" type="line"/>
      <point x="143" y="332" type="line"/>
      <point x="16" y="205" type="line"/>
      <point x="51" y="167" type="line"/>
      <point x="172" y="289" type="line"/>
      <point x="251" y="167" type="line"/>
      <point x="299" y="205" type="line"/>
      <point x="215" y="332" type="line"/>
      <point x="344" y="461" type="line"/>
      <point x="309" y="495" type="line"/>
    </contour>
  </outline>
</glyph>
<glyph name="Oslash" format="1">
  <advance width="544"/>
  <unicode hex="00D8"/>
  <outline>
    <contour>
      <point x="21" y="-113" type="line"/>
      <point x="82" y="-113" type="line"/>
      <point x="564" y="815" type="line"/>
      <point x="508" y="815" type="line"/>
    </contour>
    <component base="O"/>
  </outline>
</glyph>
<glyph name="Oslash" format="2">
  <advance width="544"/>
  <unicode hex="00D8"/>
  <outline>
    <contour>
      <point x="78" y="506" type="curve" smooth="yes"/>
      <point x="21" y="185" type="line" smooth="yes"/>
      <point x="-2" y="56"/>
      <point x="80" y="-11"/>
      <point x="198" y="-11" type="curve" smooth="yes"/>
      <point x="321" y="-11"/>
      <point x="420" y="64"/>
      <point x="441" y="185" type="curve" smooth="yes"/>
      <point x="498" y="505" type="line" smooth="yes"/>
      <point x="520" y="635"/>
      <point x="458" y="714"/>
      <point x="326" y="714" type="curve" smooth="yes"/>
      <point x="194" y="714"/>
      <point x="102" y="642"/>
    </contour>
    <contour>
      <point x="77" y="186" type="curve" smooth="yes"/>
      <point x="135" y="515" type="line" smooth="yes"/>
      <point x="152" y="612"/>
      <point x="222" y="661"/>
      <point x="314" y="661" type="curve" smooth="yes"/>
      <point x="408" y="661"/>
      <point x="461" y="612"/>
      <point x="444" y="515" type="curve" smooth="yes"/>
      <point x="386" y="186" type="line" smooth="yes"/>
      <point x="369" y="88"/>
      <point x="297" y="42"/>
      <point x="205" y="42" type="curve" smooth="yes"/>
      <point x="117" y="42"/>
      <point x="60" y="90"/>
    </contour>
    <contour>
      <point x="21" y="-113" type="line"/>
      <point x="82" y="-113" type="line"/>
      <point x="564" y="815" type="line"/>
      <point x="508" y="815" type="line"/>
    </contour>
  </outline>
</glyph>
<glyph name="Udieresis" format="2">
  <advance width="521"/>
  <unicode hex="00DC"/>
  <outline>
    <contour>
      <point x="435" y="185" type="curve" smooth="yes"/>
      <point x="526" y="698" type="line"/>
      <point x="471" y="698" type="line"/>
      <point x="380" y="186" type="line" smooth="yes"/>
      <point x="372" y="140"/>
      <point x="351" y="106"/>
      <point x="323" y="81" type="curve" smooth="yes"/>
      <point x="291" y="54"/>
      <point x="249" y="42"/>
      <point x="201" y="42" type="curve" smooth="yes"/>
      <point x="159" y="42"/>
      <point x="123" y="53"/>
      <point x="101" y="74" type="curve" smooth="yes"/>
      <point x="74" y="98"/>
      <point x="63" y="135"/>
      <point x="72" y="186" type="curve" smooth="yes"/>
      <point x="163" y="698" type="line"/>
      <point x="108" y="698" type="line"/>
      <point x="17" y="185" type="line" smooth="yes"/>
      <point x="5" y="118"/>
      <point x="16" y="68"/>
      <point x="52" y="36" type="curve" smooth="yes"/>
      <point x="88" y="4"/>
      <point x="135" y="-11"/>
      <point x="193" y="-11" type="curve" smooth="yes"/>
      <point x="249" y="-11"/>
      <point x="300" y="4"/>
      <point x="347" y="36" type="curve" smooth="yes"/>
      <point x="393" y="68"/>
      <point x="423" y="118"/>
    </contour>
    <contour>
      <point x="447" y="803" type="curve" smooth="yes"/>
      <point x="450" y="822"/>
      <point x="437" y="836"/>
      <point x="420" y="836" type="curve" smooth="yes"/>
      <point x="401" y="836"/>
      <point x="383" y="822"/>
      <point x="380" y="803" type="curve" smooth="yes"/>
      <point x="377" y="784"/>
      <point x="389" y="769"/>
      <point x="408" y="769" type="curve" smooth="yes"/>
      <point x="425" y="769"/>
      <point x="444" y="784"/>
    </contour>
    <contour>
      <point x="290" y="803" type="curve" smooth="yes"/>
      <point x="293" y="822"/>
      <point x="280" y="836"/>
      <point x="261" y="836" type="curve" smooth="yes"/>
      <point x="243" y="836"/>
      <point x="225" y="822"/>
      <point x="222" y="803" type="curve" smooth="yes"/>
      <point x="219" y="784"/>
      <point x="231" y="769"/>
      <point x="249" y="769" type="curve" smooth="yes"/>
      <point x="268" y="769"/>
      <point x="287" y="784"/>
    </contour>
  </outline>
</glyph>
<glyph name="Thorn" format="2">
  <advance width="444"/>
  <unicode hex="00DE"/>
  <outline>
    <contour>
      <point x="409" y="289" type="curve" smooth="yes"/>
      <point x="435" y="435" type="line" smooth="yes"/>
      <point x="442" y="479"/>
      <point x="439" y="510"/>
      <point x="426" y="542" type="curve" smooth="yes"/>
      <point x="409" y="586"/>
      <point x="373" y="610"/>
      <point x="331" y="620" type="curve" smooth="yes"/>
      <point x="282" y="631"/>
      <point x="218" y="621"/>
      <point x="161" y="599" type="curve"/>
      <point x="179" y="698" type="line"/>
      <point x="123" y="698" type="line"/>
      <point x="0" y="0" type="line"/>
      <point x="56" y="0" type="line"/>
      <point x="76" y="118" type="line"/>
      <point x="136" y="102"/>
      <point x="210" y="100"/>
      <point x="267" y="118" type="curve" smooth="yes"/>
      <point x="340" y="140"/>
      <point x="392" y="191"/>
    </contour>
    <contour>
      <point x="312" y="570" type="curve" smooth="yes"/>
      <point x="342" y="562"/>
      <point x="364" y="542"/>
      <point x="375" y="510" type="curve" smooth="yes"/>
      <point x="382" y="486"/>
      <point x="385" y="457"/>
      <point x="379" y="420" type="curve" smooth="yes"/>
      <point x="358" y="301" type="line" smooth="yes"/>
      <point x="346" y="234"/>
      <point x="320" y="188"/>
      <point x="264" y="168" type="curve" smooth="yes"/>
      <point x="202" y="144"/>
      <point x="107" y="165"/>
      <point x="85" y="169" type="curve"/>
      <point x="152" y="547" type="line"/>
      <point x="202" y="568"/>
      <point x="273" y="581"/>
    </contour>
  </outline>
</glyph>
<glyph name="germandbls" format="2">
  <advance width="454"/>
  <unicode hex="00DF"/>
  <outline>
    <contour>
      <point x="56" y="0" type="curve"/>
      <point x="151" y="539" type="line" smooth="yes"/>
      <point x="163" y="610"/>
      <point x="198" y="645"/>
      <point x="252" y="645" type="curve" smooth="yes"/>
      <point x="295" y="645"/>
      <point x="314" y="610"/>
      <point x="311" y="575" type="curve" smooth="yes"/>
      <point x="308" y="540"/>
      <point x="284" y="506"/>
      <point x="239" y="506" type="curve"/>
      <point x="219" y="480"/>
      <point x="211" y="455"/>
      <point x="209" y="433" type="curve" smooth="yes"/>
      <point x="205" y="380"/>
      <point x="248" y="337"/>
      <point x="289" y="294" type="curve" smooth="yes"/>
      <point x="333" y="249"/>
      <point x="376" y="204"/>
      <point x="366" y="143" type="curve" smooth="yes"/>
      <point x="354" y="76"/>
      <point x="297" y="44"/>
      <point x="241" y="43" type="curve" smooth="yes"/>
      <point x="202" y="43"/>
      <point x="163" y="57"/>
      <point x="138" y="85" type="curve"/>
      <point x="125" y="68"/>
      <point x="113" y="53"/>
      <point x="100" y="36" type="curve"/>
      <point x="134" y="3"/>
      <point x="187" y="-13"/>
      <point x="241" y="-11" type="curve" smooth="yes"/>
      <point x="322" y="-8"/>
      <point x="406" y="40"/>
      <point x="423" y="141" type="curve" smooth="yes"/>
      <point x="437" y="219"/>
      <point x="391" y="275"/>
      <point x="344" y="323" type="curve" smooth="yes"/>
      <point x="305" y="365"/>
      <point x="265" y="400"/>
      <point x="267" y="439" type="curve" smooth="yes"/>
      <point x="268" y="451"/>
      <point x="272" y="463"/>
      <point x="282" y="475" type="curve"/>
      <point x="281" y="475"/>
      <point x="312" y="475"/>
      <point x="312" y="475" type="curve"/>
      <point x="342" y="497"/>
      <point x="360" y="533"/>
      <point x="365" y="570" type="curve" smooth="yes"/>
      <point x="374" y="635"/>
      <point x="340" y="703"/>
      <point x="257" y="698" type="curve"/>
      <point x="170" y="698"/>
      <point x="112" y="638"/>
      <point x="94" y="536" type="curve" smooth="yes"/>
      <point x="63" y="358"/>
      <point x="31" y="178"/>
      <point x="0" y="0" type="curve"/>
      <point x="18" y="0"/>
      <point x="37" y="0"/>
    </contour>
  </outline>
</glyph>
<glyph name="aacute" format="2">
  <advance width="450"/>
  <unicode hex="00E1"/>
  <outline>
    <contour>
      <point x="375" y="349" type="curve"/>
      <point x="333" y="375"/>
      <point x="274" y="402"/>
      <point x="209" y="402" type="curve" smooth="yes"/>
      <point x="128" y="402"/>
      <point x="50" y="363"/>
      <point x="30" y="251" type="curve" smooth="yes"/>
      <point x="25" y="223"/>
      <point x="20" y="196"/>
      <point x="15" y="168" type="curve" smooth="yes"/>
      <point x="-11" y="21"/>
      <point x="81" y="-14"/>
      <point x="210" y="-10" type="curve" smooth="yes"/>
      <point x="260" y="-9"/>
      <point x="370" y="0"/>
      <point x="370" y="0" type="curve"/>
      <point x="386" y="96"/>
      <point x="403" y="191"/>
      <point x="420" y="287" type="curve" smooth="yes"/>
      <point x="436" y="375"/>
      <point x="440" y="444"/>
      <point x="383" y="480" type="curve" smooth="yes"/>
      <point x="345" y="504"/>
      <point x="297" y="507"/>
      <point x="251" y="507" type="curve"/>
      <point x="241" y="464" type="line"/>
      <point x="278" y="464"/>
      <point x="312" y="461"/>
      <point x="335" y="449" type="curve" smooth="yes"/>
      <point x="369" y="432"/>
      <point x="385" y="404"/>
    </contour>
    <contour>
      <point x="367" y="302" type="curve"/>
      <point x="352" y="217"/>
      <point x="337" y="132"/>
      <point x="322" y="46" type="curve"/>
      <point x="322" y="46"/>
      <point x="280" y="42"/>
      <point x="214" y="38" type="curve" smooth="yes"/>
      <point x="80" y="33"/>
      <point x="55" y="80"/>
      <point x="71" y="175" type="curve" smooth="yes"/>
      <point x="75" y="195"/>
      <point x="80" y="226"/>
      <point x="84" y="249" type="curve" smooth="yes"/>
      <point x="100" y="339"/>
      <point x="160" y="354"/>
      <point x="196" y="354" type="curve" smooth="yes"/>
      <point x="260" y="354"/>
      <point x="317" y="329"/>
    </contour>
    <contour>
      <point x="319" y="654" type="curve"/>
      <point x="262" y="548" type="line"/>
      <point x="297" y="548" type="line"/>
      <point x="364" y="627" type="line"/>
      <point x="380" y="641"/>
      <point x="382" y="664"/>
      <point x="366" y="674" type="curve" smooth="yes"/>
      <point x="350" y="684"/>
      <point x="328" y="673"/>
    </contour>
  </outline>
</glyph>
<glyph name="acircumflex" format="2">
  <advance width="451"/>
  <unicode hex="00E2"/>
  <outline>
    <contour>
      <point x="375" y="349" type="curve"/>
      <point x="334" y="375"/>
      <point x="274" y="402"/>
      <point x="209" y="402" type="curve" smooth="yes"/>
      <point x="129" y="402"/>
      <point x="50" y="363"/>
      <point x="30" y="251" type="curve" smooth="yes"/>
      <point x="25" y="223"/>
      <point x="20" y="196"/>
      <point x="15" y="168" type="curve" smooth="yes"/>
      <point x="-11" y="21"/>
      <point x="81" y="-14"/>
      <point x="211" y="-10" type="curve" smooth="yes"/>
      <point x="260" y="-9"/>
      <point x="370" y="0"/>
      <point x="370" y="0" type="curve"/>
      <point x="386" y="96"/>
      <point x="403" y="191"/>
      <point x="420" y="287" type="curve" smooth="yes"/>
      <point x="436" y="375"/>
      <point x="440" y="444"/>
      <point x="383" y="480" type="curve" smooth="yes"/>
      <point x="346" y="504"/>
      <point x="297" y="507"/>
      <point x="251" y="507" type="curve"/>
      <point x="241" y="464" type="line"/>
      <point x="278" y="464"/>
      <point x="312" y="461"/>
      <point x="336" y="449" type="curve" smooth="yes"/>
      <point x="369" y="432"/>
      <point x="385" y="404"/>
    </contour>
    <contour>
      <point x="367" y="302" type="curve"/>
      <point x="352" y="217"/>
      <point x="337" y="132"/>
      <point x="322" y="46" type="curve"/>
      <point x="322" y="46"/>
      <point x="280" y="42"/>
      <point x="214" y="38" type="curve" smooth="yes"/>
      <point x="80" y="33"/>
      <point x="55" y="80"/>
      <point x="71" y="175" type="curve" smooth="yes"/>
      <point x="75" y="195"/>
      <point x="80" y="226"/>
      <point x="84" y="249" type="curve" smooth="yes"/>
      <point x="100" y="339"/>
      <point x="160" y="354"/>
      <point x="196" y="354" type="curve" smooth="yes"/>
      <point x="260" y="354"/>
      <point x="317" y="329"/>
    </contour>
    <contour>
      <point x="151" y="584" type="line"/>
      <point x="183" y="546" type="line"/>
      <point x="292" y="636" type="line"/>
      <point x="365" y="548" type="line"/>
      <point x="411" y="585" type="line"/>
      <point x="305" y="712" type="line"/>
    </contour>
  </outline>
</glyph>
<glyph name="atilde" format="2">
  <advance width="453"/>
  <unicode hex="00E3"/>
  <outline>
    <contour>
      <point x="375" y="349" type="curve"/>
      <point x="334" y="375"/>
      <point x="274" y="402"/>
      <point x="209" y="402" type="curve" smooth="yes"/>
      <point x="129" y="402"/>
      <point x="50" y="363"/>
      <point x="30" y="251" type="curve" smooth="yes"/>
      <point x="25" y="223"/>
      <point x="20" y="196"/>
      <point x="15" y="168" type="curve" smooth="yes"/>
      <point x="-11" y="21"/>
      <point x="81" y="-14"/>
      <point x="211" y="-10" type="curve" smooth="yes"/>
      <point x="260" y="-9"/>
      <point x="370" y="0"/>
      <point x="370" y="0" type="curve"/>
      <point x="386" y="96"/>
      <point x="403" y="191"/>
      <point x="420" y="287" type="curve" smooth="yes"/>
      <point x="436" y="375"/>
      <point x="440" y="444"/>
      <point x="383" y="480" type="curve" smooth="yes"/>
      <point x="346" y="504"/>
      <point x="297" y="507"/>
      <point x="251" y="507" type="curve"/>
      <point x="241" y="464" type="line"/>
      <point x="278" y="464"/>
      <point x="312" y="461"/>
      <point x="336" y="449" type="curve" smooth="yes"/>
      <point x="369" y="432"/>
      <point x="385" y="404"/>
    </contour>
    <contour>
      <point x="367" y="302" type="curve"/>
      <point x="352" y="217"/>
      <point x="337" y="132"/>
      <point x="322" y="46" type="curve"/>
      <point x="322" y="46"/>
      <point x="280" y="42"/>
      <point x="214" y="38" type="curve" smooth="yes"/>
      <point x="80" y="33"/>
      <point x="55" y="80"/>
      <point x="71" y="175" type="curve" smooth="yes"/>
      <point x="75" y="195"/>
      <point x="80" y="226"/>
      <point x="84" y="249" type="curve" smooth="yes"/>
      <point x="100" y="339"/>
      <point x="160" y="354"/>
      <point x="196" y="354" type="curve" smooth="yes"/>
      <point x="260" y="354"/>
      <point x="317" y="329"/>
    </contour>
    <contour>
      <point x="410" y="583" type="curve"/>
      <point x="398" y="630" type="line"/>
      <point x="383" y="619"/>
      <point x="360" y="610"/>
      <point x="342" y="610" type="curve" smooth="yes"/>
      <point x="328" y="610"/>
      <point x="287" y="636"/>
      <point x="239" y="636" type="curve" smooth="yes"/>
      <point x="211" y="636"/>
      <point x="182" y="628"/>
      <point x="155" y="604" type="curve"/>
      <point x="169" y="558" type="line"/>
      <point x="185" y="570"/>
      <point x="198" y="576"/>
      <point x="217" y="577" type="curve" smooth="yes"/>
      <point x="249" y="580"/>
      <point x="288" y="553"/>
      <point x="334" y="553" type="curve" smooth="yes"/>
      <point x="358" y="553"/>
      <point x="383" y="561"/>
    </contour>
  </outline>
</glyph>
<glyph name="adieresis" format="2">
  <advance width="453"/>
  <unicode hex="00E4"/>
  <outline>
    <contour>
      <point x="375" y="349" type="curve"/>
      <point x="333" y="375"/>
      <point x="274" y="402"/>
      <point x="209" y="402" type="curve" smooth="yes"/>
      <point x="128" y="402"/>
      <point x="50" y="363"/>
      <point x="30" y="251" type="curve" smooth="yes"/>
      <point x="25" y="223"/>
      <point x="20" y="196"/>
      <point x="15" y="168" type="curve" smooth="yes"/>
      <point x="-11" y="21"/>
      <point x="81" y="-14"/>
      <point x="211" y="-10" type="curve" smooth="yes"/>
      <point x="260" y="-9"/>
      <point x="370" y="0"/>
      <point x="370" y="0" type="curve"/>
      <point x="386" y="96"/>
      <point x="403" y="191"/>
      <point x="420" y="287" type="curve" smooth="yes"/>
      <point x="436" y="375"/>
      <point x="440" y="444"/>
      <point x="383" y="480" type="curve" smooth="yes"/>
      <point x="346" y="504"/>
      <point x="297" y="507"/>
      <point x="251" y="507" type="curve"/>
      <point x="241" y="464" type="line"/>
      <point x="278" y="464"/>
      <point x="312" y="461"/>
      <point x="335" y="449" type="curve" smooth="yes"/>
      <point x="369" y="432"/>
      <point x="385" y="404"/>
    </contour>
    <contour>
      <point x="367" y="302" type="curve"/>
      <point x="352" y="217"/>
      <point x="337" y="132"/>
      <point x="322" y="46" type="curve"/>
      <point x="322" y="46"/>
      <point x="280" y="42"/>
      <point x="214" y="38" type="curve" smooth="yes"/>
      <point x="80" y="33"/>
      <point x="55" y="80"/>
      <point x="71" y="175" type="curve" smooth="yes"/>
      <point x="75" y="195"/>
      <point x="80" y="226"/>
      <point x="84" y="249" type="curve" smooth="yes"/>
      <point x="100" y="339"/>
      <point x="160" y="354"/>
      <point x="196" y="354" type="curve" smooth="yes"/>
      <point x="260" y="354"/>
      <point x="317" y="329"/>
    </contour>
    <contour>
      <point x="368" y="641" type="curve" smooth="yes"/>
      <point x="351" y="641"/>
      <point x="332" y="626"/>
      <point x="329" y="607" type="curve"/>
      <point x="325" y="588"/>
      <point x="339" y="574"/>
      <point x="356" y="574" type="curve" smooth="yes"/>
      <point x="375" y="574"/>
      <point x="392" y="588"/>
      <point x="396" y="607" type="curve"/>
      <point x="399" y="626"/>
      <point x="387" y="641"/>
    </contour>
    <contour>
      <point x="211" y="641" type="curve" smooth="yes"/>
      <point x="192" y="641"/>
      <point x="174" y="626"/>
      <point x="171" y="607" type="curve"/>
      <point x="167" y="588"/>
      <point x="180" y="574"/>
      <point x="199" y="574" type="curve" smooth="yes"/>
      <point x="218" y="574"/>
      <point x="234" y="588"/>
      <point x="238" y="607" type="curve"/>
      <point x="241" y="626"/>
      <point x="230" y="641"/>
    </contour>
  </outline>
</glyph>
<glyph name="egrave" format="2">
  <advance width="421"/>
  <unicode hex="00E8"/>
  <outline>
    <contour>
      <point x="63" y="133" type="curve" smooth="yes"/>
      <point x="74" y="195" type="line"/>
      <point x="381" y="211" type="line"/>
      <point x="404" y="341" type="line" smooth="yes"/>
      <point x="413" y="392"/>
      <point x="405" y="432"/>
      <point x="382" y="461" type="curve" smooth="yes"/>
      <point x="356" y="492"/>
      <point x="314" y="508"/>
      <point x="257" y="508" type="curve" smooth="yes"/>
      <point x="207" y="508"/>
      <point x="164" y="496"/>
      <point x="129" y="473" type="curve" smooth="yes"/>
      <point x="85" y="444"/>
      <point x="54" y="398"/>
      <point x="43" y="338" type="curve" smooth="yes"/>
      <point x="7" y="133" type="line" smooth="yes"/>
      <point x="-2" y="80"/>
      <point x="9" y="46"/>
      <point x="29" y="24" type="curve" smooth="yes"/>
      <point x="63" y="-13"/>
      <point x="123" y="-12"/>
      <point x="153" y="-12" type="curve" smooth="yes"/>
      <point x="204" y="-11"/>
      <point x="268" y="4"/>
      <point x="325" y="35" type="curve"/>
      <point x="310" y="78" type="line"/>
      <point x="254" y="51"/>
      <point x="206" y="36"/>
      <point x="157" y="36" type="curve" smooth="yes"/>
      <point x="138" y="36"/>
      <point x="97" y="36"/>
      <point x="77" y="63" type="curve"/>
      <point x="63" y="77"/>
      <point x="57" y="99"/>
    </contour>
    <contour>
      <point x="349" y="348" type="curve" smooth="yes"/>
      <point x="344" y="319"/>
      <point x="338" y="289"/>
      <point x="334" y="261" type="curve"/>
      <point x="84" y="250" type="line"/>
      <point x="89" y="278"/>
      <point x="94" y="308"/>
      <point x="99" y="337" type="curve" smooth="yes"/>
      <point x="106" y="378"/>
      <point x="123" y="408"/>
      <point x="149" y="429" type="curve" smooth="yes"/>
      <point x="177" y="450"/>
      <point x="210" y="461"/>
      <point x="248" y="461" type="curve" smooth="yes"/>
      <point x="281" y="461"/>
      <point x="314" y="454"/>
      <point x="338" y="418" type="curve" smooth="yes"/>
      <point x="350" y="399"/>
      <point x="354" y="377"/>
    </contour>
    <contour>
      <point x="194" y="627" type="curve"/>
      <point x="233" y="548" type="line"/>
      <point x="268" y="548" type="line"/>
      <point x="250" y="654" type="line" smooth="yes"/>
      <point x="246" y="673"/>
      <point x="228" y="684"/>
      <point x="209" y="674" type="curve" smooth="yes"/>
      <point x="190" y="664"/>
      <point x="184" y="641"/>
    </contour>
  </outline>
</glyph>
<glyph name="edieresis" format="2">
  <advance width="424"/>
  <unicode hex="00EB"/>
  <outline>
    <contour>
      <point x="64" y="133" type="curve" smooth="yes"/>
      <point x="75" y="195" type="line"/>
      <point x="382" y="211" type="line"/>
      <point x="405" y="341" type="line" smooth="yes"/>
      <point x="414" y="392"/>
      <point x="406" y="432"/>
      <point x="383" y="461" type="curve" smooth="yes"/>
      <point x="357" y="492"/>
      <point x="315" y="508"/>
      <point x="258" y="508" type="curve" smooth="yes"/>
      <point x="208" y="508"/>
      <point x="165" y="496"/>
      <point x="130" y="473" type="curve" smooth="yes"/>
      <point x="86" y="444"/>
      <point x="55" y="398"/>
      <point x="44" y="338" type="curve" smooth="yes"/>
      <point x="8" y="133" type="line" smooth="yes"/>
      <point x="-1" y="80"/>
      <point x="10" y="46"/>
      <point x="30" y="24" type="curve" smooth="yes"/>
      <point x="64" y="-13"/>
      <point x="124" y="-12"/>
      <point x="154" y="-12" type="curve" smooth="yes"/>
      <point x="206" y="-11"/>
      <point x="269" y="4"/>
      <point x="326" y="35" type="curve"/>
      <point x="311" y="78" type="line"/>
      <point x="255" y="51"/>
      <point x="207" y="36"/>
      <point x="159" y="36" type="curve" smooth="yes"/>
      <point x="139" y="36"/>
      <point x="98" y="36"/>
      <point x="78" y="63" type="curve"/>
      <point x="64" y="77"/>
      <point x="58" y="99"/>
    </contour>
    <contour>
      <point x="350" y="348" type="curve" smooth="yes"/>
      <point x="345" y="319"/>
      <point x="339" y="289"/>
      <point x="335" y="261" type="curve"/>
      <point x="85" y="250" type="line"/>
      <point x="90" y="278"/>
      <point x="95" y="308"/>
      <point x="100" y="337" type="curve" smooth="yes"/>
      <point x="107" y="378"/>
      <point x="124" y="408"/>
      <point x="151" y="429" type="curve" smooth="yes"/>
      <point x="178" y="450"/>
      <point x="211" y="461"/>
      <point x="249" y="461" type="curve" smooth="yes"/>
      <point x="282" y="461"/>
      <point x="315" y="454"/>
      <point x="339" y="418" type="curve" smooth="yes"/>
      <point x="351" y="399"/>
      <point x="355" y="377"/>
    </contour>
    <contour>
      <point x="357" y="641" type="curve" smooth="yes"/>
      <point x="338" y="641"/>
      <point x="321" y="626"/>
      <point x="318" y="607" type="curve"/>
      <point x="314" y="588"/>
      <point x="326" y="574"/>
      <point x="345" y="574" type="curve" smooth="yes"/>
      <point x="363" y="574"/>
      <point x="381" y="588"/>
      <point x="385" y="607" type="curve"/>
      <point x="388" y="626"/>
      <point x="375" y="641"/>
    </contour>
    <contour>
      <point x="200" y="641" type="curve" smooth="yes"/>
      <point x="181" y="641"/>
      <point x="162" y="626"/>
      <point x="159" y="607" type="curve"/>
      <point x="155" y="588"/>
      <point x="169" y="574"/>
      <point x="188" y="574" type="curve" smooth="yes"/>
      <point x="205" y="574"/>
      <point x="222" y="588"/>
      <point x="226" y="607" type="curve"/>
      <point x="229" y="626"/>
      <point x="217" y="641"/>
    </contour>
  </outline>
</glyph>
<glyph name="igrave" format="2">
  <advance width="158"/>
  <unicode hex="00EC"/>
  <outline>
    <contour>
      <point x="8" y="0" type="line"/>
      <point x="63" y="0" type="line"/>
      <point x="150" y="499" type="line"/>
      <point x="95" y="499" type="line"/>
    </contour>
    <contour>
      <point x="67" y="623" type="curve"/>
      <point x="106" y="543" type="line"/>
      <point x="141" y="543" type="line"/>
      <point x="123" y="651" type="line"/>
      <point x="119" y="669"/>
      <point x="102" y="680"/>
      <point x="83" y="671" type="curve" smooth="yes"/>
      <point x="63" y="661"/>
      <point x="57" y="638"/>
    </contour>
  </outline>
</glyph>
<glyph name="iacute" format="2">
  <advance width="211"/>
  <unicode hex="00ED"/>
  <outline>
    <contour>
      <point x="-1" y="0" type="line"/>
      <point x="55" y="0" type="line"/>
      <point x="142" y="499" type="line"/>
      <point x="86" y="499" type="line"/>
    </contour>
    <contour>
      <point x="163" y="651" type="curve" smooth="yes"/>
      <point x="106" y="543" type="line"/>
      <point x="142" y="543" type="line"/>
      <point x="209" y="623" type="line"/>
      <point x="224" y="638"/>
      <point x="227" y="661"/>
      <point x="211" y="671" type="curve" smooth="yes"/>
      <point x="195" y="680"/>
      <point x="172" y="669"/>
    </contour>
  </outline>
</glyph>
<glyph name="icircumflex" format="2">
  <advance width="267"/>
  <unicode hex="00EE"/>
  <outline>
    <contour>
      <point x="21" y="0" type="line"/>
      <point x="77" y="0" type="line"/>
      <point x="164" y="499" type="line"/>
      <point x="108" y="499" type="line"/>
    </contour>
    <contour>
      <point x="22" y="582" type="line"/>
      <point x="53" y="543" type="line"/>
      <point x="162" y="634" type="line"/>
      <point x="236" y="546" type="line"/>
      <point x="281" y="583" type="line"/>
      <point x="175" y="708" type="line"/>
    </contour>
  </outline>
</glyph>
<glyph name="eth" format="2">
  <advance width="436"/>
  <unicode hex="00F0"/>
  <outline>
    <contour>
      <point x="241" y="670" type="line"/>
      <point x="273" y="661"/>
      <point x="391" y="625"/>
      <point x="365" y="479" type="curve" smooth="yes"/>
      <point x="344" y="359" type="line"/>
      <point x="328" y="401"/>
      <point x="276" y="433"/>
      <point x="214" y="433" type="curve" smooth="yes"/>
      <point x="104" y="433"/>
      <point x="33" y="368"/>
      <point x="12" y="245" type="curve" smooth="yes"/>
      <point x="1" y="187" type="line" smooth="yes"/>
      <point x="-20" y="66"/>
      <point x="31" y="-9"/>
      <point x="150" y="-9" type="curve" smooth="yes"/>
      <point x="268" y="-9"/>
      <point x="348" y="60"/>
      <point x="370" y="187" type="curve" smooth="yes"/>
      <point x="420" y="469" type="line" smooth="yes"/>
      <point x="441" y="589"/>
      <point x="382" y="681"/>
      <point x="253" y="699" type="curve"/>
    </contour>
    <contour>
      <point x="69" y="253" type="line" smooth="yes"/>
      <point x="84" y="337"/>
      <point x="134" y="380"/>
      <point x="210" y="380" type="curve" smooth="yes"/>
      <point x="286" y="380"/>
      <point x="339" y="333"/>
      <point x="324" y="248" type="curve" smooth="yes"/>
      <point x="313" y="187" type="line" smooth="yes"/>
      <point x="296" y="90"/>
      <point x="244" y="43"/>
      <point x="156" y="43" type="curve" smooth="yes"/>
      <point x="72" y="43"/>
      <point x="40" y="90"/>
      <point x="57" y="187" type="curve" smooth="yes"/>
    </contour>
    <contour>
      <point x="436" y="673" type="line"/>
      <point x="413" y="701" type="line"/>
      <point x="203" y="522" type="line"/>
      <point x="226" y="494" type="line"/>
    </contour>
  </outline>
</glyph>
<glyph name="ntilde" format="2">
  <advance width="453"/>
  <unicode hex="00F1"/>
  <outline>
    <contour>
      <point x="371" y="342" type="curve" smooth="yes"/>
      <point x="311" y="0" type="line"/>
      <point x="366" y="0" type="line"/>
      <point x="426" y="345" type="line" smooth="yes"/>
      <point x="445" y="450"/>
      <point x="391" y="508"/>
      <point x="281" y="508" type="curve" smooth="yes"/>
      <point x="232" y="508"/>
      <point x="178" y="492"/>
      <point x="135" y="465" type="curve"/>
      <point x="141" y="499" type="line"/>
      <point x="85" y="499" type="line"/>
      <point x="-2" y="0" type="line"/>
      <point x="54" y="0" type="line"/>
      <point x="128" y="424" type="line"/>
      <point x="173" y="447"/>
      <point x="216" y="458"/>
      <point x="261" y="458" type="curve" smooth="yes"/>
      <point x="324" y="458"/>
      <point x="387" y="432"/>
    </contour>
    <contour>
      <point x="413" y="581" type="curve"/>
      <point x="401" y="628" type="line"/>
      <point x="386" y="617"/>
      <point x="364" y="607"/>
      <point x="346" y="608" type="curve"/>
      <point x="331" y="607"/>
      <point x="289" y="634"/>
      <point x="241" y="634" type="curve" smooth="yes"/>
      <point x="214" y="634"/>
      <point x="185" y="626"/>
      <point x="158" y="602" type="curve"/>
      <point x="172" y="555" type="line"/>
      <point x="188" y="566"/>
      <point x="201" y="574"/>
      <point x="221" y="575" type="curve" smooth="yes"/>
      <point x="252" y="577"/>
      <point x="292" y="551"/>
      <point x="337" y="551" type="curve" smooth="yes"/>
      <point x="361" y="551"/>
      <point x="386" y="558"/>
    </contour>
  </outline>
</glyph>
<glyph name="ocircumflex" format="2">
  <advance width="434"/>
  <unicode hex="00F4"/>
  <outline>
    <contour>
      <point x="383" y="184" type="curve" smooth="yes"/>
      <point x="406" y="315" type="line" smooth="yes"/>
      <point x="427" y="436"/>
      <point x="376" y="510"/>
      <point x="257" y="510" type="curve" smooth="yes"/>
      <point x="138" y="510"/>
      <point x="59" y="442"/>
      <point x="37" y="315" type="curve" smooth="yes"/>
      <point x="14" y="184" type="line" smooth="yes"/>
      <point x="-5" y="75"/>
      <point x="44" y="-10"/>
      <point x="168" y="-10" type="curve" smooth="yes"/>
      <point x="291" y="-10"/>
      <point x="363" y="71"/>
    </contour>
    <contour>
      <point x="349" y="315" type="curve" smooth="yes"/>
      <point x="324" y="174" type="line" smooth="yes"/>
      <point x="310" y="92"/>
      <point x="260" y="40"/>
      <point x="177" y="40" type="curve" smooth="yes"/>
      <point x="96" y="40"/>
      <point x="54" y="94"/>
      <point x="68" y="174" type="curve" smooth="yes"/>
      <point x="93" y="315" type="line" smooth="yes"/>
      <point x="110" y="411"/>
      <point x="163" y="460"/>
      <point x="251" y="460" type="curve" smooth="yes"/>
      <point x="337" y="460"/>
      <point x="366" y="411"/>
    </contour>
    <contour>
      <point x="128" y="577" type="line"/>
      <point x="159" y="538" type="line"/>
      <point x="287" y="642" type="line"/>
      <point x="372" y="538" type="line"/>
      <point x="417" y="577" type="line"/>
      <point x="301" y="718" type="line"/>
    </contour>
  </outline>
</glyph>
<glyph name="otilde" format="2">
  <advance width="434"/>
  <unicode hex="00F5"/>
  <outline>
    <contour>
      <point x="383" y="184" type="curve" smooth="yes"/>
      <point x="406" y="315" type="line" smooth="yes"/>
      <point x="427" y="436"/>
      <point x="376" y="510"/>
      <point x="257" y="510" type="curve" smooth="yes"/>
      <point x="138" y="510"/>
      <point x="59" y="442"/>
      <point x="37" y="315" type="curve" smooth="yes"/>
      <point x="14" y="184" type="line" smooth="yes"/>
      <point x="-5" y="75"/>
      <point x="44" y="-10"/>
      <point x="168" y="-10" type="curve" smooth="yes"/>
      <point x="291" y="-10"/>
      <point x="363" y="71"/>
    </contour>
    <contour>
      <point x="349" y="315" type="curve" smooth="yes"/>
      <point x="324" y="174" type="line" smooth="yes"/>
      <point x="310" y="92"/>
      <point x="260" y="40"/>
      <point x="177" y="40" type="curve" smooth="yes"/>
      <point x="96" y="40"/>
      <point x="54" y="94"/>
      <point x="68" y="174" type="curve" smooth="yes"/>
      <point x="93" y="315" type="line" smooth="yes"/>
      <point x="110" y="411"/>
      <point x="163" y="460"/>
      <point x="251" y="460" type="curve" smooth="yes"/>
      <point x="337" y="460"/>
      <point x="366" y="411"/>
    </contour>
    <contour>
      <point x="399" y="581" type="curve"/>
      <point x="386" y="628" type="line"/>
      <point x="371" y="617"/>
      <point x="349" y="608"/>
      <point x="330" y="608" type="curve" smooth="yes"/>
      <point x="317" y="608"/>
      <point x="275" y="634"/>
      <point x="226" y="634" type="curve" smooth="yes"/>
      <point x="199" y="634"/>
      <point x="170" y="626"/>
      <point x="143" y="602" type="curve"/>
      <point x="156" y="555" type="line"/>
      <point x="172" y="566"/>
      <point x="187" y="574"/>
      <point x="206" y="575" type="curve" smooth="yes"/>
      <point x="236" y="577"/>
      <point x="276" y="551"/>
      <point x="322" y="551" type="curve" smooth="yes"/>
      <point x="346" y="551"/>
      <point x="372" y="559"/>
    </contour>
  </outline>
</glyph>
<glyph name="odieresis" format="2">
  <advance width="435"/>
  <unicode hex="00F6"/>
  <outline>
    <contour>
      <point x="384" y="184" type="curve" smooth="yes"/>
      <point x="407" y="315" type="line" smooth="yes"/>
      <point x="428" y="436"/>
      <point x="377" y="510"/>
      <point x="258" y="510" type="curve" smooth="yes"/>
      <point x="139" y="510"/>
      <point x="60" y="442"/>
      <point x="38" y="315" type="curve" smooth="yes"/>
      <point x="15" y="184" type="line" smooth="yes"/>
      <point x="-4" y="75"/>
      <point x="45" y="-10"/>
      <point x="169" y="-10" type="curve" smooth="yes"/>
      <point x="292" y="-10"/>
      <point x="364" y="71"/>
    </contour>
    <contour>
      <point x="350" y="315" type="curve" smooth="yes"/>
      <point x="325" y="174" type="line" smooth="yes"/>
      <point x="311" y="92"/>
      <point x="261" y="40"/>
      <point x="178" y="40" type="curve" smooth="yes"/>
      <point x="97" y="40"/>
      <point x="55" y="94"/>
      <point x="69" y="174" type="curve" smooth="yes"/>
      <point x="94" y="315" type="line" smooth="yes"/>
      <point x="111" y="411"/>
      <point x="164" y="460"/>
      <point x="252" y="460" type="curve" smooth="yes"/>
      <point x="338" y="460"/>
      <point x="367" y="411"/>
    </contour>
    <contour>
      <point x="382" y="606" type="curve"/>
      <point x="386" y="625"/>
      <point x="373" y="639"/>
      <point x="355" y="639" type="curve" smooth="yes"/>
      <point x="336" y="639"/>
      <point x="319" y="625"/>
      <point x="315" y="606" type="curve"/>
      <point x="312" y="587"/>
      <point x="324" y="572"/>
      <point x="343" y="572" type="curve" smooth="yes"/>
      <point x="361" y="572"/>
      <point x="379" y="587"/>
    </contour>
    <contour>
      <point x="224" y="606" type="curve"/>
      <point x="228" y="625"/>
      <point x="215" y="639"/>
      <point x="196" y="639" type="curve" smooth="yes"/>
      <point x="179" y="639"/>
      <point x="161" y="625"/>
      <point x="157" y="606" type="curve"/>
      <point x="154" y="587"/>
      <point x="167" y="572"/>
      <point x="184" y="572" type="curve" smooth="yes"/>
      <point x="203" y="572"/>
      <point x="221" y="587"/>
    </contour>
  </outline>
</glyph>
<glyph name="ugrave" format="2">
  <advance width="450"/>
  <unicode hex="00F9"/>
  <outline>
    <contour>
      <point x="310" y="48" type="curve"/>
      <point x="302" y="0" type="line"/>
      <point x="358" y="0" type="line"/>
      <point x="445" y="499" type="line"/>
      <point x="389" y="499" type="line"/>
      <point x="332" y="172" type="line" smooth="yes"/>
      <point x="319" y="101"/>
      <point x="253" y="44"/>
      <point x="182" y="44" type="curve" smooth="yes"/>
      <point x="118" y="44"/>
      <point x="56" y="68"/>
      <point x="73" y="159" type="curve" smooth="yes"/>
      <point x="132" y="499" type="line"/>
      <point x="76" y="499" type="line"/>
      <point x="16" y="156" type="line" smooth="yes"/>
      <point x="-4" y="43"/>
      <point x="50" y="-10"/>
      <point x="161" y="-10" type="curve" smooth="yes"/>
      <point x="211" y="-10"/>
      <point x="269" y="9"/>
    </contour>
    <contour>
      <point x="207" y="621" type="curve" smooth="yes"/>
      <point x="246" y="543" type="line"/>
      <point x="281" y="543" type="line"/>
      <point x="263" y="650" type="line" smooth="yes"/>
      <point x="260" y="669"/>
      <point x="241" y="680"/>
      <point x="223" y="670" type="curve" smooth="yes"/>
      <point x="203" y="660"/>
      <point x="198" y="637"/>
    </contour>
  </outline>
</glyph>
<glyph name="uacute" format="2">
  <advance width="451"/>
  <unicode hex="00FA"/>
  <outline>
    <contour>
      <point x="310" y="48" type="curve"/>
      <point x="302" y="0" type="line"/>
      <point x="358" y="0" type="line"/>
      <point x="445" y="499" type="line"/>
      <point x="389" y="499" type="line"/>
      <point x="332" y="172" type="line" smooth="yes"/>
      <point x="319" y="101"/>
      <point x="253" y="44"/>
      <point x="182" y="44" type="curve" smooth="yes"/>
      <point x="118" y="44"/>
      <point x="56" y="68"/>
      <point x="73" y="159" type="curve" smooth="yes"/>
      <point x="132" y="499" type="line"/>
      <point x="76" y="499" type="line"/>
      <point x="16" y="156" type="line" smooth="yes"/>
      <point x="-4" y="43"/>
      <point x="50" y="-10"/>
      <point x="161" y="-10" type="curve" smooth="yes"/>
      <point x="211" y="-10"/>
      <point x="269" y="9"/>
    </contour>
    <contour>
      <point x="312" y="649" type="curve" smooth="yes"/>
      <point x="256" y="542" type="line"/>
      <point x="291" y="542" type="line"/>
      <point x="358" y="621" type="line"/>
      <point x="373" y="636"/>
      <point x="376" y="659"/>
      <point x="359" y="669" type="curve"/>
      <point x="344" y="679"/>
      <point x="321" y="668"/>
    </contour>
  </outline>
</glyph>
<glyph name="udieresis" format="2">
  <advance width="454"/>
  <unicode hex="00FC"/>
  <outline>
    <contour>
      <point x="311" y="48" type="curve"/>
      <point x="303" y="0" type="line"/>
      <point x="359" y="0" type="line"/>
      <point x="446" y="499" type="line"/>
      <point x="390" y="499" type="line"/>
      <point x="333" y="172" type="line" smooth="yes"/>
      <point x="320" y="101"/>
      <point x="254" y="44"/>
      <point x="183" y="44" type="curve" smooth="yes"/>
      <point x="119" y="44"/>
      <point x="57" y="68"/>
      <point x="74" y="159" type="curve" smooth="yes"/>
      <point x="133" y="499" type="line"/>
      <point x="77" y="499" type="line"/>
      <point x="17" y="156" type="line" smooth="yes"/>
      <point x="-3" y="43"/>
      <point x="51" y="-10"/>
      <point x="162" y="-10" type="curve" smooth="yes"/>
      <point x="212" y="-10"/>
      <point x="270" y="9"/>
    </contour>
    <contour>
      <point x="366" y="636" type="curve" smooth="yes"/>
      <point x="348" y="636"/>
      <point x="329" y="620"/>
      <point x="326" y="602" type="curve" smooth="yes"/>
      <point x="322" y="583"/>
      <point x="336" y="569"/>
      <point x="354" y="569" type="curve" smooth="yes"/>
      <point x="372" y="569"/>
      <point x="389" y="583"/>
      <point x="393" y="602" type="curve" smooth="yes"/>
      <point x="396" y="620"/>
      <point x="384" y="636"/>
    </contour>
    <contour>
      <point x="208" y="636" type="curve" smooth="yes"/>
      <point x="189" y="636"/>
      <point x="172" y="620"/>
      <point x="169" y="602" type="curve" smooth="yes"/>
      <point x="165" y="583"/>
      <point x="177" y="569"/>
      <point x="196" y="569" type="curve" smooth="yes"/>
      <point x="215" y="569"/>
      <point x="231" y="583"/>
      <point x="235" y="602" type="curve" smooth="yes"/>
      <point x="238" y="620"/>
      <point x="227" y="636"/>
    </contour>
  </outline>
</glyph>
<glyph name="thorn" format="2">
  <advance width="453"/>
  <unicode hex="00FE"/>
  <outline>
    <contour>
      <point x="135" y="453" type="curve"/>
      <point x="179" y="698" type="line"/>
      <point x="123" y="698" type="line"/>
      <point x="0" y="0" type="line"/>
      <point x="56" y="0" type="line"/>
      <point x="88" y="185" type="line"/>
      <point x="108" y="142"/>
      <point x="163" y="116"/>
      <point x="211" y="116" type="curve" smooth="yes"/>
      <point x="322" y="116"/>
      <point x="410" y="190"/>
      <point x="431" y="310" type="curve" smooth="yes"/>
      <point x="451" y="422"/>
      <point x="394" y="507"/>
      <point x="284" y="507" type="curve" smooth="yes"/>
      <point x="226" y="507"/>
      <point x="180" y="490"/>
    </contour>
    <contour>
      <point x="270" y="457" type="curve" smooth="yes"/>
      <point x="343" y="457"/>
      <point x="394" y="416"/>
      <point x="376" y="316" type="curve" smooth="yes"/>
      <point x="359" y="217"/>
      <point x="297" y="169"/>
      <point x="218" y="169" type="curve" smooth="yes"/>
      <point x="140" y="169"/>
      <point x="95" y="220"/>
      <point x="113" y="323" type="curve"/>
      <point x="135" y="415"/>
      <point x="200" y="457"/>
    </contour>
  </outline>
</glyph>
<glyph name="ydieresis" format="2">
  <advance width="476"/>
  <unicode hex="00FF"/>
  <outline>
    <contour>
      <point x="474" y="468" type="curve"/>
      <point x="461" y="510" type="line"/>
      <point x="411" y="494"/>
      <point x="382" y="453"/>
      <point x="374" y="408" type="curve" smooth="yes"/>
      <point x="333" y="173" type="line" smooth="yes"/>
      <point x="320" y="102"/>
      <point x="254" y="44"/>
      <point x="183" y="44" type="curve" smooth="yes"/>
      <point x="121" y="44"/>
      <point x="58" y="69"/>
      <point x="74" y="161" type="curve" smooth="yes"/>
      <point x="133" y="499" type="line"/>
      <point x="77" y="499" type="line"/>
      <point x="17" y="157" type="line" smooth="yes"/>
      <point x="-3" y="44"/>
      <point x="52" y="-9"/>
      <point x="162" y="-9" type="curve" smooth="yes"/>
      <point x="212" y="-9"/>
      <point x="271" y="10"/>
      <point x="311" y="50" type="curve"/>
      <point x="292" y="-61" type="line" smooth="yes"/>
      <point x="287" y="-89"/>
      <point x="277" y="-112"/>
      <point x="261" y="-130" type="curve" smooth="yes"/>
      <point x="247" y="-145"/>
      <point x="230" y="-157"/>
      <point x="208" y="-165" type="curve"/>
      <point x="217" y="-208" type="line"/>
      <point x="251" y="-197"/>
      <point x="277" y="-184"/>
      <point x="298" y="-165" type="curve" smooth="yes"/>
      <point x="325" y="-140"/>
      <point x="340" y="-107"/>
      <point x="348" y="-62" type="curve" smooth="yes"/>
      <point x="430" y="407" type="line" smooth="yes"/>
      <point x="437" y="448"/>
      <point x="454" y="460"/>
    </contour>
    <contour>
      <point x="377" y="636" type="curve" smooth="yes"/>
      <point x="360" y="636"/>
      <point x="341" y="620"/>
      <point x="338" y="602" type="curve" smooth="yes"/>
      <point x="334" y="583"/>
      <point x="348" y="569"/>
      <point x="365" y="569" type="curve" smooth="yes"/>
      <point x="384" y="569"/>
      <point x="401" y="583"/>
      <point x="405" y="602" type="curve" smooth="yes"/>
      <point x="408" y="620"/>
      <point x="396" y="636"/>
    </contour>
    <contour>
      <point x="220" y="636" type="curve" smooth="yes"/>
      <point x="201" y="636"/>
      <point x="183" y="620"/>
      <point x="180" y="602" type="curve" smooth="yes"/>
      <point x="176" y="583"/>
      <point x="189" y="569"/>
      <point x="208" y="569" type="curve" smooth="yes"/>
      <point x="227" y="569"/>
      <point x="243" y="583"/>
      <point x="247" y="602" type="curve" smooth="yes"/>
      <point x="250" y="620"/>
      <point x="239" y="636"/>
    </contour>
  </outline>
</glyph>
<glyph name="Amacron" format="2">
  <advance width="521"/>
  <unicode hex="0100"/>
  <outline>
    <contour>
      <point x="492" y="0" type="line"/>
      <point x="388" y="698" type="line"/>
      <point x="335" y="698" type="line"/>
      <point x="-12" y="0" type="line"/>
      <point x="48" y="0" type="line"/>
      <point x="169" y="244" type="line"/>
      <point x="396" y="244" type="line"/>
      <point x="433" y="0" type="line"/>
    </contour>
    <contour>
      <point x="193" y="299" type="line"/>
      <point x="345" y="612" type="line"/>
      <point x="390" y="299" type="line"/>
    </contour>
    <contour>
      <point x="258" y="741" type="line"/>
      <point x="478" y="741" type="line"/>
      <point x="488" y="799" type="line"/>
      <point x="268" y="799" type="line"/>
    </contour>
  </outline>
</glyph>
<glyph name="Abreve" format="2">
  <advance width="527"/>
  <unicode hex="0102"/>
  <outline>
    <contour>
      <point x="492" y="0" type="line"/>
      <point x="388" y="698" type="line"/>
      <point x="335" y="698" type="line"/>
      <point x="-12" y="0" type="line"/>
      <point x="48" y="0" type="line"/>
      <point x="169" y="244" type="line"/>
      <point x="396" y="244" type="line"/>
      <point x="433" y="0" type="line"/>
    </contour>
    <contour>
      <point x="193" y="299" type="line"/>
      <point x="345" y="612" type="line"/>
      <point x="390" y="299" type="line"/>
    </contour>
    <contour>
      <point x="324" y="855" type="curve" smooth="yes"/>
      <point x="325" y="861" type="line"/>
      <point x="279" y="861" type="line"/>
      <point x="278" y="855" type="line" smooth="yes"/>
      <point x="267" y="792"/>
      <point x="309" y="741"/>
      <point x="371" y="741" type="curve" smooth="yes"/>
      <point x="434" y="741"/>
      <point x="494" y="792"/>
      <point x="505" y="855" type="curve" smooth="yes"/>
      <point x="506" y="861" type="line"/>
      <point x="461" y="861" type="line"/>
      <point x="460" y="855" type="line" smooth="yes"/>
      <point x="454" y="817"/>
      <point x="417" y="787"/>
      <point x="379" y="787" type="curve" smooth="yes"/>
      <point x="342" y="787"/>
      <point x="318" y="817"/>
    </contour>
  </outline>
</glyph>
<glyph name="abreve" format="2">
  <advance width="451"/>
  <unicode hex="0103"/>
  <outline>
    <contour>
      <point x="375" y="349" type="curve"/>
      <point x="334" y="375"/>
      <point x="274" y="402"/>
      <point x="209" y="402" type="curve" smooth="yes"/>
      <point x="129" y="402"/>
      <point x="50" y="363"/>
      <point x="30" y="251" type="curve" smooth="yes"/>
      <point x="25" y="223"/>
      <point x="20" y="196"/>
      <point x="15" y="168" type="curve" smooth="yes"/>
      <point x="-11" y="21"/>
      <point x="81" y="-14"/>
      <point x="211" y="-10" type="curve" smooth="yes"/>
      <point x="260" y="-9"/>
      <point x="370" y="0"/>
      <point x="370" y="0" type="curve"/>
      <point x="386" y="96"/>
      <point x="403" y="191"/>
      <point x="420" y="287" type="curve" smooth="yes"/>
      <point x="436" y="375"/>
      <point x="440" y="444"/>
      <point x="383" y="480" type="curve" smooth="yes"/>
      <point x="346" y="504"/>
      <point x="297" y="507"/>
      <point x="251" y="507" type="curve"/>
      <point x="241" y="464" type="line"/>
      <point x="278" y="464"/>
      <point x="312" y="461"/>
      <point x="336" y="449" type="curve" smooth="yes"/>
      <point x="369" y="432"/>
      <point x="385" y="404"/>
    </contour>
    <contour>
      <point x="367" y="302" type="curve"/>
      <point x="352" y="217"/>
      <point x="337" y="132"/>
      <point x="322" y="46" type="curve"/>
      <point x="322" y="46"/>
      <point x="280" y="42"/>
      <point x="214" y="38" type="curve" smooth="yes"/>
      <point x="80" y="33"/>
      <point x="55" y="80"/>
      <point x="71" y="175" type="curve" smooth="yes"/>
      <point x="75" y="195"/>
      <point x="80" y="226"/>
      <point x="84" y="249" type="curve" smooth="yes"/>
      <point x="100" y="339"/>
      <point x="160" y="354"/>
      <point x="196" y="354" type="curve" smooth="yes"/>
      <point x="260" y="354"/>
      <point x="317" y="329"/>
    </contour>
    <contour>
      <point x="408" y="661" type="curve" smooth="yes"/>
      <point x="409" y="668" type="line"/>
      <point x="363" y="668" type="line"/>
      <point x="362" y="661" type="line" smooth="yes"/>
      <point x="356" y="624"/>
      <point x="320" y="593"/>
      <point x="283" y="593" type="curve" smooth="yes"/>
      <point x="245" y="593"/>
      <point x="220" y="624"/>
      <point x="226" y="661" type="curve" smooth="yes"/>
      <point x="227" y="668" type="line"/>
      <point x="182" y="668" type="line"/>
      <point x="181" y="661" type="line" smooth="yes"/>
      <point x="170" y="598"/>
      <point x="212" y="548"/>
      <point x="275" y="548" type="curve" smooth="yes"/>
      <point x="336" y="548"/>
      <point x="397" y="598"/>
    </contour>
  </outline>
</glyph>
<glyph name="Aogonek" format="2">
  <advance width="551"/>
  <unicode hex="0104"/>
  <outline>
    <contour>
      <point x="492" y="0" type="line"/>
      <point x="388" y="698" type="line"/>
      <point x="335" y="698" type="line"/>
      <point x="-12" y="0" type="line"/>
      <point x="48" y="0" type="line"/>
      <point x="169" y="244" type="line"/>
      <point x="396" y="244" type="line"/>
      <point x="433" y="0" type="line"/>
    </contour>
    <contour>
      <point x="193" y="299" type="line"/>
      <point x="345" y="612" type="line"/>
      <point x="390" y="299" type="line"/>
    </contour>
    <contour>
      <point x="390" y="-127" type="curve" smooth="yes"/>
      <point x="484" y="-2" type="line"/>
      <point x="486" y="7" type="line"/>
      <point x="441" y="3" type="line"/>
      <point x="440" y="-1" type="line"/>
      <point x="357" y="-112" type="line" smooth="yes"/>
      <point x="303" y="-185"/>
      <point x="340" y="-255"/>
      <point x="433" y="-230" type="curve" smooth="yes"/>
      <point x="452" y="-224"/>
      <point x="541" y="-195"/>
      <point x="543" y="-194" type="curve"/>
      <point x="531" y="-154" type="line"/>
      <point x="531" y="-154"/>
      <point x="488" y="-168"/>
      <point x="429" y="-188" type="curve" smooth="yes"/>
      <point x="377" y="-205"/>
      <point x="357" y="-173"/>
    </contour>
  </outline>
</glyph>
<glyph name="aogonek" format="2">
  <advance width="455"/>
  <unicode hex="0105"/>
  <outline>
    <contour>
      <point x="375" y="349" type="curve"/>
      <point x="333" y="375"/>
      <point x="274" y="402"/>
      <point x="209" y="402" type="curve" smooth="yes"/>
      <point x="128" y="402"/>
      <point x="50" y="363"/>
      <point x="30" y="251" type="curve" smooth="yes"/>
      <point x="25" y="223"/>
      <point x="20" y="196"/>
      <point x="15" y="168" type="curve" smooth="yes"/>
      <point x="-11" y="21"/>
      <point x="81" y="-14"/>
      <point x="210" y="-10" type="curve" smooth="yes"/>
      <point x="260" y="-9"/>
      <point x="370" y="0"/>
      <point x="370" y="0" type="curve"/>
      <point x="386" y="96"/>
      <point x="403" y="191"/>
      <point x="420" y="287" type="curve" smooth="yes"/>
      <point x="436" y="375"/>
      <point x="440" y="444"/>
      <point x="383" y="480" type="curve" smooth="yes"/>
      <point x="345" y="504"/>
      <point x="297" y="507"/>
      <point x="251" y="507" type="curve"/>
      <point x="241" y="464" type="line"/>
      <point x="278" y="464"/>
      <point x="312" y="461"/>
      <point x="335" y="449" type="curve" smooth="yes"/>
      <point x="369" y="432"/>
      <point x="385" y="404"/>
    </contour>
    <contour>
      <point x="367" y="302" type="curve"/>
      <point x="352" y="217"/>
      <point x="337" y="132"/>
      <point x="322" y="46" type="curve"/>
      <point x="322" y="46"/>
      <point x="280" y="42"/>
      <point x="214" y="38" type="curve" smooth="yes"/>
      <point x="80" y="33"/>
      <point x="55" y="80"/>
      <point x="71" y="175" type="curve" smooth="yes"/>
      <point x="75" y="195"/>
      <point x="80" y="226"/>
      <point x="84" y="249" type="curve" smooth="yes"/>
      <point x="100" y="339"/>
      <point x="160" y="354"/>
      <point x="196" y="354" type="curve" smooth="yes"/>
      <point x="260" y="354"/>
      <point x="317" y="329"/>
    </contour>
    <contour>
      <point x="265" y="-132" type="curve" smooth="yes"/>
      <point x="298" y="-90"/>
      <point x="328" y="-50"/>
      <point x="359" y="-8" type="curve"/>
      <point x="361" y="1" type="line"/>
      <point x="347" y="0"/>
      <point x="330" y="-1"/>
      <point x="316" y="-2" type="curve"/>
      <point x="316" y="-3"/>
      <point x="315" y="-6"/>
      <point x="315" y="-7" type="curve"/>
      <point x="232" y="-118" type="line" smooth="yes"/>
      <point x="178" y="-189"/>
      <point x="215" y="-260"/>
      <point x="307" y="-234" type="curve"/>
      <point x="327" y="-230"/>
      <point x="416" y="-200"/>
      <point x="417" y="-199" type="curve"/>
      <point x="407" y="-160" type="line"/>
      <point x="407" y="-160"/>
      <point x="363" y="-174"/>
      <point x="304" y="-193" type="curve" smooth="yes"/>
      <point x="251" y="-210"/>
      <point x="231" y="-178"/>
    </contour>
  </outline>
</glyph>
<glyph name="cacute" format="2">
  <advance width="388"/>
  <unicode hex="0107"/>
  <outline>
    <contour>
      <point x="361" y="430" type="curve"/>
      <point x="384" y="476" type="line"/>
      <point x="332" y="503"/>
      <point x="267" y="516"/>
      <point x="207" y="504" type="curve" smooth="yes"/>
      <point x="161" y="494"/>
      <point x="118" y="470"/>
      <point x="86" y="426" type="curve"/>
      <point x="60" y="394"/>
      <point x="47" y="362"/>
      <point x="38" y="318" type="curve" smooth="yes"/>
      <point x="12" y="173" type="line" smooth="yes"/>
      <point x="-5" y="75"/>
      <point x="30" y="23"/>
      <point x="94" y="1" type="curve" smooth="yes"/>
      <point x="150" y="-18"/>
      <point x="233" y="-13"/>
      <point x="303" y="5" type="curve"/>
      <point x="301" y="55" type="line"/>
      <point x="301" y="55"/>
      <point x="174" y="26"/>
      <point x="115" y="52" type="curve"/>
      <point x="65" y="71"/>
      <point x="57" y="119"/>
      <point x="69" y="185" type="curve" smooth="yes"/>
      <point x="90" y="305" type="line" smooth="yes"/>
      <point x="96" y="340"/>
      <point x="109" y="371"/>
      <point x="125" y="394" type="curve" smooth="yes"/>
      <point x="147" y="426"/>
      <point x="176" y="446"/>
      <point x="207" y="453" type="curve" smooth="yes"/>
      <point x="252" y="464"/>
      <point x="317" y="452"/>
    </contour>
    <contour>
      <point x="297" y="654" type="curve"/>
      <point x="240" y="548" type="line"/>
      <point x="276" y="548" type="line"/>
      <point x="343" y="627" type="line"/>
      <point x="358" y="641"/>
      <point x="361" y="664"/>
      <point x="344" y="674" type="curve"/>
      <point x="329" y="684"/>
      <point x="306" y="673"/>
    </contour>
  </outline>
</glyph>
<glyph name="Ccircumflex" format="2">
  <advance width="435"/>
  <unicode hex="0108"/>
  <outline>
    <contour>
      <point x="416" y="637" type="curve"/>
      <point x="440" y="675" type="line"/>
      <point x="400" y="697"/>
      <point x="354" y="708"/>
      <point x="303" y="708" type="curve" smooth="yes"/>
      <point x="262" y="708"/>
      <point x="225" y="700"/>
      <point x="192" y="683" type="curve" smooth="yes"/>
      <point x="128" y="647"/>
      <point x="89" y="590"/>
      <point x="73" y="503" type="curve" smooth="yes"/>
      <point x="17" y="183" type="line" smooth="yes"/>
      <point x="2" y="99"/>
      <point x="26" y="42"/>
      <point x="69" y="15" type="curve" smooth="yes"/>
      <point x="113" y="-10"/>
      <point x="162" y="-10"/>
      <point x="183" y="-10" type="curve" smooth="yes"/>
      <point x="233" y="-10"/>
      <point x="289" y="1"/>
      <point x="350" y="23" type="curve"/>
      <point x="346" y="69" type="line"/>
      <point x="285" y="50"/>
      <point x="236" y="40"/>
      <point x="196" y="40" type="curve" smooth="yes"/>
      <point x="150" y="40"/>
      <point x="119" y="48"/>
      <point x="99" y="65" type="curve" smooth="yes"/>
      <point x="68" y="90"/>
      <point x="65" y="132"/>
      <point x="74" y="185" type="curve" smooth="yes"/>
      <point x="132" y="512" type="line" smooth="yes"/>
      <point x="142" y="568"/>
      <point x="165" y="607"/>
      <point x="203" y="631" type="curve" smooth="yes"/>
      <point x="231" y="649"/>
      <point x="269" y="658"/>
      <point x="313" y="658" type="curve" smooth="yes"/>
      <point x="347" y="658"/>
      <point x="381" y="651"/>
    </contour>
    <contour>
      <point x="173" y="780" type="line"/>
      <point x="205" y="741" type="line"/>
      <point x="314" y="831" type="line"/>
      <point x="388" y="743" type="line"/>
      <point x="433" y="781" type="line"/>
      <point x="327" y="906" type="line"/>
    </contour>
  </outline>
</glyph>
<glyph name="ccircumflex" format="2">
  <advance width="402"/>
  <unicode hex="0109"/>
  <outline>
    <contour>
      <point x="361" y="430" type="curve"/>
      <point x="384" y="476" type="line"/>
      <point x="332" y="503"/>
      <point x="267" y="516"/>
      <point x="208" y="504" type="curve" smooth="yes"/>
      <point x="162" y="494"/>
      <point x="118" y="470"/>
      <point x="86" y="426" type="curve"/>
      <point x="60" y="394"/>
      <point x="47" y="362"/>
      <point x="38" y="318" type="curve" smooth="yes"/>
      <point x="12" y="173" type="line" smooth="yes"/>
      <point x="-5" y="75"/>
      <point x="30" y="23"/>
      <point x="94" y="1" type="curve" smooth="yes"/>
      <point x="150" y="-18"/>
      <point x="233" y="-13"/>
      <point x="303" y="5" type="curve"/>
      <point x="301" y="55" type="line"/>
      <point x="301" y="55"/>
      <point x="174" y="26"/>
      <point x="115" y="52" type="curve" smooth="yes"/>
      <point x="66" y="71"/>
      <point x="57" y="119"/>
      <point x="69" y="185" type="curve" smooth="yes"/>
      <point x="90" y="305" type="line" smooth="yes"/>
      <point x="96" y="340"/>
      <point x="109" y="371"/>
      <point x="125" y="394" type="curve" smooth="yes"/>
      <point x="147" y="426"/>
      <point x="176" y="446"/>
      <point x="207" y="453" type="curve" smooth="yes"/>
      <point x="252" y="464"/>
      <point x="317" y="452"/>
    </contour>
    <contour>
      <point x="147" y="585" type="line"/>
      <point x="178" y="547" type="line"/>
      <point x="288" y="637" type="line"/>
      <point x="361" y="549" type="line"/>
      <point x="406" y="586" type="line"/>
      <point x="301" y="712" type="line"/>
    </contour>
  </outline>
</glyph>
<glyph name="Cdotaccent" format="2">
  <advance width="435"/>
  <unicode hex="010A"/>
  <outline>
    <contour>
      <point x="416" y="637" type="curve"/>
      <point x="440" y="675" type="line"/>
      <point x="400" y="697"/>
      <point x="354" y="708"/>
      <point x="303" y="708" type="curve" smooth="yes"/>
      <point x="262" y="708"/>
      <point x="225" y="700"/>
      <point x="192" y="683" type="curve" smooth="yes"/>
      <point x="128" y="647"/>
      <point x="89" y="590"/>
      <point x="73" y="503" type="curve" smooth="yes"/>
      <point x="17" y="183" type="line" smooth="yes"/>
      <point x="2" y="99"/>
      <point x="25" y="42"/>
      <point x="69" y="15" type="curve" smooth="yes"/>
      <point x="113" y="-10"/>
      <point x="162" y="-10"/>
      <point x="183" y="-10" type="curve" smooth="yes"/>
      <point x="233" y="-10"/>
      <point x="289" y="1"/>
      <point x="350" y="23" type="curve"/>
      <point x="346" y="69" type="line"/>
      <point x="285" y="50"/>
      <point x="235" y="40"/>
      <point x="196" y="40" type="curve" smooth="yes"/>
      <point x="150" y="40"/>
      <point x="119" y="48"/>
      <point x="99" y="65" type="curve" smooth="yes"/>
      <point x="67" y="90"/>
      <point x="64" y="132"/>
      <point x="73" y="185" type="curve" smooth="yes"/>
      <point x="131" y="512" type="line" smooth="yes"/>
      <point x="141" y="568"/>
      <point x="165" y="607"/>
      <point x="203" y="631" type="curve" smooth="yes"/>
      <point x="231" y="649"/>
      <point x="269" y="658"/>
      <point x="313" y="658" type="curve" smooth="yes"/>
      <point x="347" y="658"/>
      <point x="381" y="651"/>
    </contour>
    <contour>
      <point x="316" y="835" type="curve" smooth="yes"/>
      <point x="297" y="835"/>
      <point x="279" y="820"/>
      <point x="276" y="801" type="curve"/>
      <point x="272" y="782"/>
      <point x="285" y="768"/>
      <point x="304" y="768" type="curve" smooth="yes"/>
      <point x="323" y="768"/>
      <point x="339" y="782"/>
      <point x="343" y="801" type="curve"/>
      <point x="346" y="820"/>
      <point x="335" y="835"/>
    </contour>
  </outline>
</glyph>
<glyph name="ccaron" format="2">
  <advance width="408"/>
  <unicode hex="010D"/>
  <outline>
    <contour>
      <point x="362" y="430" type="curve"/>
      <point x="385" y="476" type="line"/>
      <point x="333" y="503"/>
      <point x="268" y="516"/>
      <point x="209" y="504" type="curve" smooth="yes"/>
      <point x="163" y="494"/>
      <point x="119" y="470"/>
      <point x="87" y="426" type="curve"/>
      <point x="61" y="394"/>
      <point x="48" y="362"/>
      <point x="39" y="318" type="curve" smooth="yes"/>
      <point x="13" y="173" type="line" smooth="yes"/>
      <point x="-4" y="75"/>
      <point x="31" y="23"/>
      <point x="95" y="1" type="curve" smooth="yes"/>
      <point x="151" y="-18"/>
      <point x="234" y="-13"/>
      <point x="304" y="5" type="curve"/>
      <point x="302" y="55" type="line"/>
      <point x="302" y="55"/>
      <point x="175" y="26"/>
      <point x="116" y="52" type="curve" smooth="yes"/>
      <point x="67" y="71"/>
      <point x="58" y="119"/>
      <point x="70" y="185" type="curve" smooth="yes"/>
      <point x="91" y="305" type="line" smooth="yes"/>
      <point x="97" y="340"/>
      <point x="110" y="371"/>
      <point x="126" y="394" type="curve" smooth="yes"/>
      <point x="148" y="426"/>
      <point x="177" y="446"/>
      <point x="208" y="453" type="curve" smooth="yes"/>
      <point x="253" y="464"/>
      <point x="318" y="452"/>
    </contour>
    <contour>
      <point x="274" y="624" type="line"/>
      <point x="199" y="712" type="line"/>
      <point x="154" y="673" type="line"/>
      <point x="260" y="548" type="line"/>
      <point x="413" y="674" type="line"/>
      <point x="382" y="713" type="line"/>
    </contour>
  </outline>
</glyph>
<glyph name="Dcaron" format="2">
  <advance width="522"/>
  <unicode hex="010E"/>
  <outline>
    <contour>
      <point x="311" y="698" type="curve" smooth="yes"/>
      <point x="123" y="698" type="line"/>
      <point x="0" y="0" type="line"/>
      <point x="208" y="0" type="line" smooth="yes"/>
      <point x="349" y="0"/>
      <point x="430" y="67"/>
      <point x="454" y="199" type="curve" smooth="yes"/>
      <point x="502" y="473" type="line" smooth="yes"/>
      <point x="526" y="609"/>
      <point x="461" y="698"/>
    </contour>
    <contour>
      <point x="199" y="50" type="curve" smooth="yes"/>
      <point x="64" y="50" type="line"/>
      <point x="170" y="648" type="line"/>
      <point x="312" y="648" type="line" smooth="yes"/>
      <point x="428" y="648"/>
      <point x="464" y="574"/>
      <point x="449" y="488" type="curve" smooth="yes"/>
      <point x="396" y="189" type="line" smooth="yes"/>
      <point x="380" y="97"/>
      <point x="314" y="50"/>
    </contour>
    <contour>
      <point x="319" y="818" type="line"/>
      <point x="244" y="906" type="line"/>
      <point x="199" y="869" type="line"/>
      <point x="306" y="743" type="line"/>
      <point x="459" y="870" type="line"/>
      <point x="427" y="909" type="line"/>
    </contour>
  </outline>
</glyph>
<glyph name="dcaron" format="2">
  <advance width="581"/>
  <unicode hex="010F"/>
  <outline>
    <contour>
      <point x="372" y="0" type="curve"/>
      <point x="495" y="698" type="line"/>
      <point x="439" y="698" type="line"/>
      <point x="399" y="471" type="line"/>
      <point x="357" y="491"/>
      <point x="308" y="508"/>
      <point x="243" y="508" type="curve" smooth="yes"/>
      <point x="163" y="508"/>
      <point x="70" y="470"/>
      <point x="51" y="358" type="curve" smooth="yes"/>
      <point x="40" y="295"/>
      <point x="28" y="231"/>
      <point x="17" y="168" type="curve" smooth="yes"/>
      <point x="-9" y="21"/>
      <point x="83" y="-14"/>
      <point x="213" y="-10" type="curve" smooth="yes"/>
      <point x="262" y="-9"/>
      <point x="372" y="0"/>
    </contour>
    <contour>
      <point x="390" y="422" type="curve"/>
      <point x="368" y="297"/>
      <point x="346" y="172"/>
      <point x="324" y="46" type="curve"/>
      <point x="324" y="46"/>
      <point x="282" y="42"/>
      <point x="217" y="38" type="curve" smooth="yes"/>
      <point x="82" y="33"/>
      <point x="57" y="80"/>
      <point x="73" y="175" type="curve" smooth="yes"/>
      <point x="77" y="195"/>
      <point x="101" y="332"/>
      <point x="105" y="354" type="curve" smooth="yes"/>
      <point x="121" y="446"/>
      <point x="194" y="461"/>
      <point x="231" y="461" type="curve" smooth="yes"/>
      <point x="295" y="461"/>
      <point x="340" y="444"/>
    </contour>
    <contour>
      <point x="506" y="543" type="curve"/>
      <point x="521" y="531" type="line"/>
      <point x="544" y="549"/>
      <point x="584" y="588"/>
      <point x="595" y="651" type="curve" smooth="yes"/>
      <point x="599" y="671"/>
      <point x="586" y="684"/>
      <point x="567" y="684" type="curve" smooth="yes"/>
      <point x="549" y="684"/>
      <point x="532" y="670"/>
      <point x="528" y="651" type="curve" smooth="yes"/>
      <point x="525" y="635"/>
      <point x="535" y="621"/>
      <point x="549" y="618" type="curve"/>
      <point x="544" y="597"/>
      <point x="531" y="570"/>
    </contour>
  </outline>
</glyph>
<glyph name="dslash" format="2">
  <advance width="519"/>
  <unicode hex="0111"/>
  <outline>
    <contour>
      <point x="372" y="0" type="curve"/>
      <point x="471" y="562" type="line"/>
      <point x="518" y="562" type="line"/>
      <point x="527" y="615" type="line"/>
      <point x="480" y="615" type="line"/>
      <point x="495" y="698" type="line"/>
      <point x="439" y="698" type="line"/>
      <point x="424" y="615" type="line"/>
      <point x="291" y="615" type="line"/>
      <point x="282" y="562" type="line"/>
      <point x="415" y="562" type="line"/>
      <point x="399" y="471" type="line"/>
      <point x="357" y="491"/>
      <point x="308" y="508"/>
      <point x="243" y="508" type="curve" smooth="yes"/>
      <point x="163" y="508"/>
      <point x="70" y="470"/>
      <point x="51" y="358" type="curve" smooth="yes"/>
      <point x="17" y="168" type="line" smooth="yes"/>
      <point x="-9" y="21"/>
      <point x="83" y="-14"/>
      <point x="213" y="-10" type="curve" smooth="yes"/>
      <point x="262" y="-9"/>
      <point x="372" y="0"/>
    </contour>
    <contour>
      <point x="390" y="422" type="curve"/>
      <point x="324" y="46" type="line"/>
      <point x="324" y="46"/>
      <point x="282" y="42"/>
      <point x="217" y="38" type="curve" smooth="yes"/>
      <point x="82" y="33"/>
      <point x="57" y="80"/>
      <point x="73" y="175" type="curve" smooth="yes"/>
      <point x="105" y="354" type="line" smooth="yes"/>
      <point x="121" y="446"/>
      <point x="194" y="461"/>
      <point x="231" y="461" type="curve" smooth="yes"/>
      <point x="295" y="461"/>
      <point x="340" y="444"/>
    </contour>
  </outline>
</glyph>
<glyph name="Emacron" format="2">
  <advance width="443"/>
  <unicode hex="0112"/>
  <outline>
    <contour>
      <point x="0" y="0" type="line"/>
      <point x="331" y="0" type="line"/>
      <point x="339" y="50" type="line"/>
      <point x="64" y="50" type="line"/>
      <point x="118" y="356" type="line"/>
      <point x="290" y="356" type="line"/>
      <point x="318" y="411" type="line"/>
      <point x="128" y="411" type="line"/>
      <point x="169" y="646" type="line"/>
      <point x="446" y="646" type="line"/>
      <point x="456" y="698" type="line"/>
      <point x="123" y="698" type="line"/>
    </contour>
    <contour>
      <point x="188" y="744" type="line"/>
      <point x="408" y="744" type="line"/>
      <point x="418" y="801" type="line"/>
      <point x="198" y="801" type="line"/>
    </contour>
  </outline>
</glyph>
<glyph name="emacron" format="2">
  <advance width="423"/>
  <unicode hex="0113"/>
  <outline>
    <contour>
      <point x="63" y="133" type="curve" smooth="yes"/>
      <point x="74" y="195" type="line"/>
      <point x="381" y="211" type="line"/>
      <point x="404" y="341" type="line" smooth="yes"/>
      <point x="413" y="392"/>
      <point x="405" y="432"/>
      <point x="382" y="461" type="curve" smooth="yes"/>
      <point x="356" y="492"/>
      <point x="314" y="508"/>
      <point x="257" y="508" type="curve" smooth="yes"/>
      <point x="207" y="508"/>
      <point x="164" y="496"/>
      <point x="129" y="473" type="curve" smooth="yes"/>
      <point x="85" y="444"/>
      <point x="54" y="398"/>
      <point x="43" y="338" type="curve" smooth="yes"/>
      <point x="7" y="133" type="line" smooth="yes"/>
      <point x="-2" y="80"/>
      <point x="9" y="46"/>
      <point x="29" y="24" type="curve" smooth="yes"/>
      <point x="63" y="-13"/>
      <point x="123" y="-12"/>
      <point x="153" y="-12" type="curve" smooth="yes"/>
      <point x="205" y="-11"/>
      <point x="268" y="4"/>
      <point x="325" y="35" type="curve"/>
      <point x="310" y="78" type="line"/>
      <point x="254" y="51"/>
      <point x="206" y="36"/>
      <point x="158" y="36" type="curve" smooth="yes"/>
      <point x="138" y="36"/>
      <point x="97" y="36"/>
      <point x="77" y="63" type="curve"/>
      <point x="63" y="77"/>
      <point x="57" y="99"/>
    </contour>
    <contour>
      <point x="349" y="348" type="curve" smooth="yes"/>
      <point x="344" y="319"/>
      <point x="338" y="289"/>
      <point x="334" y="261" type="curve"/>
      <point x="84" y="250" type="line"/>
      <point x="89" y="278"/>
      <point x="94" y="308"/>
      <point x="99" y="337" type="curve" smooth="yes"/>
      <point x="106" y="378"/>
      <point x="123" y="408"/>
      <point x="150" y="429" type="curve" smooth="yes"/>
      <point x="177" y="450"/>
      <point x="210" y="461"/>
      <point x="248" y="461" type="curve" smooth="yes"/>
      <point x="281" y="461"/>
      <point x="314" y="454"/>
      <point x="338" y="418" type="curve" smooth="yes"/>
      <point x="350" y="399"/>
      <point x="354" y="377"/>
    </contour>
    <contour>
      <point x="150" y="548" type="line"/>
      <point x="371" y="548" type="line"/>
      <point x="381" y="605" type="line"/>
      <point x="160" y="605" type="line"/>
    </contour>
  </outline>
</glyph>
<glyph name="Edotaccent" format="2">
  <advance width="443"/>
  <unicode hex="0116"/>
  <outline>
    <contour>
      <point x="0" y="0" type="line"/>
      <point x="331" y="0" type="line"/>
      <point x="339" y="50" type="line"/>
      <point x="64" y="50" type="line"/>
      <point x="118" y="356" type="line"/>
      <point x="290" y="356" type="line"/>
      <point x="318" y="411" type="line"/>
      <point x="128" y="411" type="line"/>
      <point x="169" y="646" type="line"/>
      <point x="446" y="646" type="line"/>
      <point x="456" y="698" type="line"/>
      <point x="123" y="698" type="line"/>
    </contour>
    <contour>
      <point x="325" y="836" type="curve" smooth="yes"/>
      <point x="306" y="836"/>
      <point x="289" y="821"/>
      <point x="286" y="802" type="curve" smooth="yes"/>
      <point x="283" y="784"/>
      <point x="294" y="769"/>
      <point x="313" y="769" type="curve" smooth="yes"/>
      <point x="332" y="769"/>
      <point x="350" y="784"/>
      <point x="353" y="802" type="curve" smooth="yes"/>
      <point x="356" y="821"/>
      <point x="344" y="836"/>
    </contour>
  </outline>
</glyph>
<glyph name="Eogonek" format="2">
  <advance width="445"/>
  <unicode hex="0118"/>
  <outline>
    <contour>
      <point x="0" y="0" type="line"/>
      <point x="331" y="0" type="line"/>
      <point x="339" y="50" type="line"/>
      <point x="64" y="50" type="line"/>
      <point x="118" y="356" type="line"/>
      <point x="290" y="356" type="line"/>
      <point x="318" y="411" type="line"/>
      <point x="128" y="411" type="line"/>
      <point x="169" y="646" type="line"/>
      <point x="446" y="646" type="line"/>
      <point x="456" y="698" type="line"/>
      <point x="123" y="698" type="line"/>
    </contour>
    <contour>
      <point x="229" y="-125" type="curve" smooth="yes"/>
      <point x="321" y="-1" type="line"/>
      <point x="323" y="8" type="line"/>
      <point x="278" y="4" type="line"/>
      <point x="278" y="0" type="line"/>
      <point x="196" y="-111" type="line" smooth="yes"/>
      <point x="141" y="-184"/>
      <point x="178" y="-254"/>
      <point x="270" y="-229" type="curve" smooth="yes"/>
      <point x="290" y="-223"/>
      <point x="379" y="-194"/>
      <point x="381" y="-193" type="curve"/>
      <point x="371" y="-153" type="line"/>
      <point x="371" y="-153"/>
      <point x="325" y="-167"/>
      <point x="268" y="-186" type="curve" smooth="yes"/>
      <point x="216" y="-204"/>
      <point x="195" y="-172"/>
    </contour>
  </outline>
</glyph>
<glyph name="eogonek" format="2">
  <advance width="422"/>
  <unicode hex="0119"/>
  <outline>
    <contour>
      <point x="64" y="133" type="curve" smooth="yes"/>
      <point x="75" y="195" type="line"/>
      <point x="382" y="211" type="line"/>
      <point x="405" y="341" type="line" smooth="yes"/>
      <point x="414" y="392"/>
      <point x="406" y="432"/>
      <point x="383" y="461" type="curve" smooth="yes"/>
      <point x="357" y="492"/>
      <point x="315" y="508"/>
      <point x="258" y="508" type="curve" smooth="yes"/>
      <point x="208" y="508"/>
      <point x="165" y="496"/>
      <point x="130" y="473" type="curve" smooth="yes"/>
      <point x="86" y="444"/>
      <point x="55" y="398"/>
      <point x="44" y="338" type="curve" smooth="yes"/>
      <point x="8" y="133" type="line" smooth="yes"/>
      <point x="-1" y="80"/>
      <point x="10" y="46"/>
      <point x="30" y="24" type="curve" smooth="yes"/>
      <point x="64" y="-13"/>
      <point x="124" y="-12"/>
      <point x="154" y="-12" type="curve" smooth="yes"/>
      <point x="205" y="-11"/>
      <point x="269" y="4"/>
      <point x="326" y="35" type="curve"/>
      <point x="311" y="78" type="line"/>
      <point x="255" y="51"/>
      <point x="207" y="36"/>
      <point x="158" y="36" type="curve" smooth="yes"/>
      <point x="139" y="36"/>
      <point x="98" y="36"/>
      <point x="78" y="63" type="curve"/>
      <point x="64" y="77"/>
      <point x="58" y="99"/>
    </contour>
    <contour>
      <point x="350" y="348" type="curve" smooth="yes"/>
      <point x="345" y="319"/>
      <point x="339" y="289"/>
      <point x="335" y="261" type="curve"/>
      <point x="85" y="250" type="line"/>
      <point x="90" y="278"/>
      <point x="95" y="308"/>
      <point x="100" y="337" type="curve" smooth="yes"/>
      <point x="107" y="378"/>
      <point x="124" y="408"/>
      <point x="150" y="429" type="curve" smooth="yes"/>
      <point x="178" y="450"/>
      <point x="211" y="461"/>
      <point x="249" y="461" type="curve" smooth="yes"/>
      <point x="282" y="461"/>
      <point x="315" y="454"/>
      <point x="339" y="418" type="curve" smooth="yes"/>
      <point x="351" y="399"/>
      <point x="355" y="377"/>
    </contour>
    <contour>
      <point x="89" y="-139" type="curve" smooth="yes"/>
      <point x="181" y="-14" type="line"/>
      <point x="182" y="-6" type="line"/>
      <point x="138" y="-9" type="line"/>
      <point x="137" y="-14" type="line"/>
      <point x="55" y="-124" type="line" smooth="yes"/>
      <point x="1" y="-197"/>
      <point x="36" y="-267"/>
      <point x="130" y="-242" type="curve" smooth="yes"/>
      <point x="150" y="-237"/>
      <point x="239" y="-207"/>
      <point x="241" y="-207" type="curve"/>
      <point x="229" y="-166" type="line"/>
      <point x="229" y="-166"/>
      <point x="184" y="-182"/>
      <point x="126" y="-200" type="curve" smooth="yes"/>
      <point x="75" y="-217"/>
      <point x="55" y="-186"/>
    </contour>
  </outline>
</glyph>
<glyph name="Ecaron" format="2">
  <advance width="443"/>
  <unicode hex="011A"/>
  <outline>
    <contour>
      <point x="0" y="0" type="line"/>
      <point x="331" y="0" type="line"/>
      <point x="339" y="50" type="line"/>
      <point x="64" y="50" type="line"/>
      <point x="118" y="356" type="line"/>
      <point x="290" y="356" type="line"/>
      <point x="318" y="411" type="line"/>
      <point x="128" y="411" type="line"/>
      <point x="169" y="646" type="line"/>
      <point x="446" y="646" type="line"/>
      <point x="456" y="698" type="line"/>
      <point x="123" y="698" type="line"/>
    </contour>
    <contour>
      <point x="306" y="822" type="line"/>
      <point x="233" y="910" type="line"/>
      <point x="187" y="871" type="line"/>
      <point x="293" y="746" type="line"/>
      <point x="447" y="872" type="line"/>
      <point x="415" y="911" type="line"/>
    </contour>
  </outline>
</glyph>
<glyph name="Gcircumflex" format="2">
  <advance width="468"/>
  <unicode hex="011C"/>
  <outline>
    <contour>
      <point x="413" y="636" type="curve"/>
      <point x="436" y="674" type="line"/>
      <point x="397" y="696"/>
      <point x="351" y="707"/>
      <point x="300" y="707" type="curve" smooth="yes"/>
      <point x="259" y="707"/>
      <point x="222" y="698"/>
      <point x="189" y="682" type="curve"/>
      <point x="126" y="647"/>
      <point x="85" y="586"/>
      <point x="70" y="502" type="curve" smooth="yes"/>
      <point x="15" y="188" type="line" smooth="yes"/>
      <point x="3" y="122"/>
      <point x="14" y="73"/>
      <point x="51" y="40" type="curve" smooth="yes"/>
      <point x="86" y="7"/>
      <point x="133" y="-10"/>
      <point x="193" y="-10" type="curve" smooth="yes"/>
      <point x="254" y="-10"/>
      <point x="303" y="7"/>
      <point x="345" y="41" type="curve"/>
      <point x="352" y="0" type="line"/>
      <point x="393" y="0" type="line"/>
      <point x="445" y="299" type="line"/>
      <point x="243" y="299" type="line"/>
      <point x="254" y="244" type="line"/>
      <point x="383" y="244" type="line"/>
      <point x="372" y="186" type="line" smooth="yes"/>
      <point x="365" y="143"/>
      <point x="345" y="109"/>
      <point x="314" y="84" type="curve"/>
      <point x="285" y="58"/>
      <point x="245" y="44"/>
      <point x="200" y="44" type="curve" smooth="yes"/>
      <point x="110" y="44"/>
      <point x="55" y="98"/>
      <point x="70" y="186" type="curve" smooth="yes"/>
      <point x="127" y="510" type="line" smooth="yes"/>
      <point x="137" y="562"/>
      <point x="158" y="599"/>
      <point x="191" y="624" type="curve" smooth="yes"/>
      <point x="221" y="646"/>
      <point x="260" y="657"/>
      <point x="310" y="657" type="curve" smooth="yes"/>
      <point x="343" y="657"/>
      <point x="378" y="650"/>
    </contour>
    <contour>
      <point x="195" y="779" type="line"/>
      <point x="227" y="740" type="line"/>
      <point x="335" y="831" type="line"/>
      <point x="409" y="743" type="line"/>
      <point x="455" y="780" type="line"/>
      <point x="348" y="906" type="line"/>
    </contour>
  </outline>
</glyph>
<glyph name="gcircumflex" format="2">
  <advance width="449"/>
  <unicode hex="011D"/>
  <outline>
    <contour>
      <point x="344" y="-64" type="curve" smooth="yes"/>
      <point x="443" y="498" type="line"/>
      <point x="386" y="498" type="line"/>
      <point x="378" y="451" type="line"/>
      <point x="341" y="487"/>
      <point x="294" y="506"/>
      <point x="246" y="508" type="curve" smooth="yes"/>
      <point x="137" y="513"/>
      <point x="65" y="450"/>
      <point x="46" y="345" type="curve" smooth="yes"/>
      <point x="16" y="175" type="line" smooth="yes"/>
      <point x="-5" y="53"/>
      <point x="43" y="-12"/>
      <point x="154" y="-12" type="curve" smooth="yes"/>
      <point x="214" y="-12"/>
      <point x="278" y="20"/>
      <point x="309" y="61" type="curve"/>
      <point x="287" y="-63" type="line" smooth="yes"/>
      <point x="278" y="-116"/>
      <point x="248" y="-150"/>
      <point x="201" y="-167" type="curve"/>
      <point x="210" y="-210" type="line"/>
      <point x="291" y="-186"/>
      <point x="330" y="-144"/>
    </contour>
    <contour>
      <point x="368" y="392" type="curve"/>
      <point x="329" y="173" type="line" smooth="yes"/>
      <point x="314" y="88"/>
      <point x="244" y="40"/>
      <point x="167" y="40" type="curve" smooth="yes"/>
      <point x="91" y="40"/>
      <point x="57" y="82"/>
      <point x="72" y="166" type="curve" smooth="yes"/>
      <point x="103" y="342" type="line" smooth="yes"/>
      <point x="119" y="432"/>
      <point x="186" y="463"/>
      <point x="249" y="458" type="curve" smooth="yes"/>
      <point x="293" y="454"/>
      <point x="345" y="433"/>
    </contour>
    <contour>
      <point x="152" y="586" type="line"/>
      <point x="183" y="548" type="line"/>
      <point x="293" y="637" type="line"/>
      <point x="366" y="549" type="line"/>
      <point x="411" y="587" type="line"/>
      <point x="306" y="713" type="line"/>
    </contour>
  </outline>
</glyph>
<glyph name="gbreve" format="2">
  <advance width="448"/>
  <unicode hex="011F"/>
  <outline>
    <contour>
      <point x="343" y="-64" type="curve" smooth="yes"/>
      <point x="442" y="498" type="line"/>
      <point x="385" y="498" type="line"/>
      <point x="377" y="451" type="line"/>
      <point x="340" y="487"/>
      <point x="293" y="506"/>
      <point x="245" y="508" type="curve" smooth="yes"/>
      <point x="136" y="513"/>
      <point x="64" y="450"/>
      <point x="45" y="344" type="curve" smooth="yes"/>
      <point x="15" y="175" type="line" smooth="yes"/>
      <point x="-6" y="53"/>
      <point x="42" y="-12"/>
      <point x="153" y="-12" type="curve" smooth="yes"/>
      <point x="213" y="-12"/>
      <point x="277" y="20"/>
      <point x="308" y="61" type="curve"/>
      <point x="286" y="-63" type="line" smooth="yes"/>
      <point x="277" y="-116"/>
      <point x="247" y="-150"/>
      <point x="200" y="-167" type="curve"/>
      <point x="209" y="-210" type="line"/>
      <point x="290" y="-186"/>
      <point x="329" y="-144"/>
    </contour>
    <contour>
      <point x="367" y="392" type="curve"/>
      <point x="328" y="173" type="line" smooth="yes"/>
      <point x="313" y="88"/>
      <point x="243" y="40"/>
      <point x="166" y="40" type="curve" smooth="yes"/>
      <point x="90" y="40"/>
      <point x="56" y="82"/>
      <point x="71" y="166" type="curve" smooth="yes"/>
      <point x="102" y="342" type="line" smooth="yes"/>
      <point x="118" y="432"/>
      <point x="185" y="463"/>
      <point x="248" y="458" type="curve" smooth="yes"/>
      <point x="292" y="454"/>
      <point x="344" y="433"/>
    </contour>
    <contour>
      <point x="399" y="661" type="curve" smooth="yes"/>
      <point x="400" y="668" type="line"/>
      <point x="355" y="668" type="line"/>
      <point x="354" y="661" type="line" smooth="yes"/>
      <point x="348" y="624"/>
      <point x="313" y="593"/>
      <point x="275" y="593" type="curve" smooth="yes"/>
      <point x="237" y="593"/>
      <point x="213" y="624"/>
      <point x="219" y="661" type="curve" smooth="yes"/>
      <point x="220" y="668" type="line"/>
      <point x="174" y="668" type="line"/>
      <point x="173" y="661" type="line" smooth="yes"/>
      <point x="162" y="598"/>
      <point x="203" y="548"/>
      <point x="266" y="548" type="curve" smooth="yes"/>
      <point x="329" y="548"/>
      <point x="388" y="598"/>
    </contour>
  </outline>
</glyph>
<glyph name="gdotaccent" format="2">
  <advance width="449"/>
  <unicode hex="0121"/>
  <outline>
    <contour>
      <point x="344" y="-64" type="curve" smooth="yes"/>
      <point x="443" y="498" type="line"/>
      <point x="385" y="498" type="line"/>
      <point x="377" y="451" type="line"/>
      <point x="341" y="487"/>
      <point x="294" y="506"/>
      <point x="246" y="508" type="curve" smooth="yes"/>
      <point x="137" y="513"/>
      <point x="65" y="450"/>
      <point x="46" y="345" type="curve" smooth="yes"/>
      <point x="16" y="175" type="line" smooth="yes"/>
      <point x="-5" y="53"/>
      <point x="42" y="-12"/>
      <point x="154" y="-12" type="curve" smooth="yes"/>
      <point x="214" y="-12"/>
      <point x="278" y="20"/>
      <point x="308" y="61" type="curve"/>
      <point x="286" y="-63" type="line" smooth="yes"/>
      <point x="277" y="-116"/>
      <point x="248" y="-150"/>
      <point x="201" y="-167" type="curve"/>
      <point x="210" y="-210" type="line"/>
      <point x="291" y="-186"/>
      <point x="330" y="-144"/>
    </contour>
    <contour>
      <point x="367" y="392" type="curve"/>
      <point x="328" y="173" type="line" smooth="yes"/>
      <point x="313" y="88"/>
      <point x="244" y="40"/>
      <point x="167" y="40" type="curve" smooth="yes"/>
      <point x="91" y="40"/>
      <point x="57" y="82"/>
      <point x="72" y="166" type="curve" smooth="yes"/>
      <point x="103" y="342" type="line" smooth="yes"/>
      <point x="119" y="432"/>
      <point x="186" y="463"/>
      <point x="249" y="458" type="curve" smooth="yes"/>
      <point x="293" y="454"/>
      <point x="345" y="433"/>
    </contour>
    <contour>
      <point x="283" y="638" type="curve" smooth="yes"/>
      <point x="264" y="638"/>
      <point x="246" y="623"/>
      <point x="243" y="604" type="curve" smooth="yes"/>
      <point x="240" y="585"/>
      <point x="252" y="571"/>
      <point x="271" y="571" type="curve" smooth="yes"/>
      <point x="290" y="571"/>
      <point x="307" y="585"/>
      <point x="310" y="604" type="curve" smooth="yes"/>
      <point x="313" y="623"/>
      <point x="302" y="638"/>
    </contour>
  </outline>
</glyph>
<glyph name="Gcommaaccent" format="2">
  <advance width="463"/>
  <unicode hex="0122"/>
  <outline>
    <contour>
      <point x="413" y="636" type="curve"/>
      <point x="436" y="674" type="line"/>
      <point x="397" y="696"/>
      <point x="351" y="707"/>
      <point x="300" y="707" type="curve" smooth="yes"/>
      <point x="259" y="707"/>
      <point x="222" y="698"/>
      <point x="189" y="682" type="curve"/>
      <point x="126" y="647"/>
      <point x="85" y="586"/>
      <point x="70" y="502" type="curve" smooth="yes"/>
      <point x="15" y="188" type="line" smooth="yes"/>
      <point x="3" y="122"/>
      <point x="14" y="73"/>
      <point x="51" y="40" type="curve" smooth="yes"/>
      <point x="86" y="7"/>
      <point x="133" y="-10"/>
      <point x="193" y="-10" type="curve" smooth="yes"/>
      <point x="254" y="-10"/>
      <point x="303" y="7"/>
      <point x="345" y="41" type="curve"/>
      <point x="352" y="0" type="line"/>
      <point x="393" y="0" type="line"/>
      <point x="445" y="299" type="line"/>
      <point x="243" y="299" type="line"/>
      <point x="254" y="244" type="line"/>
      <point x="383" y="244" type="line"/>
      <point x="372" y="186" type="line" smooth="yes"/>
      <point x="365" y="143"/>
      <point x="345" y="109"/>
      <point x="314" y="84" type="curve"/>
      <point x="285" y="58"/>
      <point x="245" y="44"/>
      <point x="200" y="44" type="curve" smooth="yes"/>
      <point x="110" y="44"/>
      <point x="55" y="98"/>
      <point x="70" y="186" type="curve" smooth="yes"/>
      <point x="127" y="510" type="line" smooth="yes"/>
      <point x="137" y="562"/>
      <point x="158" y="599"/>
      <point x="191" y="624" type="curve" smooth="yes"/>
      <point x="221" y="646"/>
      <point x="260" y="657"/>
      <point x="310" y="657" type="curve" smooth="yes"/>
      <point x="343" y="657"/>
      <point x="378" y="650"/>
    </contour>
    <contour>
      <point x="117" y="-198" type="curve"/>
      <point x="131" y="-210" type="line"/>
      <point x="155" y="-191"/>
      <point x="195" y="-153"/>
      <point x="206" y="-90" type="curve" smooth="yes"/>
      <point x="209" y="-70"/>
      <point x="197" y="-56"/>
      <point x="179" y="-56" type="curve" smooth="yes"/>
      <point x="161" y="-56"/>
      <point x="142" y="-72"/>
      <point x="139" y="-90" type="curve" smooth="yes"/>
      <point x="136" y="-107"/>
      <point x="145" y="-120"/>
      <point x="162" y="-123" type="curve"/>
      <point x="156" y="-144"/>
      <point x="143" y="-172"/>
    </contour>
  </outline>
</glyph>
<glyph name="gcommaaccent" format="2">
  <advance width="448"/>
  <unicode hex="0123"/>
  <outline>
    <contour>
      <point x="344" y="-64" type="curve" smooth="yes"/>
      <point x="443" y="498" type="line"/>
      <point x="385" y="498" type="line"/>
      <point x="377" y="451" type="line"/>
      <point x="341" y="487"/>
      <point x="294" y="506"/>
      <point x="246" y="508" type="curve" smooth="yes"/>
      <point x="137" y="513"/>
      <point x="65" y="450"/>
      <point x="46" y="345" type="curve" smooth="yes"/>
      <point x="16" y="175" type="line" smooth="yes"/>
      <point x="-5" y="53"/>
      <point x="42" y="-12"/>
      <point x="154" y="-12" type="curve" smooth="yes"/>
      <point x="214" y="-12"/>
      <point x="278" y="20"/>
      <point x="308" y="61" type="curve"/>
      <point x="286" y="-63" type="line" smooth="yes"/>
      <point x="277" y="-116"/>
      <point x="248" y="-150"/>
      <point x="201" y="-167" type="curve"/>
      <point x="210" y="-210" type="line"/>
      <point x="291" y="-186"/>
      <point x="330" y="-144"/>
    </contour>
    <contour>
      <point x="367" y="392" type="curve"/>
      <point x="328" y="173" type="line" smooth="yes"/>
      <point x="313" y="88"/>
      <point x="244" y="40"/>
      <point x="167" y="40" type="curve" smooth="yes"/>
      <point x="91" y="40"/>
      <point x="57" y="82"/>
      <point x="72" y="166" type="curve" smooth="yes"/>
      <point x="103" y="342" type="line" smooth="yes"/>
      <point x="119" y="432"/>
      <point x="186" y="463"/>
      <point x="249" y="458" type="curve" smooth="yes"/>
      <point x="293" y="454"/>
      <point x="345" y="433"/>
    </contour>
    <contour>
      <point x="334" y="716" type="curve"/>
      <point x="319" y="728" type="line"/>
      <point x="296" y="711"/>
      <point x="257" y="671"/>
      <point x="245" y="608" type="curve" smooth="yes"/>
      <point x="242" y="588"/>
      <point x="254" y="575"/>
      <point x="273" y="575" type="curve" smooth="yes"/>
      <point x="292" y="575"/>
      <point x="309" y="590"/>
      <point x="312" y="608" type="curve" smooth="yes"/>
      <point x="315" y="625"/>
      <point x="305" y="638"/>
      <point x="291" y="641" type="curve"/>
      <point x="296" y="662"/>
      <point x="308" y="690"/>
    </contour>
  </outline>
</glyph>
<glyph name="Hcircumflex" format="2">
  <advance width="549"/>
  <unicode hex="0124"/>
  <outline>
    <contour>
      <point x="445" y="411" type="line"/>
      <point x="128" y="411" type="line"/>
      <point x="179" y="698" type="line"/>
      <point x="123" y="698" type="line"/>
      <point x="0" y="0" type="line"/>
      <point x="56" y="0" type="line"/>
      <point x="118" y="356" type="line"/>
      <point x="435" y="356" type="line"/>
      <point x="373" y="0" type="line"/>
      <point x="429" y="0" type="line"/>
      <point x="552" y="698" type="line"/>
      <point x="496" y="698" type="line"/>
    </contour>
    <contour>
      <point x="221" y="778" type="line"/>
      <point x="252" y="740" type="line"/>
      <point x="362" y="829" type="line"/>
      <point x="435" y="741" type="line"/>
      <point x="480" y="780" type="line"/>
      <point x="375" y="905" type="line"/>
    </contour>
  </outline>
</glyph>
<glyph name="hcircumflex" format="2">
  <advance width="455"/>
  <unicode hex="0125"/>
  <outline>
    <contour>
      <point x="137" y="465" type="curve"/>
      <point x="179" y="698" type="line"/>
      <point x="123" y="698" type="line"/>
      <point x="0" y="0" type="line"/>
      <point x="56" y="0" type="line"/>
      <point x="130" y="424" type="line"/>
      <point x="175" y="447"/>
      <point x="218" y="458"/>
      <point x="264" y="458" type="curve" smooth="yes"/>
      <point x="327" y="458"/>
      <point x="389" y="432"/>
      <point x="373" y="342" type="curve" smooth="yes"/>
      <point x="313" y="0" type="line"/>
      <point x="368" y="0" type="line"/>
      <point x="428" y="345" type="line" smooth="yes"/>
      <point x="447" y="450"/>
      <point x="394" y="508"/>
      <point x="284" y="508" type="curve" smooth="yes"/>
      <point x="234" y="508"/>
      <point x="181" y="492"/>
    </contour>
    <contour>
      <point x="186" y="745" type="line"/>
      <point x="217" y="707" type="line"/>
      <point x="326" y="796" type="line"/>
      <point x="400" y="708" type="line"/>
      <point x="445" y="747" type="line"/>
      <point x="339" y="872" type="line"/>
    </contour>
  </outline>
</glyph>
<glyph name="Hbar" format="2">
  <advance width="578"/>
  <unicode hex="0126"/>
  <outline>
    <contour>
      <point x="127" y="356" type="line"/>
      <point x="444" y="356" type="line"/>
      <point x="382" y="0" type="line"/>
      <point x="438" y="0" type="line"/>
      <point x="525" y="498" type="line"/>
      <point x="571" y="498" type="line"/>
      <point x="581" y="552" type="line"/>
      <point x="535" y="552" type="line"/>
      <point x="561" y="698" type="line"/>
      <point x="505" y="698" type="line"/>
      <point x="479" y="552" type="line"/>
      <point x="162" y="552" type="line"/>
      <point x="188" y="698" type="line"/>
      <point x="132" y="698" type="line"/>
      <point x="106" y="552" type="line"/>
      <point x="57" y="552" type="line"/>
      <point x="47" y="498" type="line"/>
      <point x="96" y="498" type="line"/>
      <point x="9" y="0" type="line"/>
      <point x="65" y="0" type="line"/>
    </contour>
    <contour>
      <point x="469" y="498" type="line"/>
      <point x="454" y="411" type="line"/>
      <point x="137" y="411" type="line"/>
      <point x="152" y="498" type="line"/>
    </contour>
  </outline>
</glyph>
<glyph name="Itilde" format="2">
  <advance width="269"/>
  <unicode hex="0128"/>
  <outline>
    <contour>
      <point x="59" y="649" type="line"/>
      <point x="126" y="647" type="line"/>
      <point x="12" y="0" type="line"/>
      <point x="68" y="0" type="line"/>
      <point x="191" y="698" type="line"/>
      <point x="68" y="698" type="line"/>
    </contour>
    <contour>
      <point x="303" y="771" type="curve"/>
      <point x="291" y="818" type="line"/>
      <point x="275" y="809"/>
      <point x="254" y="799"/>
      <point x="236" y="800" type="curve"/>
      <point x="221" y="799"/>
      <point x="179" y="824"/>
      <point x="131" y="825" type="curve" smooth="yes"/>
      <point x="105" y="825"/>
      <point x="75" y="817"/>
      <point x="47" y="793" type="curve"/>
      <point x="62" y="746" type="line"/>
      <point x="78" y="758"/>
      <point x="91" y="766"/>
      <point x="111" y="767" type="curve" smooth="yes"/>
      <point x="142" y="768"/>
      <point x="181" y="741"/>
      <point x="226" y="741" type="curve" smooth="yes"/>
      <point x="250" y="741"/>
      <point x="276" y="749"/>
    </contour>
  </outline>
</glyph>
<glyph name="itilde" format="2">
  <advance width="270"/>
  <unicode hex="0129"/>
  <outline>
    <contour>
      <point x="23" y="0" type="line"/>
      <point x="79" y="0" type="line"/>
      <point x="166" y="499" type="line"/>
      <point x="110" y="499" type="line"/>
    </contour>
    <contour>
      <point x="282" y="573" type="curve"/>
      <point x="269" y="620" type="line"/>
      <point x="254" y="609"/>
      <point x="231" y="601"/>
      <point x="213" y="601" type="curve" smooth="yes"/>
      <point x="199" y="601"/>
      <point x="158" y="626"/>
      <point x="110" y="626" type="curve" smooth="yes"/>
      <point x="82" y="626"/>
      <point x="53" y="618"/>
      <point x="26" y="594" type="curve"/>
      <point x="40" y="548" type="line"/>
      <point x="57" y="559"/>
      <point x="69" y="566"/>
      <point x="90" y="568" type="curve" smooth="yes"/>
      <point x="120" y="570"/>
      <point x="158" y="543"/>
      <point x="205" y="543" type="curve" smooth="yes"/>
      <point x="229" y="543"/>
      <point x="255" y="551"/>
    </contour>
  </outline>
</glyph>
<glyph name="Imacron" format="2">
  <advance width="259"/>
  <unicode hex="012A"/>
  <outline>
    <contour>
      <point x="58" y="649" type="line"/>
      <point x="125" y="647" type="line"/>
      <point x="11" y="0" type="line"/>
      <point x="67" y="0" type="line"/>
      <point x="190" y="698" type="line"/>
      <point x="67" y="698" type="line"/>
    </contour>
    <contour>
      <point x="59" y="740" type="line"/>
      <point x="279" y="740" type="line"/>
      <point x="289" y="799" type="line"/>
      <point x="69" y="799" type="line"/>
    </contour>
  </outline>
</glyph>
<glyph name="imacron" format="2">
  <advance width="252"/>
  <unicode hex="012B"/>
  <outline>
    <contour>
      <point x="19" y="0" type="line"/>
      <point x="74" y="0" type="line"/>
      <point x="161" y="499" type="line"/>
      <point x="106" y="499" type="line"/>
    </contour>
    <contour>
      <point x="31" y="544" type="line"/>
      <point x="251" y="544" type="line"/>
      <point x="262" y="602" type="line"/>
      <point x="42" y="602" type="line"/>
    </contour>
  </outline>
</glyph>
<glyph name="Iogonek" format="2">
  <advance width="265"/>
  <unicode hex="012E"/>
  <outline>
    <contour>
      <point x="133" y="649" type="line"/>
      <point x="201" y="647" type="line"/>
      <point x="87" y="0" type="line"/>
      <point x="143" y="0" type="line"/>
      <point x="266" y="698" type="line"/>
      <point x="142" y="698" type="line"/>
    </contour>
    <contour>
      <point x="44" y="-125" type="curve" smooth="yes"/>
      <point x="137" y="-1" type="line"/>
      <point x="139" y="8" type="line"/>
      <point x="94" y="4" type="line"/>
      <point x="93" y="-1" type="line"/>
      <point x="11" y="-111" type="line" smooth="yes"/>
      <point x="-43" y="-184"/>
      <point x="-5" y="-254"/>
      <point x="86" y="-229" type="curve" smooth="yes"/>
      <point x="105" y="-223"/>
      <point x="194" y="-194"/>
      <point x="196" y="-193" type="curve"/>
      <point x="187" y="-153" type="line"/>
      <point x="187" y="-153"/>
      <point x="142" y="-167"/>
      <point x="84" y="-187" type="curve" smooth="yes"/>
      <point x="31" y="-204"/>
      <point x="10" y="-172"/>
    </contour>
  </outline>
</glyph>
<glyph name="Idotaccent" format="2">
  <advance width="202"/>
  <unicode hex="0130"/>
  <outline>
    <contour>
      <point x="57" y="649" type="line"/>
      <point x="124" y="647" type="line"/>
      <point x="10" y="0" type="line"/>
      <point x="66" y="0" type="line"/>
      <point x="189" y="698" type="line"/>
      <point x="66" y="698" type="line"/>
    </contour>
    <contour>
      <point x="187" y="834" type="curve" smooth="yes"/>
      <point x="168" y="834"/>
      <point x="150" y="818"/>
      <point x="147" y="800" type="curve" smooth="yes"/>
      <point x="143" y="781"/>
      <point x="156" y="767"/>
      <point x="175" y="767" type="curve" smooth="yes"/>
      <point x="193" y="767"/>
      <point x="210" y="781"/>
      <point x="214" y="800" type="curve" smooth="yes"/>
      <point x="217" y="818"/>
      <point x="205" y="834"/>
    </contour>
  </outline>
</glyph>
<glyph name="dotlessi" format="1">
  <advance width="152"/>
  <unicode hex="0131"/>
  <outline>
    <contour>
      <point x="0" y="0" type="line"/>
      <point x="56" y="0" type="line"/>
      <point x="143" y="499" type="line"/>
      <point x="87" y="499" type="line"/>
    </contour>
    <contour>
      <point x="95" y="700" type="move" name="tonos"/>
    </contour>
    <contour>
      <point x="146" y="735" type="move" name="top"/>
    </contour>
    <contour>
      <point x="5" y="0" type="move" name="ogonek"/>
    </contour>
  </outline>
</glyph>
<glyph name="IJ" format="2">
  <advance width="521"/>
  <unicode hex="0132"/>
  <outline>
    <contour>
      <point x="528" y="698" type="line"/>
      <point x="405" y="698" type="line"/>
      <point x="396" y="649" type="line"/>
      <point x="464" y="647" type="line"/>
      <point x="382" y="186" type="line" smooth="yes"/>
      <point x="374" y="140"/>
      <point x="353" y="106"/>
      <point x="325" y="81" type="curve" smooth="yes"/>
      <point x="293" y="54"/>
      <point x="251" y="42"/>
      <point x="203" y="42" type="curve" smooth="yes"/>
      <point x="161" y="42"/>
      <point x="125" y="53"/>
      <point x="103" y="74" type="curve" smooth="yes"/>
      <point x="76" y="98"/>
      <point x="65" y="135"/>
      <point x="74" y="186" type="curve" smooth="yes"/>
      <point x="81" y="222" type="line"/>
      <point x="26" y="222" type="line"/>
      <point x="19" y="185" type="line" smooth="yes"/>
      <point x="7" y="118"/>
      <point x="19" y="68"/>
      <point x="54" y="36" type="curve" smooth="yes"/>
      <point x="90" y="4"/>
      <point x="138" y="-11"/>
      <point x="195" y="-11" type="curve" smooth="yes"/>
      <point x="251" y="-11"/>
      <point x="302" y="4"/>
      <point x="349" y="36" type="curve" smooth="yes"/>
      <point x="395" y="68"/>
      <point x="425" y="118"/>
      <point x="437" y="185" type="curve" smooth="yes"/>
    </contour>
    <contour>
      <point x="165" y="698" type="line"/>
      <point x="42" y="698" type="line"/>
      <point x="33" y="649" type="line"/>
      <point x="101" y="647" type="line"/>
      <point x="35" y="274" type="line"/>
      <point x="90" y="274" type="line"/>
    </contour>
  </outline>
</glyph>
<glyph name="Jcircumflex" format="2">
  <advance width="323"/>
  <unicode hex="0134"/>
  <outline>
    <contour>
      <point x="149" y="118" type="curve" smooth="yes"/>
      <point x="252" y="698" type="line"/>
      <point x="129" y="698" type="line"/>
      <point x="120" y="649" type="line"/>
      <point x="186" y="647" type="line"/>
      <point x="91" y="113" type="line" smooth="yes"/>
      <point x="77" y="34"/>
      <point x="34" y="0"/>
      <point x="-10" y="0" type="curve"/>
      <point x="-3" y="-37" type="line"/>
      <point x="39" y="-37"/>
      <point x="75" y="-21"/>
      <point x="101" y="10" type="curve" smooth="yes"/>
      <point x="125" y="36"/>
      <point x="141" y="73"/>
    </contour>
    <contour>
      <point x="360" y="854" type="curve" smooth="yes"/>
      <point x="361" y="860" type="line"/>
      <point x="316" y="860" type="line"/>
      <point x="315" y="854" type="line" smooth="yes"/>
      <point x="308" y="816"/>
      <point x="272" y="785"/>
      <point x="235" y="785" type="curve" smooth="yes"/>
      <point x="198" y="785"/>
      <point x="173" y="816"/>
      <point x="180" y="854" type="curve" smooth="yes"/>
      <point x="181" y="860" type="line"/>
      <point x="135" y="860" type="line"/>
      <point x="134" y="854" type="line" smooth="yes"/>
      <point x="123" y="791"/>
      <point x="164" y="740"/>
      <point x="227" y="740" type="curve" smooth="yes"/>
      <point x="290" y="740"/>
      <point x="349" y="791"/>
    </contour>
  </outline>
</glyph>
<glyph name="Kcommaaccent" format="2">
  <advance width="465"/>
  <unicode hex="0136"/>
  <outline>
    <contour>
      <point x="120" y="366" type="line"/>
      <point x="179" y="698" type="line"/>
      <point x="123" y="698" type="line"/>
      <point x="0" y="0" type="line"/>
      <point x="56" y="0" type="line"/>
      <point x="103" y="268" type="line"/>
      <point x="163" y="344" type="line"/>
      <point x="329" y="0" type="line"/>
      <point x="396" y="0" type="line"/>
      <point x="210" y="397" type="line"/>
      <point x="467" y="698" type="line"/>
      <point x="402" y="698" type="line"/>
    </contour>
    <contour>
      <point x="127" y="-198" type="curve"/>
      <point x="141" y="-210" type="line"/>
      <point x="165" y="-191"/>
      <point x="205" y="-153"/>
      <point x="216" y="-90" type="curve" smooth="yes"/>
      <point x="219" y="-70"/>
      <point x="207" y="-56"/>
      <point x="189" y="-56" type="curve" smooth="yes"/>
      <point x="170" y="-56"/>
      <point x="152" y="-72"/>
      <point x="149" y="-90" type="curve" smooth="yes"/>
      <point x="146" y="-107"/>
      <point x="155" y="-120"/>
      <point x="172" y="-123" type="curve"/>
      <point x="165" y="-144"/>
      <point x="153" y="-172"/>
    </contour>
  </outline>
</glyph>
<glyph name="kcommaaccent" format="2">
  <advance width="400"/>
  <unicode hex="0137"/>
  <outline>
    <contour>
      <point x="209" y="351" type="curve"/>
      <point x="380" y="480" type="line"/>
      <point x="347" y="518" type="line"/>
      <point x="114" y="334" type="line"/>
      <point x="179" y="698" type="line"/>
      <point x="123" y="698" type="line"/>
      <point x="0" y="0" type="line"/>
      <point x="56" y="0" type="line"/>
      <point x="103" y="272" type="line"/>
      <point x="163" y="316" type="line"/>
      <point x="299" y="0" type="line"/>
      <point x="366" y="0" type="line"/>
      <point x="293" y="158"/>
      <point x="241" y="276"/>
    </contour>
    <contour>
      <point x="106" y="-175" type="curve"/>
      <point x="122" y="-187" type="line"/>
      <point x="145" y="-168"/>
      <point x="185" y="-130"/>
      <point x="196" y="-67" type="curve" smooth="yes"/>
      <point x="199" y="-46"/>
      <point x="187" y="-33"/>
      <point x="168" y="-33" type="curve" smooth="yes"/>
      <point x="150" y="-33"/>
      <point x="132" y="-48"/>
      <point x="129" y="-66" type="curve" smooth="yes"/>
      <point x="126" y="-84"/>
      <point x="135" y="-97"/>
      <point x="150" y="-99" type="curve"/>
      <point x="144" y="-120"/>
      <point x="131" y="-149"/>
    </contour>
  </outline>
</glyph>
<glyph name="kgreenlandic" format="2">
  <advance width="434"/>
  <unicode hex="0138"/>
  <outline>
    <contour>
      <point x="296" y="117" type="curve" smooth="yes"/>
      <point x="201" y="295" type="line"/>
      <point x="424" y="499" type="line"/>
      <point x="350" y="499" type="line"/>
      <point x="104" y="273" type="line"/>
      <point x="143" y="497" type="line"/>
      <point x="89" y="510" type="line"/>
      <point x="0" y="0" type="line"/>
      <point x="56" y="0" type="line"/>
      <point x="90" y="197" type="line"/>
      <point x="155" y="253" type="line"/>
      <point x="234" y="110" type="line" smooth="yes"/>
      <point x="248" y="85"/>
      <point x="259" y="66"/>
      <point x="267" y="54" type="curve"/>
      <point x="276" y="42"/>
      <point x="290" y="30"/>
      <point x="306" y="16" type="curve"/>
      <point x="324" y="4"/>
      <point x="345" y="-1"/>
      <point x="368" y="-1" type="curve"/>
      <point x="375" y="47" type="line"/>
      <point x="348" y="47"/>
      <point x="322" y="71"/>
    </contour>
  </outline>
</glyph>
<glyph name="Lacute" format="2">
  <advance width="393"/>
  <unicode hex="0139"/>
  <outline>
    <contour>
      <point x="0" y="0" type="line"/>
      <point x="360" y="0" type="line"/>
      <point x="368" y="50" type="line"/>
      <point x="64" y="50" type="line"/>
      <point x="179" y="698" type="line"/>
      <point x="123" y="698" type="line"/>
    </contour>
    <contour>
      <point x="200" y="858" type="curve" smooth="yes"/>
      <point x="143" y="751" type="line"/>
      <point x="178" y="751" type="line"/>
      <point x="246" y="831" type="line"/>
      <point x="260" y="845"/>
      <point x="264" y="868"/>
      <point x="248" y="878" type="curve" smooth="yes"/>
      <point x="232" y="888"/>
      <point x="209" y="877"/>
    </contour>
  </outline>
</glyph>
<glyph name="lacute" format="2">
  <advance width="224"/>
  <unicode hex="013A"/>
  <outline>
    <contour>
      <point x="0" y="0" type="line"/>
      <point x="56" y="0" type="line"/>
      <point x="179" y="698" type="line"/>
      <point x="123" y="698" type="line"/>
    </contour>
    <contour>
      <point x="196" y="849" type="curve" smooth="yes"/>
      <point x="140" y="743" type="line"/>
      <point x="176" y="743" type="line"/>
      <point x="242" y="822" type="line"/>
      <point x="257" y="836"/>
      <point x="260" y="859"/>
      <point x="244" y="869" type="curve" smooth="yes"/>
      <point x="228" y="879"/>
      <point x="206" y="868"/>
    </contour>
  </outline>
</glyph>
